<svg width="200" height="154" fill="none" xmlns="http://www.w3.org/2000/svg"><g clip-path="url(#a)"><path opacity=".1" d="M196.131 34.984a40.911 40.911 0 0 0-7.935-10.687l-110.063-.916 90.619-10.76a59.711 59.711 0 0 0-18.386-3.083C141.642 3.582 130.43.008 118.2.008c-10.973 0-21.12 2.884-29.393 7.776-7.03-3.062-15.044-4.798-23.56-4.798-24.454 0-44.831 14.318-49.403 33.308l180.287-1.31ZM200 50.91a34.88 34.88 0 0 0-3.43-15.03L5.816 52.807a37.086 37.086 0 0 0-4.47 9.542l59.072 7.444L0 75.219c1.818 21.498 23.616 38.471 50.244 38.471 13.404 0 25.582-4.301 34.607-11.315 9.053 7.147 21.349 11.542 34.898 11.542 20.101 0 37.451-9.676 45.531-23.666 16.208-4.35 28.8-15.27 33.109-28.932l-74.702-9.795H200v-.614ZM88.492 153.644c28.345 0 51.324-1.025 51.324-2.29 0-1.265-22.979-2.29-51.324-2.29s-51.324 1.025-51.324 2.29c0 1.265 22.979 2.29 51.324 2.29Z" fill="#00BAFC"/><path d="M118.954 147.326v1.384h-40.93v-1.124a13.455 13.455 0 0 0 8.77-12.113 13.45 13.45 0 0 0-7.843-12.731h39.725a13.453 13.453 0 0 0 .278 24.584Z" fill="#C8CAD7"/><path opacity=".1" d="M118.676 122.742a13.464 13.464 0 0 0-7.433 8.918H86.386a13.472 13.472 0 0 0-7.434-8.918h39.724Z" fill="#000"/><path d="M31.15 115.69v7.77c0 4.29 3.14 7.768 7.015 7.768h120.428c3.874 0 7.014-3.478 7.014-7.768v-7.77H31.15Z" fill="#C8CAD7"/><path opacity=".1" d="M118.954 147.326v1.384h-40.93v-1.124a13.448 13.448 0 0 0 3.157-1.682h35.263a13.536 13.536 0 0 0 2.51 1.422Z" fill="#000"/><path d="M130.798 146.336H66.18c-.928 0-1.68.753-1.68 1.682v.738c0 .928.752 1.681 1.68 1.681h64.618c.929 0 1.682-.753 1.682-1.681v-.738c0-.929-.753-1.682-1.682-1.682Z" fill="#C8CAD7"/><path d="M165.607 30.552a7.01 7.01 0 0 0-7.014-7.003H38.17a7.012 7.012 0 0 0-7.02 7.003v86.65h134.457v-86.65Z" fill="#474157"/><path d="M161.947 33.681v74.455a3.463 3.463 0 0 1-1.011 2.443 3.45 3.45 0 0 1-2.442 1.01H38.278a3.445 3.445 0 0 1-3.19-2.131 3.45 3.45 0 0 1-.263-1.322V33.681a3.453 3.453 0 0 1 3.453-3.453h120.207a3.453 3.453 0 0 1 3.462 3.453Z" fill="#4C4C78"/><path d="M98.38 28.503a1.62 1.62 0 1 0 0-3.24 1.62 1.62 0 0 0 0 3.24ZM98.38 127.777a3.993 3.993 0 1 0 0-7.985 3.993 3.993 0 0 0 0 7.985ZM61.687 31.956v79.633h-23.41a3.445 3.445 0 0 1-3.19-2.131 3.45 3.45 0 0 1-.262-1.322V33.681l.125-.469.337-1.256h26.4Z" fill="#fff"/><path d="M64.69 33.212v7.168H34.825v-6.699l.125-.469h29.74Z" fill="#4C4C78"/><path d="M161.947 33.681H34.825a3.45 3.45 0 0 1 3.453-3.45h120.207a3.452 3.452 0 0 1 3.462 3.45Z" fill="#C8CAD7"/><path d="M38.278 32.82a.864.864 0 1 0 0-1.728.864.864 0 0 0 0 1.727ZM40.867 32.82a.864.864 0 1 0 0-1.728.864.864 0 0 0 0 1.727ZM43.457 32.82a.864.864 0 1 0 0-1.728.864.864 0 0 0 0 1.727Z" fill="#EDEDF4"/><path d="M57.223 36.368H39.289v1.651h17.934v-1.65Z" fill="#00BAFC"/><path opacity=".5" d="M57.223 44.421H39.289v1.652h17.934V44.42ZM57.223 50.115H39.289v1.651h17.934v-1.651ZM57.223 55.809H39.289v1.651h17.934V55.81ZM57.223 61.5H39.289v1.652h17.934v-1.651ZM57.223 67.195H39.289v1.651h17.934v-1.651ZM57.223 72.888H39.289v1.652h17.934v-1.652ZM57.223 78.58H39.289v1.652h17.934V78.58Z" fill="#00BAFC"/><path opacity=".5" d="M155.841 42.44H76.37v.266h79.471v-.265ZM155.841 48.605H76.37v.266h79.471v-.266ZM155.841 54.772H76.37v.265h79.471v-.265ZM155.841 60.936H76.37v.266h79.471v-.266ZM155.841 67.1H76.37v.266h79.471v-.265Z" fill="#DCE0ED"/><path opacity=".5" d="M155.843 67.365h-79.57V55.24l7.297 3.596 7.552 1.023 6.627-1.998 7.994-6.2 4.022-2.322 2.94-.567 2.812.15 4.626 2.286 6.287 4.005 4.935.636 3.913-1.35 8.292-6.792 4.234-1.51 4.43.685 3.609 2.083v18.399Z" fill="#00BAFC"/><path d="M90.142 59.864c-7.165 0-13.788-4.383-13.87-4.44l.197-.293c.103.069 10.294 6.812 18.954 3.434 3.161-1.23 5.405-3.147 7.586-4.999 2.271-1.934 4.416-3.762 7.338-4.555 3.363-.908 7.018-.085 9.802 2.201 2.379 1.956 7.118 5.098 12.125 4.158 2.553-.478 4.705-2.343 6.983-4.317 4.361-3.787 8.885-7.697 16.688-2.083l-.207.287c-7.584-5.45-11.993-1.63-16.255 2.063-2.315 2.008-4.502 3.894-7.148 4.399-5.151.964-9.99-2.238-12.416-4.232-2.696-2.216-6.241-3.01-9.484-2.133-2.847.772-4.955 2.574-7.201 4.481-2.197 1.871-4.47 3.807-7.682 5.06a14.845 14.845 0 0 1-5.41.969Z" fill="#00BAFC"/><path d="M114.611 50.708a1.97 1.97 0 1 0 0-3.94 1.97 1.97 0 0 0 0 3.94Z" fill="#00BAFC"/><path d="M65.243 91.547c-2.693-1.55-3.717-1.935-3.717-1.936l-.055-.04a2.24 2.24 0 0 1-.68-.858v-.177.018c.044-.821.627-1.567 1.18-2.218l1.417-1.665c.162-.169.287-.37.364-.591.029-.116.042-.235.04-.354v-.145c0-.415-.02-.829-.035-1.24-.014-.362-.106-.817-.468-.884-.188-.04-.436.028-.532-.133a.298.298 0 0 1-.024-.214v.016a.09.09 0 0 1 0-.02 4.9 4.9 0 0 0 .134-.851 1.223 1.223 0 0 0-.058-.43c-.21-.6-.931-.846-1.568-.96-.638-.113-1.352-.21-1.752-.707a5.8 5.8 0 0 0-.354-.48 1.394 1.394 0 0 0-.654-.322 3.667 3.667 0 0 0-2.368.207c-.308.138-.617.322-.956.302-.337-.019-.65-.265-.998-.323-.559-.096-1.095.316-1.371.803-.164.289-.251.615-.253.947v.055c-.007.357.123.703.364.966.24.251.6.423.708.752.04.135.032.28.067.415 0 .017.01.033.016.05l-.02.024a4.207 4.207 0 0 0-.884 2.587 4.294 4.294 0 0 0 3.009 4.071v.128a1.83 1.83 0 0 1-.584 1.424l-3.82 1.533s-2.3-.272-3.13 3.089a5.695 5.695 0 0 0-.14 1.704c.03.508-.041 1.4-.63 2.554-.944 1.848-.73 6.087 1.2 6.506 1.82.397 2.534.232 2.608.213v.074c-.03.797-.319 7.657-1.368 8.496-.292.228-.237.384 0 .488v.124c-.032.503-.195 2.412-.897 3.501-.807 1.255-.715 8.511-.715 8.511l-.556 4.282s.341 2.644 0 3.106c-.306.412-.708 10.197-.8 12.317h-.036a1.026 1.026 0 0 0-.824.503c-.457.732-2.032 2.083-2.032 2.083-.342.486-1.61.952-2.278 1.171a1.51 1.51 0 0 0-.258.112c-.251.136-.452.348-.576.605a.653.653 0 0 0-.06.505c.177.419 3.73.708 4.628.293.708-.329 3.512-.764 4.676-.934a.963.963 0 0 0 .832-.832.55.55 0 0 0-.106-.416c-.223-.276-.338-1.03-.39-1.522.095-.039.184-.091.263-.156a11.168 11.168 0 0 1 .642-4.492c.857-2.265 1.115-6.463.901-9.193 0 0 2.614-11.251 4.673-12.301.032.039 1.03 1.321 1.157 5.289.128 4.03 1.584 6.674 1.584 6.674s-.642 6.843 0 9.404l-.844 4.033a1.063 1.063 0 0 1-.1-.092l.06.292-.018.085.035.009c.096.505.237 1.384.177 1.901-.034.296-.115.697-.177 1.094-.089.621-.113 1.225.214 1.356.531.216 3.687.511 4.223-.177a.992.992 0 0 0 .156-1.037 1.064 1.064 0 0 0-.156-.264s-.837-1.368-.6-2.333a.705.705 0 0 0-.1-.552c.122-1.527.368-3.042.734-4.529.53-2.02 1.667-6.448.835-9.361a5.159 5.159 0 0 0-.106-.337 12.566 12.566 0 0 1-.472-4.911 9.987 9.987 0 0 1 0-4.282c.51-2.348.869-4.649.869-4.649s.283-3.106.035-5.011l-.016-.122.135-.03s-.728-3.232-.986-5.288c-.06-.487-.14-1.101-.227-1.758.237-.041.471-.1.7-.177 2.314-.798 3.042-8.02 3.042-8.02v-2.29s.771-3.499-1.93-5.058Zm-17.245 55.752-.113-.06.113.06Z" fill="url(#b)"/><path d="M63.846 133.212c1.004 2.887-.177 7.572-.708 9.664a29.34 29.34 0 0 0-.708 4.602 9.744 9.744 0 0 1-3.681-.085l.885-4.308c-.627-2.552 0-9.372 0-9.372s-1.416-2.637-1.547-6.653c-.124-3.952-1.098-5.23-1.13-5.271-2.022 1.052-4.568 12.261-4.568 12.261.21 2.718-.042 6.902-.885 9.162a11.338 11.338 0 0 0-.628 4.477c-.292.246-.699.288-1.138.217-1.195-.193-2.626-1.223-2.626-1.223s.46-12.212.794-12.676c.335-.464 0-3.095 0-3.095l.544-4.268s-.084-7.237.708-8.495c.686-1.085.844-2.99.876-3.489v-.124l1.21-1.449s11.715-.885 12.593 0c.216.216.354.708.429 1.324.24 1.897-.036 4.993-.036 4.993s-.354 2.3-.853 4.642a10.158 10.158 0 0 0 0 4.267 12.742 12.742 0 0 0 .47 4.899Z" fill="#65617D"/><path d="M63.113 151.558c-.522.69-3.596.398-4.12.177-.32-.133-.296-.733-.209-1.353.055-.394.135-.796.166-1.088.085-.754-.25-2.282-.25-2.282s.691.733.857 0a.801.801 0 0 1 .597-.566 1.566 1.566 0 0 1 1.087.067c.543.236 1.45.738 1.286 1.416-.23.961.586 2.324.586 2.324.063.08.115.169.152.264a1.003 1.003 0 0 1-.152 1.041Z" fill="#A27772"/><path opacity=".1" d="M63.113 151.558c-.522.69-3.596.398-4.12.177-.32-.133-.296-.733-.209-1.353.33.154.885.284 1.827.197.218-.021.438-.028.658-.021.666.031 1.333.018 1.997-.039a1.003 1.003 0 0 1-.153 1.039ZM52.39 134.049c.208 2.719-.043 6.903-.886 9.163a11.335 11.335 0 0 0-.628 4.476c-.292.246-.7.289-1.138.218.253-1.77 1.327-9.368 2.018-15.373.784-6.841 4.455-11.547 4.455-11.547l.732.805c-2.008 1.05-4.554 12.258-4.554 12.258Z" fill="#000"/><path d="m61.858 90.08-.511 2.51-2.501 4.205-3.085-1.319s-4.195-4.393-1.56-5.02c.317-.067.615-.2.877-.389.517-.39.68-.957.683-1.513a4.653 4.653 0 0 0-.428-1.8l5.396-1.694a8.59 8.59 0 0 0-.387 2.186c-.041 1.469.504 2.195.952 2.54.166.135.358.234.564.294Z" fill="#FBBEBE"/><path opacity=".1" d="M60.73 85.06a8.585 8.585 0 0 0-.388 2.186 4.265 4.265 0 0 1-4.581 1.308 4.651 4.651 0 0 0-.428-1.8l5.396-1.694Z" fill="#000"/><path d="M61.347 84.37a4.267 4.267 0 1 1-4.267-4.267 4.256 4.256 0 0 1 4.267 4.267Z" fill="#FBBEBE"/><path opacity=".1" d="m61.858 90.08-.511 2.51-2.501 4.205-3.085-1.319s-4.195-4.393-1.56-5.02c.317-.067.615-.2.877-.389-.476 1.308 1.488 4.029 1.488 4.029.229.336.754.125.754.125 1.264-.191 3.595-3.83 3.974-4.435.166.134.358.234.564.294ZM64.274 114.414c-.743.177-4.853 1.078-6.41.851-1.715-.251-5.052-.417-5.052-.417s-2.123.113-2.775-.177v-.124l1.21-1.45s11.716-.885 12.594 0c.23.209.354.699.433 1.317Z" fill="#000"/><path d="M56.566 94.221s-2.207-3.056-1.375-4.248l-3.729 1.53s-2.244-.273-3.053 3.076a5.836 5.836 0 0 0-.14 1.7c.03.505-.039 1.394-.614 2.544-.92 1.841-.708 6.067 1.172 6.485 1.88.418 2.552.209 2.552.209s-.252 7.656-1.338 8.534c-1.087.878 2.773.669 2.773.669s3.335.177 5.05.42c1.715.242 6.525-.885 6.525-.885s-.708-3.221-.962-5.271c-.255-2.05-.836-6.414-.836-6.414l4.267-5.78s.753-3.494-1.883-5.041c-2.635-1.547-3.628-1.93-3.628-1.93s-2.655 4.314-4.028 4.523c0 .003-.524.216-.753-.12Z" fill="#FF748E"/><path opacity=".1" d="M51.67 95.435s-.04 1.38.212 1.924c.25.544 1.17 3.556 1.17 3.556h-2.09s1.128-1.212 1.045-1.798c-.083-.586-.336-3.682-.336-3.682Z" fill="#000"/><path d="M57.864 105.85s-4.62-1.13-5.05-2.091c-.43-.961-1.617-3.116-1.617-3.116l.486-.657 2.248 1.77s2.678 2.124 3.933 2.343c1.255.22 0 1.751 0 1.751Z" fill="#FBBEBE"/><path opacity=".05" d="M57.864 105.85s-4.62-1.13-5.05-2.091c-.43-.961-1.617-3.116-1.617-3.116l.486-.657 2.248 1.77s2.678 2.124 3.933 2.343c1.255.22 0 1.751 0 1.751Z" fill="#000"/><path d="M61.858 100.414v2.506h-.403c-1.99 0-3.948.507-5.689 1.473l-.754.418-.203.113-1.297-2.921 1.214-1.088h.062c.297.028 1.58.134 2.123-.048.544-.182 1.16-.733 2.68-.343.75.191 1.39 1.032 2.124.77l.143-.88Z" fill="#FBBEBE"/><path opacity=".1" d="m65.895 95.853.838.942v2.28s-.708 7.196-2.97 7.99c-2.262.795-6.292-.46-6.292-.46s-1.043-2.761-.556-2.929c.487-.168 4.308-1.175 4.308-1.175s-.055-4.221.782-5.476c0 0-.543-3.933 1.338-4.016 1.882-.083 2.552 2.844 2.552 2.844Z" fill="#000"/><path d="m66.018 95.853.837.942v2.28s-.708 7.196-2.972 7.99c-2.264.795-6.29-.46-6.29-.46s-1.043-2.761-.556-2.929c.487-.168 4.306-1.175 4.306-1.175s-.053-4.221.784-5.476c0 0-.545-3.933 1.338-4.016 1.884-.083 2.553 2.844 2.553 2.844Z" fill="#FF748E"/><path opacity=".1" d="M60.177 86.182a1.649 1.649 0 0 0-.096-.814.625.625 0 0 0-.662-.382c-.353.083-.513.548-.863.66-.296.094-.62-.115-.761-.391a2 2 0 0 1-.145-.91v-1.05c0-.38-.013-.79-.248-1.09-.292-.371-.977-.53-1.434-.518-.305.003-.597.12-.82.329a1.062 1.062 0 0 1-.861.308.746.746 0 0 1-.6-.52v-.015a4.268 4.268 0 1 1 6.347 5.664c.07-.42.118-.845.143-1.27Z" fill="#000"/><path d="M54.285 82.198a.75.75 0 0 1-.602-.52c-.033-.135-.025-.28-.065-.412-.098-.33-.448-.501-.684-.75-.47-.5-.44-1.323-.107-1.925.27-.485.793-.894 1.34-.8.337.06.63.301.973.322.343.022.632-.162.933-.3.724-.329 1.54-.401 2.311-.206.237.047.458.158.637.32.122.153.236.313.34.478.39.498 1.089.595 1.71.708.621.114 1.326.354 1.529.958.136.396 0 .826-.073 1.239a.354.354 0 0 0 .016.256c.098.162.34.094.531.131.354.075.443.531.455.885.017.411.028.824.034 1.24a1.59 1.59 0 0 1-.036.458c-.076.214-.197.41-.354.575l-1.382 1.66c-.612.736-1.262 1.593-1.14 2.543-.29.13-.633-.12-.729-.424-.095-.305-.02-.63.046-.942.111-.539.184-1.084.218-1.633a1.653 1.653 0 0 0-.096-.816.627.627 0 0 0-.664-.383c-.353.083-.511.549-.861.66-.296.096-.62-.115-.761-.39a2.024 2.024 0 0 1-.146-.91v-1.05c0-.38-.012-.791-.247-1.09-.29-.372-.977-.531-1.434-.519-.305.003-.597.12-.82.33a1.06 1.06 0 0 1-.872.307Z" fill="#7C5C5C"/><path opacity=".1" d="m55.248 95.331 1.311 5.38s1.032-.005-1.311-5.38ZM59.726 94.43s-1.717 2.81-1.046 5.715l.318.023s-.57-1.345.728-5.738ZM60.812 110.329s2.107-.697 2.26.921c0 0-.398-1.11-2.26-.921ZM54.726 101.041s-.418 2.929.334 4.101a9.195 9.195 0 0 1-3.681.5l-.252-4.601h3.599Z" fill="#000"/><path opacity=".1" d="m55.012 104.811-.203.113-1.297-2.92 1.214-1.089h.062c-.02.142-.358 2.657.224 3.896Z" fill="#000"/><path d="M54.726 100.915s-.418 2.929.334 4.101a9.195 9.195 0 0 1-3.681.501l-1.464-4.602h4.81Z" fill="#FF748E"/><path d="M51.106 149.777a.943.943 0 0 1-.812.828c-1.135.177-3.873.602-4.563.931-.885.42-4.35.126-4.519-.292a.662.662 0 0 1 .06-.504 1.378 1.378 0 0 1 .813-.708c.655-.22 1.89-.682 2.223-1.167 0 0 1.54-1.348 1.979-2.076a1 1 0 0 1 .805-.501c.366-.017.773.169.942.97 0 0 2.007 1.145 2.55.142 0 0 .083 1.542.416 1.965a.545.545 0 0 1 .106.412Z" fill="#A27772"/><path opacity=".1" d="M51.106 149.777a.943.943 0 0 1-.812.828c-1.135.177-3.873.602-4.563.931-.885.42-4.35.126-4.519-.292a.662.662 0 0 1 .06-.504c.12-.255.316-.465.562-.602.566.375 1.823.743 4.587.312 2.637-.413 3.942-.816 4.579-1.091a.557.557 0 0 1 .106.418Z" fill="#000"/><g opacity=".1" fill="#000"><path opacity=".1" d="M62.522 81.366v-.02c.083-.31.126-.63.13-.95-.027.257-.07.51-.13.761a.463.463 0 0 0 0 .21ZM60.081 85.281c.066.151.1.314.103.478a1.436 1.436 0 0 0-.103-.665.628.628 0 0 0-.663-.384c-.354.083-.512.55-.862.662-.296.094-.62-.117-.761-.393-.12-.288-.17-.6-.145-.91v-1.048c0-.38-.013-.79-.248-1.09-.292-.373-.977-.531-1.436-.52a1.209 1.209 0 0 0-.817.33 1.06 1.06 0 0 1-.862.307.742.742 0 0 1-.602-.52c-.035-.135-.025-.278-.066-.413-.097-.33-.447-.499-.683-.749a1.377 1.377 0 0 1-.354-.885 1.433 1.433 0 0 0 .354 1.073c.236.25.586.421.683.75.041.133.03.278.066.413a.75.75 0 0 0 .602.52 1.062 1.062 0 0 0 .862-.308c.222-.206.512-.323.816-.327.458-.014 1.143.148 1.435.52.235.3.246.708.248 1.09v1.048a1.98 1.98 0 0 0 .145.912c.142.276.465.485.761.39.354-.11.504-.576.862-.661a.632.632 0 0 1 .665.38ZM63.52 84.13a1.647 1.647 0 0 1-.354.576 447.82 447.82 0 0 0-1.382 1.659c-.58.699-1.197 1.508-1.152 2.4.042-.818.612-1.561 1.152-2.211l1.382-1.66a1.64 1.64 0 0 0 .354-.575c.034-.151.046-.306.036-.46-.001.09-.013.182-.036.27ZM59.913 88.485a.99.99 0 0 1-.042-.225 1.12 1.12 0 0 0 .042.413c.094.304.44.554.73.424 0-.061-.013-.123-.015-.177-.286.115-.628-.138-.715-.435Z"/></g><path opacity=".1" d="M46.018 147.163s.437.768 2.023.09l-2.023-.09ZM59.407 147.347s1.368 1.609 3.09.531l-3.09-.531ZM63.386 128.317s-.967.603-.998.948c-.032.346.499-.251.499-.251l.499-.697ZM63.766 132.943c-.335.28-.753.443-1.189.464-.722.032-.662.974-.19.69.473-.283 1.38-1.154 1.38-1.154ZM63.95 133.547s-.463 2.276-.84 1.837l.84-1.837Z" fill="#000"/><g opacity=".5" fill="#DCE0ED"><path opacity=".5" d="M95.074 81.177H83.393v2.478h11.681v-2.478ZM121.897 81.177h-11.681v2.478h11.681v-2.478ZM148.72 81.177h-11.681v2.478h11.681v-2.478Z"/></g><path opacity=".1" d="M168.625 142.627c2.632 0 4.766-.361 4.766-.806 0-.445-2.134-.805-4.766-.805-2.633 0-4.767.36-4.767.805 0 .445 2.134.806 4.767.806ZM20.393 152.795c2.632 0 4.766-.361 4.766-.806 0-.444-2.134-.805-4.766-.805-2.633 0-4.767.361-4.767.805 0 .445 2.135.806 4.767.806Z" fill="#00BAFC"/><path d="M158.193 151.655c3.93 0 7.117-.539 7.117-1.204 0-.664-3.187-1.203-7.117-1.203-3.931 0-7.117.539-7.117 1.203 0 .665 3.186 1.204 7.117 1.204Z" fill="#00BAFC"/><path d="M161.135 148.485c.324-.265.561-.622.677-1.025.089-.407-.085-.894-.472-1.042-.436-.167-.901.134-1.255.44-.354.307-.756.652-1.218.588a1.855 1.855 0 0 0 .574-1.736.716.716 0 0 0-.16-.354c-.242-.259-.679-.149-.969.055-.921.647-1.177 1.897-1.183 3.023-.092-.406-.014-.829-.016-1.239-.001-.411-.117-.885-.467-1.103a1.406 1.406 0 0 0-.708-.166c-.414-.016-.876.024-1.157.327-.354.377-.261 1.007.044 1.416.304.409.771.673 1.198.959.343.205.636.484.857.816a.863.863 0 0 1 .062.147h2.594a7.243 7.243 0 0 0 1.599-1.106ZM20.61 140.042s.974 1.273-.447 3.186c-1.421 1.914-2.593 3.54-2.124 4.738 0 0 2.145-3.566 3.894-3.616 1.748-.049.598-2.162-1.322-4.308Z" fill="#00BAFC"/><path opacity=".1" d="M20.61 140.042c.086.124.153.258.2.4 1.703 2 2.61 3.868.972 3.914-1.524.044-3.352 2.77-3.79 3.458.014.053.03.106.05.158 0 0 2.146-3.567 3.894-3.616 1.749-.05.595-2.168-1.325-4.314Z" fill="#000"/><path d="M22.418 141.664c0 .448-.05.81-.112.81s-.111-.354-.111-.81c0-.457.062-.237.124-.237s.099-.211.099.237Z" fill="#FFD037"/><path d="M23.039 142.198c-.393.214-.736.344-.765.289-.028-.055.264-.273.657-.487.393-.214.239-.058.267 0 .029.058.234-.016-.16.198Z" fill="#FFD037"/><path d="M15.476 140.042s-.973 1.273.448 3.186c1.421 1.914 2.593 3.54 2.124 4.738 0 0-2.143-3.566-3.894-3.616-1.75-.049-.598-2.162 1.322-4.308Z" fill="#00BAFC"/><path opacity=".1" d="M15.476 140.042a1.61 1.61 0 0 0-.2.4c-1.703 2-2.609 3.868-.972 3.914 1.524.044 3.353 2.77 3.792 3.458a1.292 1.292 0 0 1-.053.158s-2.144-3.567-3.894-3.616c-1.75-.05-.593-2.168 1.327-4.314Z" fill="#000"/><path d="M13.667 141.664c0 .448.052.81.114.81.061 0 .111-.354.111-.81 0-.457-.062-.237-.124-.237s-.1-.211-.1.237Z" fill="#FFD037"/><path d="M13.048 142.198c.393.214.734.344.764.289.03-.055-.263-.273-.656-.487-.393-.214-.24-.058-.27 0-.03.058-.231-.016.162.198Z" fill="#FFD037"/><path d="M13.982 147.805s2.719-.085 3.54-.667c.821-.582 4.182-1.281 4.386-.345.203.936 4.085 4.653 1.016 4.678-3.07.025-7.131-.478-7.949-.975-.817-.498-.993-2.691-.993-2.691Z" fill="#A8A8A8"/><path opacity=".2" d="M22.972 151.145c-3.07.025-7.133-.478-7.95-.975-.622-.381-.872-1.742-.953-2.368h-.092s.177 2.191.991 2.69c.814.499 4.88 1 7.949.975.885 0 1.191-.322 1.175-.789-.124.287-.462.462-1.12.467Z" fill="#000"/><path d="M82.566 98.481c0-3.617 2.944-6.396 6.563-6.396h.052v-1.646h-.052c-4.527 0-8.209 3.517-8.209 8.042a8.19 8.19 0 0 0 2.813 6.177l1.166-1.166a6.556 6.556 0 0 1-2.333-5.01Z" fill="#00BAFC"/><path opacity=".5" d="M89.345 90.44v1.647a6.561 6.561 0 1 1-4.281 11.57l-1.17 1.166a8.203 8.203 0 0 0 13.547-7.157 8.205 8.205 0 0 0-8.1-7.225h.004ZM143.15 92.002c3.618 0 6.397 2.943 6.397 6.563v.05h1.646v-.05c0-4.526-3.517-8.21-8.043-8.21a8.184 8.184 0 0 0-6.177 2.813l1.167 1.166a6.538 6.538 0 0 1 5.01-2.332Z" fill="#00BAFC"/><path d="M151.191 98.78h-1.646a6.568 6.568 0 0 1-2.83 5.354 6.558 6.558 0 0 1-6.008.756 6.56 6.56 0 0 1-2.732-10.391l-1.161-1.166a8.205 8.205 0 1 0 14.383 5.448h-.006Z" fill="#00BAFC"/><path opacity=".5" d="m119.292 90.922-.327 1.64c2.408.97 3.948 3.332 3.948 6.084a6.558 6.558 0 0 1-6.833 6.557 6.56 6.56 0 0 1-2.358-12.566l-.729-1.478a8.205 8.205 0 1 0 11.573 7.487c0-3.552-2.102-6.582-5.274-7.724Z" fill="#00BAFC"/><path d="M116.565 91.99c.786 0 1.564.16 2.285.474l.327-1.638a7.24 7.24 0 0 0-2.612-.483c-1.16 0-2.306.247-3.363.724l.736 1.475a6.494 6.494 0 0 1 2.627-.553Z" fill="#00BAFC"/></g><defs><linearGradient id="b" x1="54.071" y1="151.989" x2="54.071" y2="77.242" gradientUnits="userSpaceOnUse"><stop stop-color="gray" stop-opacity=".25"/><stop offset=".54" stop-color="gray" stop-opacity=".12"/><stop offset="1" stop-color="gray" stop-opacity=".1"/></linearGradient><clipPath id="a"><path fill="#fff" d="M0 0h200v153.646H0z"/></clipPath></defs></svg>