<svg width="200" height="129" fill="none" xmlns="http://www.w3.org/2000/svg"><g clip-path="url(#a)"><path opacity=".5" d="M187.91 109.735c-.362-1.492-1.549-2.616-2.423-3.879a10.51 10.51 0 0 1-.645-10.66c.84-1.598 2.158-3.252 1.681-4.998-.319-1.175-1.381-1.98-2.423-2.61a23.707 23.707 0 0 0-13.147-3.38c-5.661.23-11.302 2.492-16.854 1.371-5.406-1.094-9.987-3.805-15.643-4.126-4.225-.24-8.405.03-12.639-.433a187.377 187.377 0 0 0-31.503-.752 187.388 187.388 0 0 0-31.5.752c-4.224.462-8.406.193-12.64.433-5.673.32-10.243 3.034-15.651 4.126-5.554 1.123-11.194-1.14-16.854-1.372a23.708 23.708 0 0 0-13.147 3.381c-1.05.63-2.101 1.435-2.423 2.61-.475 1.744.84 3.398 1.681 4.999a10.506 10.506 0 0 1-.64 10.659c-.875 1.261-2.062 2.387-2.424 3.879-.727 3 2.19 5.644 5.043 6.835 7.785 3.255 17.253 1.681 24.374 6.213 3.192 2.034 5.984 5.299 9.767 5.421 2.557.082 4.883-1.338 7.116-2.588a68.177 68.177 0 0 1 10.445-4.743c3.152-1.122 6.49-2.021 9.817-1.649 5.079.561 27.032 11.168 36.929 4.9 6.778-4.297 12.065-4.333 17.156-4.902 3.326-.372 6.663.527 9.817 1.649a68.229 68.229 0 0 1 10.445 4.743c2.231 1.25 4.559 2.67 7.116 2.588 3.783-.122 6.575-3.387 9.767-5.421 7.116-4.534 16.582-2.958 24.374-6.213 2.838-1.196 5.757-3.831 5.028-6.833Z" fill="url(#b)"/><path d="M186.88 109.674c-.357-1.471-1.532-2.589-2.395-3.837a10.4 10.4 0 0 1-.631-10.541c.841-1.583 2.135-3.218 1.665-4.943-.318-1.161-1.366-1.958-2.396-2.58a23.447 23.447 0 0 0-13.002-3.345c-5.598.227-11.176 2.465-16.669 1.355-5.349-1.08-9.875-3.765-15.479-4.082-4.18-.236-8.321.03-12.498-.42a185.325 185.325 0 0 0-31.157-.744 185.324 185.324 0 0 0-31.156.743c-4.177.459-8.319.192-12.498.42-5.602.316-10.13 3.001-15.48 4.083-5.49 1.11-11.07-1.128-16.668-1.355a23.447 23.447 0 0 0-13.002 3.345c-1.03.63-2.079 1.419-2.396 2.58-.47 1.726.84 3.362 1.664 4.943a10.398 10.398 0 0 1-.63 10.541c-.866 1.248-2.038 2.36-2.395 3.837-.738 2.967 2.147 5.581 4.965 6.749 7.7 3.217 17.063 1.66 24.1 6.144 3.152 2.011 5.92 5.242 9.666 5.362 2.521.082 4.833-1.324 7.039-2.561a67.395 67.395 0 0 1 10.331-4.692c3.12-1.112 6.42-2.001 9.71-1.633 5.043.563 26.748 11.046 36.527 4.848 6.705-4.249 11.933-4.285 16.967-4.848 3.291-.368 6.592.521 9.71 1.633a67.421 67.421 0 0 1 10.332 4.692c2.208 1.235 4.509 2.641 7.039 2.561 3.74-.12 6.503-3.349 9.665-5.362 7.039-4.484 16.402-2.927 24.101-6.144 2.807-1.168 5.692-3.782 4.971-6.749Z" fill="#00BAFC"/><path opacity=".6" d="M7.342 46.062c.6-.21 1.24-.41 1.868-.3 1.05.183 1.788 1.179 2.1 2.202.314 1.023.303 2.101.503 3.152.2 1.05.676 2.137 1.618 2.639.941.502 2.053.304 3.097.183 1.37-.158 2.752-.171 4.125-.038 1.151.111 2.504.5 2.843 1.607.277.904-.274 1.826-.63 2.698-.686 1.63-.74 3.557.043 5.142.784 1.584 2.373 2.765 3.037 4.437.192.419.248.887.16 1.339-.099.316-.26.61-.476.861-.52.67-1.143 1.261-1.618 1.967-.99 1.471-1.26 3.299-1.374 5.066a36.93 36.93 0 0 0 .03 5.217c-1.29-.42-2.715-.046-4.045-.321-2.83-.584-4.598-3.934-7.48-4.137-1.364-.097-2.83.546-4.047-.078a3.055 3.055 0 0 1-1.295-1.47 5.22 5.22 0 0 1-.332-3.51c.21-.811.63-1.605.549-2.44-.07-.714-.498-1.344-.99-1.867-1.401-1.488-3.435-2.398-4.442-4.178a4.759 4.759 0 0 1 .565-5.356c.36-.35.7-.72 1.02-1.107.483-.68.63-1.54.695-2.374.139-1.998-.21-4.114.443-6.056.587-1.756 2.377-2.69 4.033-3.278Z" fill="#00BAFC"/><path opacity=".6" d="M7.371 46.121s5.738 31.869 13.19 35.67" stroke="#535461" stroke-miterlimit="10"/><path opacity=".6" d="M23.336 54.942s-6.146.84-12.286 7.155M12.13 65.799S7.4 61.176.01 61.96M26.042 67.81s-8.632.733-11.827 4.047M15.507 74.943s-4.833-.84-9.294 2.007" stroke="#535461" stroke-miterlimit="10"/><path opacity=".6" d="M184.995 21.029c-.964-.343-1.987-.656-2.994-.481-1.681.294-2.866 1.89-3.362 3.528-.496 1.636-.485 3.382-.804 5.063-.32 1.681-1.085 3.423-2.593 4.23-1.509.807-3.291.488-4.965.294a31.36 31.36 0 0 0-6.607-.07c-1.847.18-4.013.804-4.555 2.577-.443 1.45.437 2.925 1.025 4.322 1.099 2.612 1.188 5.703-.071 8.243-1.28 2.585-3.803 4.434-4.866 7.113-.269.68-.44 1.435-.257 2.143.158.508.417.978.763 1.383.84 1.075 1.832 2.023 2.593 3.151 1.586 2.354 2.017 5.287 2.202 8.12a59.211 59.211 0 0 1-.046 8.36c2.067-.68 4.353-.074 6.484-.513 4.536-.935 7.369-6.303 11.989-6.631 2.186-.154 4.537.874 6.487-.126.95-.488 1.624-1.397 2.076-2.366a8.365 8.365 0 0 0 .502-5.61c-.343-1.301-1.009-2.572-.878-3.91.111-1.146.796-2.156 1.586-2.993 2.246-2.385 5.507-3.843 7.121-6.694 1.513-2.673 1.13-6.289-.906-8.586-.533-.603-1.168-1.12-1.634-1.775-.776-1.09-1.024-2.47-1.116-3.805-.221-3.205.323-6.594-.712-9.706-.946-2.832-3.814-4.33-6.462-5.261Z" fill="#00BAFC"/><path opacity=".6" d="M184.941 21.113s-9.197 51.082-21.142 57.173" stroke="#535461" stroke-miterlimit="10"/><path opacity=".6" d="M159.35 35.252s9.851 1.353 19.693 11.47M177.311 52.654s7.584-7.415 19.426-6.155M155.024 55.877s13.834 1.175 18.957 6.489M171.901 67.312s7.751-1.358 14.897 3.215" stroke="#535461" stroke-miterlimit="10"/><path d="M15.74 0v104.051h152.742V0H15.74Z" fill="url(#c)"/><path d="M166.864 4.721H18.005v97.448h148.859V4.721Z" fill="#fff"/><path d="M166.864.086H18.005v7.17h148.859V.085Z" fill="#EEE"/><path d="M23.67 5.3a1.738 1.738 0 1 0 0-3.476 1.738 1.738 0 0 0 0 3.475Z" fill="#FF5252"/><path d="M28.45 5.3a1.738 1.738 0 1 0 0-3.476 1.738 1.738 0 0 0 0 3.475Z" fill="#FF0"/><path d="M33.23 5.3a1.738 1.738 0 1 0 0-3.476 1.738 1.738 0 0 0 0 3.475Z" fill="#69F0AE"/><path opacity=".5" d="M79.181 18.738H23.71v2.312H79.18v-2.312ZM79.181 23.361H23.71v2.311H79.18v-2.31ZM79.181 27.984H23.71v2.311H79.18v-2.311ZM79.181 32.606h-36.35v2.312h36.35v-2.312ZM52.916 37.229H23.71v2.311h29.206V37.23ZM61.952 41.852H39.469v2.31h22.483v-2.31ZM151.883 34.918H86.536v37.61h65.347v-37.61Z" fill="#00BAFC"/><path d="M159.657 38.49H94.31V76.1h65.347V38.49Z" fill="#EEE"/><path opacity=".5" d="M198.945 73.189a.984.984 0 0 0 .21-.607v-.017c0-.004.013-.044.019-.066v-.027a.619.619 0 0 0 0-.06v-.026a.32.32 0 0 0 0-.076c-.124-.84-5.118-6.316-6.366-12.995a11.842 11.842 0 0 0-.616-2.129 2.949 2.949 0 0 0-.067-1.03c-.21-.855-.631-1.722-.42-2.576.029-.111.068-.22.115-.325.262-.385.503-.784.721-1.196.081-.134.151-.274.21-.42.767-2.021-1.608-4.108-1.17-6.218.189-.913.897-1.712.878-2.643-.023-1.065-1.002-1.89-2.019-2.286-1.017-.395-2.137-.508-3.135-.95-2.188-.968-3.385-3.307-5.382-4.608-2.536-1.649-5.845-1.355-8.885-.928a.617.617 0 0 0-.467.344h-.029a2.792 2.792 0 0 1-.08.198c-.42.716-1.129 1.26-1.828 1.763-.853.6-1.767 1.193-2.288 2.084a4.49 4.49 0 0 0-.2.38c-1.135 2.024.229 2.898 1.891 3.383-.05.29-.075.583-.076.877 0 2.941 2.461 5.343 5.493 5.343.239 0 .479-.016.716-.046l.177.115h.04c.563.406 1.05.914 1.261 1.52l-1.761 1.344s.071.185.176.48l-6.921 3.189c-2.622.122-6.867-8.138-6.867-8.138s-.63-4.736-2.872-5.587c-.677-.257-.946.28-.992 1.153-1.002 1.051.681 6.951.681 6.951l5.368 9.474c.501.971.631 1.578 2.997 1.944 1.948.298 8.016-1.858 10.127-2.64l.099.841a4.927 4.927 0 0 0-.319 2.011c0 1.549.691 3.801 4.066 5.596 0 0 3.483 4.503 3.097 8.753 0 0 .168.177.437.408-.038 1.198-.21 2.675-.813 3.25a.315.315 0 0 0-.086.137.316.316 0 0 0-.009.162.307.307 0 0 0 .147.326l-4.398 7.7c-.163.21-.329.42-.5.63a22.506 22.506 0 0 1-2.708 2.89c-.733.653-1.496 1.368-1.647 1.635-.234.42-.82 1.775-.572 2.895.321 1.358.453 2.754.391 4.148l-.57 9.962a26.122 26.122 0 0 1-.787 3.288h-.087s-2.122 2.551-5.492 3.152-3.247 2.311-2.248 2.551c.998.239 13.109-.244 13.109-.244s.458-.893.332-1.708c3.866-.372 9.222-1.003 9.222-1.003s.733-1.763-.332-2.532a2.491 2.491 0 0 1-.853-1.212 43.666 43.666 0 0 1-.2-.897c-.016-.158-.016-.255-.016-.255h-.036c-.187-.939-.336-1.945-.25-2.473.313-1.397 1.124-9.474-.874-11.781-.908-1.05-.784-2.244-.381-3.24 2.398-1.57 5.751-4.946 7.691-6.989.109.09.21.181.304.271l.063.061s6.6-3.267 6.628-9.035c.01-1.48-.35-2.94-1.047-4.246Zm-21.14 40.687a3.403 3.403 0 0 1 .023-.63l-.21-.023c.122-.916.42-1.942 1.089-2.65a22.51 22.51 0 0 0 2.403-6.656l1.213 4.586s.122.95.155 1.955h-.021s-1.691 2.414-4.652 3.418Z" fill="url(#d)"/><path d="M183.285 54.467s-2.965 1.068-4.623 2.847c0 0-8.066 3.203-10.321 2.847-2.254-.355-2.372-.95-2.847-1.89l-5.101-9.246s-2.135-7.711 0-6.881c2.134.83 2.731 5.463 2.731 5.463s4.034 8.066 6.524 7.949l6.756-3.22s1.542-2.254 2.254-2.134c.712.12 4.627 4.265 4.627 4.265Z" fill="#FDB797"/><path opacity=".05" d="M183.285 54.467s-2.965 1.068-4.623 2.847c0 0-8.066 3.203-10.321 2.847-2.254-.355-2.372-.95-2.847-1.89l-5.101-9.246s-2.135-7.711 0-6.881c2.134.83 2.731 5.463 2.731 5.463s4.034 8.066 6.524 7.949l6.756-3.22s1.542-2.254 2.254-2.134c.712.12 4.627 4.265 4.627 4.265Z" fill="#000"/><path d="m178.414 50.094-2.366 1.858s1.183 3.095.887 4.18c-.296 1.084 4.732-1.703 4.732-1.703l-2.07-4.643-1.183.308Z" fill="#F9CE43"/><path opacity=".05" d="m178.414 50.094-2.366 1.858s1.183 3.095.887 4.18c-.296 1.084 4.732-1.703 4.732-1.703l-2.07-4.643-1.183.308Z" fill="#000"/><path d="M174.33 48.027s5.278 1.72 2.847 4.745l7.592-3.678s-3.203.238-5.22-4.622l-5.219 3.555ZM184.294 78.99l-6.525 11.744 4.392 17.074s.475 3.797-.238 4.152h4.982s-.96-3.362-.712-4.507c.296-1.364 1.067-9.245-.84-11.506-1.908-2.261.949-5.22.949-5.22l5.695-9.016-7.703-2.72Z" fill="#FDB797"/><path opacity=".05" d="m184.294 78.99-6.525 11.744 4.392 17.074s.475 3.797-.238 4.152h4.982s-.888-3.381-.712-4.507c.177-1.126 1.067-9.245-.84-11.506-1.908-2.261.949-5.22.949-5.22l5.695-9.016-7.703-2.72Z" fill="#000"/><path d="M182.287 109.724s-1.807 2.663-4.959 3.507c-3.152.845-2.895 2.492-1.931 2.652.965.16 12.397-1.225 12.397-1.225s.696-1.721-.315-2.473c-1.011-.752-1.017-2.311-1.017-2.311l-4.175-.15Z" fill="#0D134D"/><path opacity=".1" d="M184.651 74.243s.281 3.858-.746 4.871a.302.302 0 0 0-.08.122.297.297 0 0 0-.016.144.305.305 0 0 0 .159.234l3.055 1.629 2.732-5.22-5.104-1.78Z" fill="#000"/><path d="M184.651 74.126s.281 3.858-.746 4.87a.303.303 0 0 0-.08.122.297.297 0 0 0-.016.145.304.304 0 0 0 .159.233l3.055 1.629 2.732-5.22-5.104-1.78Z" fill="#E23553"/><path opacity=".1" d="M184.651 74.336s.281 3.858-.746 4.87a.302.302 0 0 0-.08.122.297.297 0 0 0-.016.145.305.305 0 0 0 .159.234l3.055 1.628 2.732-5.22-5.104-1.779Z" fill="#000"/><path d="M184.768 81.718s-1.762 1.176-5.463 6.02a21.733 21.733 0 0 1-2.574 2.821c-.695.63-1.42 1.337-1.565 1.597-.223.402-.78 1.736-.542 2.828.305 1.328.43 2.69.372 4.052l-.54 9.73s-.713 4.39-1.66 4.864l4.864.841s-.355-3.085 1.067-4.623c0 0 3.322-5.694 2.493-12.1 0 0-.356-2.848 2.847-4.39 3.202-1.542 9.728-9.016 9.728-9.016l-9.027-2.624Z" fill="#FDB797"/><path d="M173.617 111.968s-2.017 2.492-5.219 3.085c-3.202.592-3.084 2.255-2.135 2.492.95.237 12.456-.237 12.456-.237s.841-1.66-.117-2.493c-.959-.832-.713-2.372-.713-2.372l-4.272-.475Z" fill="#0D134D"/><path opacity=".1" d="M187.735 75.43s-1.447 4.863-3.282 6.28a.232.232 0 0 0-.076.098.22.22 0 0 0-.015.124.231.231 0 0 0 .152.187c1.517.552 6.392 2.414 8.086 4.108l.058.058s10.143-5.16 4.686-13.939l-9.609 3.085Z" fill="#000"/><path d="M187.735 75.313s-1.447 4.862-3.282 6.278a.232.232 0 0 0-.076.1.22.22 0 0 0-.015.123.23.23 0 0 0 .152.187c1.517.553 6.392 2.414 8.086 4.108l.058.059s10.143-5.16 4.686-13.94l-9.609 3.085Z" fill="#E23553"/><path opacity=".1" d="M179.406 51.204c-.753.507-1.578.9-2.446 1.168l.816 7.256s-1.906 4.265 3.544 7.245c0 0 3.31 4.397 2.942 8.55 0 0 1.776 1.903 2.963 1.43 1.187-.472.117.238.355.12.237-.118.71.952 4.389.01 3.679-.94 6.304-3.422 6.18-4.254-.124-.832-4.848-6.182-6.018-12.71-1.17-6.529-8.157-11.173-8.157-11.173s-.231.129-.63.299a27.604 27.604 0 0 0-3.938 2.059Z" fill="#000"/><g opacity=".1" fill="#000"><path opacity=".1" d="M184.361 81.753a.232.232 0 0 0 .153.238c1.307.477 5.106 1.924 7.216 3.4-1.826-1.476-5.711-3.008-7.369-3.638ZM197.344 72.228l-.21.072c4.663 8.15-4.118 13.074-4.885 13.483.132.11.252.21.361.326l.059.059s10.132-5.16 4.675-13.94Z"/></g><path d="M192.005 76.736c-3.677.95-4.152-.118-4.389 0-.238.117.84-.593-.356-.118-1.195.475-2.964-1.425-2.964-1.425.016-.21.025-.405.025-.61.013-3.966-3.001-7.931-3.001-7.931-5.463-2.965-3.559-7.237-3.559-7.237l-.223-1.945-.611-5.308a9.263 9.263 0 0 0 2.441-1.172 27.804 27.804 0 0 1 3.932-2.068c.401-.172.63-.3.63-.3s6.999 4.622 8.195 11.15c1.195 6.529 5.931 11.864 6.049 12.694.118.83-2.492 3.32-6.169 4.27Z" fill="#F9CE43"/><path opacity=".1" d="m179.667 44.587-5.22 3.56c.72.25 1.404.59 2.036 1.015 1.778-.25 2.866-1.524 3.6-3.091-.286-.458-.16-.868-.416-1.484Z" fill="#000"/><path d="M175.635 49.096a5.22 5.22 0 1 0 0-10.438 5.22 5.22 0 0 0 0 10.438Z" fill="#FDB797"/><path opacity=".1" d="M192.835 76.143c-3.677.95-4.152-.118-4.39 0-.237.118.841-.592-.355-.118-1.195.475-2.964-1.424-2.964-1.424.016-.21.025-.406.025-.61.015-3.96-2.992-7.931-2.992-7.931-5.463-2.965-3.56-7.237-3.56-7.237l-.22-1.948-.578-5.024c-.279.126-.568.23-.864.31l.601 5.309.225 1.946s-1.891 4.271 3.559 7.236c0 0 3.007 3.971 2.993 7.932 0 .21 0 .406-.026.61 0 0 1.78 1.89 2.965 1.424 1.185-.466.118.237.355.118.238-.12.712.95 4.39 0a12.742 12.742 0 0 0 4.595-2.25 12.943 12.943 0 0 1-3.759 1.657Z" fill="#000"/><path d="M182.989 55.5s-2.965 1.068-4.623 2.848c0 0-8.066 3.202-10.321 2.847-2.255-.355-2.372-.95-2.847-1.891l-5.102-9.245s-2.135-7.712 0-6.882c2.135.83 2.732 5.464 2.732 5.464s4.034 8.066 6.524 7.948l6.757-3.223s1.543-2.255 2.255-2.135c.712.12 4.625 4.27 4.625 4.27Z" fill="#FDB797"/><path opacity=".1" d="M178.984 51.158s-2.461-.225-3.173 2.86c-.712 3.084 5.463 4.981 5.463 4.981l3.322-4.622-5.612-3.22Z" fill="#000"/><path d="M179.104 51.158s-2.461-.225-3.173 2.86c-.713 3.084 5.463 4.981 5.463 4.981l3.322-4.622-5.612-3.22Z" fill="#F9CE43"/><g opacity=".1" fill="#000"><path opacity=".1" d="M178.099 51.706a6.353 6.353 0 0 1-1.164.45l.021.178c.392-.189.774-.398 1.143-.628ZM198.174 72.466c-.118-.84-4.864-6.17-6.049-12.693-1.185-6.525-8.195-11.151-8.195-11.151s-.231.128-.63.3c-1.066.458-2.104.98-3.106 1.565.665-.35 1.345-.673 2.038-.97.402-.173.631-.3.631-.3s6.999 4.622 8.194 11.15c1.196 6.529 5.932 11.864 6.05 12.694.075.523-.935 1.706-2.614 2.748 2.305-1.145 3.771-2.717 3.681-3.343Z"/></g><path opacity=".1" d="M180.514 51.206s3.067 1.52 3.645 4.44" stroke="#000" stroke-miterlimit="10"/><path opacity=".1" d="M173.012 43.583c.49.11 1.036.263 1.278.702.174.32.143.72.313 1.05.437.824 1.719.54 2.521 1.024 1.471.886.511 3.651 1.975 4.542.276.168.601.236.885.39 1.238.676 1.063 2.466.841 3.859-.223 1.393.042 3.299 1.439 3.496.769.108 1.632-.4 2.28.026.338.222.491.63.775.926a1.41 1.41 0 0 0 1.517.313c.475-.197.817-.649 1.311-.794.794-.233 1.681.41 2.446.114.765-.297.939-1.402.742-2.236-.198-.834-.601-1.681-.391-2.522.174-.693.742-1.222.99-1.89.727-1.974-1.528-4.012-1.112-6.073.181-.893.853-1.681.84-2.582-.021-1.051-.951-1.847-1.92-2.234s-2.032-.496-2.98-.927c-2.078-.945-3.214-3.231-5.114-4.5a7.174 7.174 0 0 0-2.813-1.08 9.223 9.223 0 0 0-7.342 1.996c-.187.151-.378.294-.571.433-.811.586-1.681 1.164-2.175 2.034-1.803 3.139 2.339 3.498 4.265 3.933Z" fill="#000"/><path d="M173.159 43.287c.49.109 1.036.262 1.278.702.174.319.143.72.313 1.05.437.824 1.719.54 2.521 1.023 1.471.887.511 3.652 1.976 4.543.275.168.6.236.884.389 1.238.676 1.063 2.467.841 3.86-.223 1.393.042 3.299 1.439 3.496.769.107 1.633-.401 2.28.025.338.223.491.63.775.927a1.41 1.41 0 0 0 1.517.313c.475-.197.817-.65 1.311-.794.795-.233 1.681.41 2.446.113.765-.296.939-1.401.742-2.235-.198-.834-.601-1.681-.391-2.522.174-.693.742-1.223.99-1.89.727-1.974-1.528-4.012-1.112-6.073.181-.893.853-1.681.841-2.583-.021-1.05-.952-1.847-1.921-2.233-.969-.387-2.032-.496-2.979-.927-2.079-.945-3.215-3.231-5.115-4.5a7.036 7.036 0 0 0-2.542-1.03 9.234 9.234 0 0 0-7.619 1.95c-.185.149-.376.292-.565.42-.811.586-1.681 1.164-2.175 2.034-1.803 3.148 2.341 3.509 4.265 3.942ZM130.871 76.101H94.31v-6.89c8.932-4.175 22.676-6.52 36.561 6.89Z" fill="#00BAFC"/><path opacity=".1" d="M159.237 75.115v.986h-45.596v-.21s22.437-21.846 45.596-.776Z" fill="#000"/><path d="M159.657 75.115v.986h-45.596v-.21s22.437-21.846 45.596-.776ZM101.874 48.575a3.362 3.362 0 1 0 0-6.723 3.362 3.362 0 0 0 0 6.723Z" fill="#00BAFC"/><path d="M130.497 42.671c-.385 0-.813 0-1.105.023-.131.007-.26.033-.383.078l-1.977.71c1.597.04 3.263.027 4.9.015l9.178-.072c.937 0 1.92-.016 2.7-.071.523-.038.908-.093 1.391-.135 1.738-.155 4.27-.126 6.532-.117 2.263.008 4.995-.05 5.791-.278h-4.858c-.523 0-1.073 0-1.536-.025-.54-.031-.869-.09-1.344-.132-.786-.067-1.87-.076-2.879-.08-5.537-.023-11.004.107-16.41.084ZM135.935 46.743h-.24a.288.288 0 0 0-.084.017l-.42.153h1.061l1.988-.014c.21 0 .42 0 .584-.015.113 0 .197-.021.3-.03.376-.033.925-.027 1.416-.025.422.014.843-.006 1.261-.06H140.419c-.099 0-.19-.02-.293-.03a8.16 8.16 0 0 0-.63-.017c-1.198 0-2.383.027-3.561.021ZM121.857 52.627h-.24a.288.288 0 0 0-.084.016l-.42.154h1.061l1.988-.015c.21 0 .42 0 .584-.015.113 0 .197-.02.3-.03.376-.033.925-.026 1.416-.024.422.014.843-.007 1.261-.061H126.341c-.099 0-.19-.02-.293-.03a8.16 8.16 0 0 0-.63-.017c-1.198 0-2.383.028-3.561.022Z" fill="#F4F4F4"/><path d="M113.958 74.237h-1.58s-.494-17.28 1.58-22.613h.395s-1.382 19.552-.395 22.613Z" fill="#00BAFC"/><path d="M112.872 50.735s-1.284 3.556-.691 5.136c0 0 .888-3.26 1.924-3.753 1.036-.494 2.123 3.753 2.123 3.753s.592-2.667-.494-4.833c0 0 2.172 1.185 3.259 3.456 0 0 .197-1.47-2.37-4.542 0 0 2.271.592 3.752 1.975 0 0 .494-1.087-2.567-2.864 0 0 .395-1.284 2.765-.692 0 0 0-1.68-3.753-1.382 0 0 0-1.086 2.469-.889 0 0 0-1.382-2.864-.889 0 0 .593-.889.988-1.086a1.987 1.987 0 0 0-1.383.395s.099-1.778-1.383-2.469l-.197 2.469s-1.66-1.956-1.284-1.58c.099.099.395 1.284.296 1.876 0 0-1.681-1.382-3.752.1 0 0 2.567.197 2.962 1.085 0 0-2.172-.395-2.666-.098 0 0 1.681.592 1.58.987 0 0-2.963 0-3.362 1.087 0 0 3.062.395 3.259.69 0 0-3.555 2.569-3.753 3.26 0 0 3.654-2.173 4.247-2.173.592 0-2.667 3.152-2.469 3.95.008-.006 2.683-3.166 3.364-2.969ZM133.447 73.59h1.206s.378-13.202-1.206-17.276h-.303s1.059 14.933.303 17.276Z" fill="#00BAFC"/><path d="M134.277 55.635s.981 2.717.527 3.923c0 0-.679-2.49-1.471-2.866-.792-.376-1.622 2.866-1.622 2.866s-.452-2.036.378-3.696a6.549 6.549 0 0 0-2.489 2.642s-.152-1.133 1.811-3.472c0 0-1.736.452-2.866 1.51 0 0-.379-.83 1.962-2.188 0 0-.302-.981-2.111-.528 0 0 0-1.281 2.866-1.05 0 0 0-.83-1.892-.679 0 0 0-1.05 2.188-.679 0 0-.452-.678-.755-.83.376-.033.751.075 1.051.303 0 0-.076-1.357 1.051-1.891l.151 1.89s1.261-1.493.981-1.205c-.18.455-.258.944-.227 1.433 0 0 1.282-1.05 2.866.075 0 0-1.962.152-2.263.83 0 0 1.66-.302 2.036-.075 0 0-1.281.452-1.206.754 0 0 2.263 0 2.566.83 0 0-2.339.303-2.49.528 0 0 2.717 1.962 2.866 2.49 0 0-2.79-1.66-3.244-1.66-.454 0 2.036 2.414 1.891 3.017.01-.009-2.026-2.419-2.555-2.272ZM147.888 71.01h.748s.234-8.176-.748-10.7h-.187s.654 9.256.187 10.7Z" fill="#00BAFC"/><path d="M148.403 59.89s.607 1.681.328 2.43c0 0-.42-1.543-.912-1.776-.492-.233-1.004 1.775-1.004 1.775s-.28-1.26.233-2.29a4.057 4.057 0 0 0-1.542 1.635s-.093-.702 1.122-2.15a4.74 4.74 0 0 0-1.776.935s-.233-.515 1.215-1.355c0 0-.187-.607-1.309-.328 0 0 0-.794 1.775-.653 0 0 0-.515-1.168-.42 0 0 0-.654 1.355-.42a2.059 2.059 0 0 0-.466-.516.94.94 0 0 1 .653.187s-.046-.84.654-1.168l.092 1.168s.786-.924.607-.748a2.05 2.05 0 0 0-.141.887 1.458 1.458 0 0 1 1.776.046s-1.215.093-1.402.515c0 0 1.028-.187 1.261-.046 0 0-.794.28-.748.466 0 0 1.402 0 1.589.515 0 0-1.448.187-1.543.328 0 0 1.681 1.214 1.776 1.542 0 0-1.729-1.027-2.009-1.027-.279 0 1.261 1.496 1.168 1.868.005.002-1.258-1.494-1.584-1.4Z" fill="#00BAFC"/><path d="m120.573 61.764-.158-.84a.462.462 0 0 0-.143-.33l-.729-.357a.828.828 0 0 1-.13-.21l.013-.02a.449.449 0 0 0 .084-.17.39.39 0 0 0 0-.048h.01a.27.27 0 0 0 .301-.21v-.019a.268.268 0 0 1-.089.146.268.268 0 0 1-.157.064.752.752 0 0 0 .33-.617v-.032a.278.278 0 0 0 .124-.18v-.02a.272.272 0 0 1-.129.169.722.722 0 0 0-.046-.21h.019a.272.272 0 0 0 .271-.271v-.02a.272.272 0 0 1-.269.253h-.033v-.013a.444.444 0 0 0 .311-.36v-.018a.273.273 0 0 1-.055.145.272.272 0 0 0-.421-.24.271.271 0 0 0-.113.16l-.048-.027a.274.274 0 0 1 .09-.138.274.274 0 0 1 .154-.06h-.019a.27.27 0 0 0-.259.183.744.744 0 0 0-.937.269c-.057.042-.13.103-.128.155a.533.533 0 0 0-.065.08 1.03 1.03 0 0 0-.084.561.598.598 0 0 1-.194.515.261.261 0 0 0 .198 0 .764.764 0 0 0 .174-.103.389.389 0 0 0 .124-.12v-.01a.623.623 0 0 0 .112.059c.014.126.019.27-.038.32l.01-.024a.681.681 0 0 1-.472.134.593.593 0 0 0-.49.316l-.229.956v.033c.004.013.01.025.02.034.01.01.022.016.035.019l.071.019c.011.163-.005.327-.048.485a4.085 4.085 0 0 0-.082.715c.017.12.046.743.061 1.04a2.913 2.913 0 0 0-.061.306l-.338 2.03s-.253 1.624-.24 2.116l-.044.284s-.687.861-.486.983c.202.122.513.174.809-.284a.745.745 0 0 1 .19-.283.276.276 0 0 0 .094-.237l-.021-.21.036.012h.021s.338-1.112.3-1.891c0 0 .631-2.232 1.103-2.583v-.014l.045-.021.1 2.162-.103 2.383-.023.142s-.687.862-.485.984c.202.122.513.174.809-.284a.742.742 0 0 1 .189-.284.276.276 0 0 0 .095-.237l-.032-.315c.118-.402.42-1.557.296-2.227l.21-1.425c.211-.237.183-.84.183-.84.166-.347.21-1.707.21-1.707l.042-.672a.558.558 0 0 1 .095 0h.034v-.013a.053.053 0 0 0 .014-.019h.013v-.016l-.002-.003Zm-.589 1.366a1.428 1.428 0 0 0-.063-.138h-.016v-.017a.047.047 0 0 1 0-.017v-.017a.803.803 0 0 0 .025-.07.265.265 0 0 0 .04-.144c.024.133.029.269.014.403Zm-.063-.575-.042-.45.013-.036.057.572-.028-.086Zm-1.992.06a.155.155 0 0 0-.031.057.143.143 0 0 0-.006.065v.015c0 .046.006.09.019.135l-.066.281v-.538c.044-.056.082-.117.114-.18a.29.29 0 0 1-.03.165Z" fill="url(#e)"/><path d="M118.354 59.144a.993.993 0 0 0-.082.54.569.569 0 0 1-.187.496.247.247 0 0 0 .191 0 .73.73 0 0 0 .168-.098.38.38 0 0 0 .12-.116.437.437 0 0 0 .027-.229c.001-.137.013-.274.036-.41.013-.084.093-.313 0-.357-.092-.044-.233.111-.273.174Z" fill="#72351C"/><path d="m116.965 68.076-.065.42s-.662.841-.467.948c.196.108.494.168.78-.273a.707.707 0 0 1 .181-.273.273.273 0 0 0 .09-.229l-.065-.64-.454.047ZM118.957 68.243l-.065.42s-.662.84-.467.947c.196.108.494.168.78-.273a.707.707 0 0 1 .181-.273.273.273 0 0 0 .09-.229l-.065-.64-.454.048Z" fill="#333"/><path d="M117.925 63.219s-.311.224-.42 1.006l-.326 1.956s-.275 1.774-.224 2.114l.55.19s.326-1.072.29-1.818c0 0 .662-2.358 1.126-2.522l.099 2.083-.105 2.342.471.095s.477-1.492.325-2.282l.246-1.68s.282-.898-.109-1.682l-1.923.198Z" fill="#4D8AF0"/><g opacity=".1" fill="#000"><path opacity=".1" d="M118.873 64.177v-.036c-.464.166-1.126 2.521-1.126 2.521a6.647 6.647 0 0 1-.284 1.8l.059.02s.326-1.072.29-1.817c-.002.002.603-2.142 1.061-2.488ZM119.867 63.032h-.063c.226.526.263 1.115.105 1.666l-.246 1.68c.145.749-.277 2.125-.322 2.27l.061.013s.477-1.492.326-2.282l.246-1.681s.284-.893-.107-1.666Z"/></g><path d="M117.503 61.687a.069.069 0 0 0 .055.07c.153.038.297.11.42.21.231.18-.246-.362-.246-.362l-.16.036-.065.058-.004-.012Z" fill="#F55F44"/><path opacity=".1" d="M117.503 61.687a.069.069 0 0 0 .055.07c.153.038.297.11.42.21.231.18-.246-.362-.246-.362l-.16.036-.065.058-.004-.012Z" fill="#000"/><path d="M119.776 62.166c.195-.138.42-.227.656-.258a.06.06 0 0 0 .043-.018.059.059 0 0 0 .018-.043s-.551-.217-.717.319Z" fill="#F55F44"/><path opacity=".1" d="M120.493 61.844s-.551-.21-.717.32c0 0 .406-.311.688-.26" fill="#000"/><path d="M119.138 60.029a.717.717 0 1 0-.001-1.433.717.717 0 0 0 .001 1.433Z" fill="#72351C"/><path d="M118.644 59.815s.101.42 0 .506c-.101.086-.305.246-.151.37.153.124.701.334.884.231.183-.103.391-.071.341-.281-.051-.21-.45-.166-.456-1.21l-.618.384Z" fill="#FDB797"/><path opacity=".1" d="M117.629 61.56c.015.229 0 .457-.044.682a3.969 3.969 0 0 0-.08.687c.021.151.065 1.151.065 1.151s-.08.876.347.796c.426-.08-.065-1-.065-1l.021-1.195c.115-.157.188-.342.21-.536.031-.288-.454-.584-.454-.584Z" fill="#000"/><path d="M117.623 61.56c.015.229 0 .457-.044.682a3.874 3.874 0 0 0-.08.687c.021.151.065 1.151.065 1.151s-.08.876.347.796c.426-.08-.066-1-.066-1l.021-1.195c.116-.157.189-.342.211-.536.029-.288-.454-.584-.454-.584Z" fill="#FDB797"/><path opacity=".1" d="m120.352 61.626-.059.935s-.035 1.311-.195 1.643c0 0 .044.92-.385.897-.428-.023.072-1.006.072-1.006s.229-1.023.111-1.347l-.111-1.122h.567Z" fill="#000"/><path d="m120.358 61.626-.058.935s-.036 1.311-.196 1.643c0 0 .044.92-.384.897-.429-.023.071-1.006.071-1.006s.229-1.023.111-1.347l-.111-1.122h.567Z" fill="#FDB797"/><path opacity=".1" d="M118.97 60.72s.346.16.535-.315l.704.345a.433.433 0 0 1 .137.32l.151.81s-.515-.174-.674.305l.044.456a.493.493 0 0 1-.023.34.065.065 0 0 0-.007.03c0 .011.002.021.007.031a.224.224 0 0 1-.21.29c-.19.002-.378.017-.566.044-.151.044-.609-.086-.76 0-.152.086-.471-.065-.471-.065l.086-.37s-.059-.18.015-.246c.073-.065.029-.63-.036-.79 0 0-.26-.245-.42-.21l.21-.935a.568.568 0 0 1 .471-.304.66.66 0 0 0 .456-.13s-.158.344.351.394Z" fill="#000"/><path opacity=".1" d="M119.005 60.703c.095.026.347.053.498-.327l.704.344a.435.435 0 0 1 .137.32l.151.81s-.515-.174-.674.305l.044.456.029.09a.257.257 0 0 1-.036.232.085.085 0 0 0-.019.04.083.083 0 0 0 .005.044.224.224 0 0 1-.21.29c-.19.002-.378.017-.566.044-.151.044-.609-.086-.76 0-.152.086-.471-.065-.471-.065l.086-.37s-.059-.18.015-.246c.073-.065.029-.63-.036-.79 0 0-.26-.246-.42-.21l.21-.935a.568.568 0 0 1 .471-.305.66.66 0 0 0 .456-.13s-.171.311.277.378l.109.026Z" fill="#000"/><path d="M119.005 60.718c.095.025.347.053.498-.328l.704.345a.435.435 0 0 1 .137.32l.151.81s-.515-.174-.674.305l.044.456a.493.493 0 0 1-.023.34.065.065 0 0 0-.007.03c0 .011.002.022.007.031a.224.224 0 0 1-.211.29 4.256 4.256 0 0 0-.565.044c-.151.045-.609-.086-.76 0-.152.087-.471-.065-.471-.065l.086-.37s-.059-.18.015-.245c.073-.065.029-.63-.036-.79 0 0-.26-.246-.42-.21l.21-.935a.568.568 0 0 1 .471-.305.661.661 0 0 0 .456-.13s-.171.31.277.378l.111.03Z" fill="#F55F44"/><path opacity=".1" d="m119.272 59.468-.616.384c.016.07.028.14.036.21.07.029.145.043.221.043a.63.63 0 0 0 .399-.181 2.405 2.405 0 0 1-.04-.456Z" fill="#000"/><path d="M118.9 60.058a.595.595 0 1 0 0-1.189.595.595 0 0 0 0 1.19Z" fill="#FDB797"/><path d="M119.776 59.008a.26.26 0 1 0 0-.522.26.26 0 0 0 0 .522Z" fill="#72351C"/><path d="M119.827 59.023a.26.26 0 0 1-.261-.242v.019a.26.26 0 0 0 .521 0v-.02a.258.258 0 0 1-.26.242Z" fill="#72351C"/><path d="M119.678 59.27a.261.261 0 0 1-.162-.101.262.262 0 0 1-.048-.184v.017a.26.26 0 0 0 .404.261c.057-.039.096-.099.108-.167v-.019a.26.26 0 0 1-.302.194ZM119.476 59.9a.26.26 0 0 1-.21-.285v.017a.26.26 0 0 0 .209.304.26.26 0 0 0 .304-.21v-.018a.263.263 0 0 1-.303.193ZM119.827 58.884a.263.263 0 0 1-.179-.07.266.266 0 0 1-.082-.174v.019a.26.26 0 0 0 .521 0v-.019a.26.26 0 0 1-.26.244Z" fill="#72351C"/><path d="M119.463 58.743a.262.262 0 0 1 .246-.258h-.019a.26.26 0 0 0 0 .52h.019a.263.263 0 0 1-.246-.263Z" fill="#72351C"/><path opacity=".1" d="M119.726 61.201a.953.953 0 0 1 0 .391s-.036.34.021.4M117.965 61.281a.92.92 0 0 1 0 .391s-.036.34.021.4M117.95 62.679a.26.26 0 0 0 .175 0 .361.361 0 0 1 .21 0M118.039 62.166c.204.01.409-.022.601-.095 0 0 .739.181.949.05" fill="#000"/><path d="M117.816 65.288h-.174a.14.14 0 1 0 0 .282h.174a.14.14 0 1 0 0-.282Z" fill="#FDB797"/><path d="m117.503 65.364.244-.01.21.033h-.074l-.38-.023ZM119.146 64.185h.244l.21.021h-.074l-.38-.02ZM119.146 64.236h.244l.21.02h-.074l-.38-.02ZM119.146 64.288h.244l.21.021h-.074l-.38-.02ZM119.146 64.338h.244l.21.022h-.074l-.38-.022ZM117.503 65.56h.244l.21.025h-.074l-.38-.026ZM117.503 65.534h.244l.21.025h-.074l-.38-.025ZM117.503 65.509h.244l.21.025h-.074l-.38-.025ZM117.503 65.484h.244l.21.025h-.074l-.38-.025ZM117.503 65.326l.244-.01.21.033h-.074l-.38-.023ZM117.503 65.282l.244-.01.21.033h-.074l-.38-.023Z" fill="#F0E4E4"/><path opacity=".1" d="M119.001 59.084a1.45 1.45 0 0 0 .084.655.786.786 0 0 1-.031.63.21.21 0 0 0 .185-.046.72.72 0 0 0 .134-.157.422.422 0 0 0 .082-.164.656.656 0 0 0-.042-.278 3.534 3.534 0 0 1-.088-.49c-.013-.1 0-.39-.114-.42-.113-.029-.189.185-.21.27Z" fill="#000"/><path d="M119.016 59.077c-.024.222.005.447.084.656a.787.787 0 0 1-.032.63.21.21 0 0 0 .185-.046.73.73 0 0 0 .135-.158.422.422 0 0 0 .082-.164.656.656 0 0 0-.042-.277 3.535 3.535 0 0 1-.089-.49c-.012-.1 0-.39-.113-.42-.114-.03-.189.183-.21.27Z" fill="#72351C"/><path opacity=".1" d="M118.759 59.233c.051.052.061.13.103.189a.376.376 0 0 0 .295.117.168.168 0 0 1 .086.02c.046.029.048.096.077.142a.17.17 0 0 0 .123.054.168.168 0 0 0 .123-.054.407.407 0 0 0 .095-.258c.01-.104.01-.21 0-.313a.481.481 0 0 0-.132-.32.56.56 0 0 0-.234-.1.69.69 0 0 0-.359-.028.662.662 0 0 0-.164.082 9.36 9.36 0 0 0-.21.14c-.078.055-.225.165-.082.223.09.043.204.024.279.106Z" fill="#000"/><path d="M118.774 59.224c.051.053.061.13.103.19a.368.368 0 0 0 .294.117c.03-.002.06.005.086.019.047.03.049.097.078.143a.172.172 0 0 0 .123.053.168.168 0 0 0 .123-.053.407.407 0 0 0 .095-.259c.01-.104.01-.209 0-.313a.478.478 0 0 0-.133-.32.562.562 0 0 0-.233-.1.69.69 0 0 0-.359-.027.63.63 0 0 0-.164.082 6.285 6.285 0 0 0-.21.14c-.078.055-.225.164-.082.223.09.042.21.025.279.105Z" fill="#72351C"/><path d="M119.161 64.185h.244l.21.021h-.07l-.384-.02ZM119.161 64.236h.244l.21.02h-.07l-.384-.02ZM119.161 64.288h.244l.21.021h-.07l-.384-.02ZM119.161 64.338h.244l.21.022h-.07l-.384-.022ZM119.056 67.127h.243l.211.02h-.074l-.38-.02ZM119.056 67.18h.243l.211.02h-.074l-.38-.02ZM119.056 67.23h.243l.211.02h-.074l-.38-.02ZM119.056 67.28h.243l.211.021h-.074l-.38-.02Z" fill="#F0E4E4"/></g><defs><linearGradient id="b" x1="94.31" y1="128.206" x2="94.31" y2="79.934" gradientUnits="userSpaceOnUse"><stop stop-color="gray" stop-opacity=".25"/><stop offset=".54" stop-color="gray" stop-opacity=".12"/><stop offset="1" stop-color="gray" stop-opacity=".1"/></linearGradient><linearGradient id="c" x1="66973.3" y1="51526.1" x2="66973.3" y2="0" gradientUnits="userSpaceOnUse"><stop stop-color="gray" stop-opacity=".25"/><stop offset=".54" stop-color="gray" stop-opacity=".12"/><stop offset="1" stop-color="gray" stop-opacity=".1"/></linearGradient><linearGradient id="d" x1="41060.2" y1="60206" x2="41060.2" y2="25931.3" gradientUnits="userSpaceOnUse"><stop stop-color="gray" stop-opacity=".25"/><stop offset=".54" stop-color="gray" stop-opacity=".12"/><stop offset="1" stop-color="gray" stop-opacity=".1"/></linearGradient><linearGradient id="e" x1="3046.55" y1="5598.01" x2="3046.55" y2="4956.1" gradientUnits="userSpaceOnUse"><stop stop-color="gray" stop-opacity=".25"/><stop offset=".54" stop-color="gray" stop-opacity=".12"/><stop offset="1" stop-color="gray" stop-opacity=".1"/></linearGradient><clipPath id="a"><path fill="#fff" d="M0 0h200v128.209H0z"/></clipPath></defs></svg>