<svg width="200" height="118" fill="none" xmlns="http://www.w3.org/2000/svg"><g clip-path="url(#a)"><path d="M11.271 109.664a1.135 1.135 0 0 0-.667.235c-.568-1.502-1.448-2.468-2.437-2.468-.989 0-1.869.966-2.437 2.468a1.135 1.135 0 0 0-.667-.235c-1.124 0-2.034 1.9-2.034 4.243h10.276c0-2.343-.91-4.243-2.034-4.243Z" fill="#00BAFC"/><path d="M52.102 113.671H0v.473h52.102v-.473Z" fill="#3F3D56"/><path d="M196.469 99.712a1.134 1.134 0 0 0-.667.234c-.568-1.502-1.448-2.468-2.437-2.468-.989 0-1.869.966-2.437 2.468a1.132 1.132 0 0 0-.667-.234c-1.123 0-2.034 1.899-2.034 4.243h10.276c0-2.344-.91-4.243-2.034-4.243Z" fill="#00BAFC"/><path d="M174.359 21.753h-49.613v-1.022h-22.497v1.022H52.432a3.357 3.357 0 0 0-3.356 3.356v67.935a3.356 3.356 0 0 0 3.356 3.356H174.36a3.357 3.357 0 0 0 3.355-3.356V25.11a3.35 3.35 0 0 0-2.071-3.1 3.358 3.358 0 0 0-1.284-.256Z" fill="#3F3D56"/><path opacity=".2" d="M173.214 27.683H53.577v67.491h119.637v-67.49Z" fill="#000"/><path d="M113.293 25.844a1.227 1.227 0 1 0 0-2.454 1.227 1.227 0 0 0 0 2.454Z" fill="#00BAFC"/><path d="M200 103.481H26.406v.474H200v-.474Z" fill="#3F3D56"/><path d="M129.741 52.899v-4.993a6.124 6.124 0 0 0-6.126-6.127h-4.993c0-.674-2.166-1.226-4.919-1.278v-6.022a3.42 3.42 0 1 0-.855 0v6.022c-2.752.052-4.918.604-4.918 1.278h-5.849a6.125 6.125 0 0 0-6.126 6.127v4.993c-.709 0-1.284 2.393-1.284 5.346 0 2.952.575 5.346 1.284 5.346v5.848a6.125 6.125 0 0 0 6.126 6.127h21.534a6.126 6.126 0 0 0 6.126-6.127v-5.848c.709 0 1.283-2.394 1.283-5.346 0-2.953-.574-5.346-1.283-5.346Z" fill="#00BAFC"/><path d="M103.308 43.704h19.08a5.429 5.429 0 0 1 5.429 5.428v19.08a5.429 5.429 0 0 1-5.429 5.43h-19.08a5.429 5.429 0 0 1-5.429-5.43v-19.08a5.429 5.429 0 0 1 5.429-5.428Z" fill="#3F3D56"/><path d="M106.005 57.924a3.852 3.852 0 0 1-3.849-3.849.215.215 0 0 1 .365-.151c.04.04.063.094.063.151a3.42 3.42 0 1 0 6.842 0 .215.215 0 0 1 .366-.151c.04.04.062.094.062.151a3.855 3.855 0 0 1-3.849 3.85ZM112.848 65.195a2.997 2.997 0 0 1-2.994-2.994.215.215 0 0 1 .365-.151c.04.04.063.094.063.151a2.567 2.567 0 1 0 5.132 0 .21.21 0 0 1 .063-.151.213.213 0 0 1 .302 0c.04.04.063.094.063.151a2.999 2.999 0 0 1-2.994 2.994ZM119.691 57.924a3.855 3.855 0 0 1-3.849-3.849.214.214 0 1 1 .427 0 3.424 3.424 0 0 0 3.422 3.421 3.422 3.422 0 0 0 3.421-3.421.215.215 0 0 1 .365-.151c.04.04.063.094.063.151a3.852 3.852 0 0 1-3.849 3.85Z" fill="#00BAFC"/><path d="M106.005 56.213a1.925 1.925 0 1 0 0-3.85 1.925 1.925 0 0 0 0 3.85ZM119.691 56.213a1.924 1.924 0 1 0 0-3.848 1.924 1.924 0 0 0 0 3.848ZM112.848 64.126c.945 0 1.711-.383 1.711-.856 0-.472-.766-.855-1.711-.855-.945 0-1.711.383-1.711.855 0 .473.766.855 1.711.855Z" fill="#00BAFC"/><path d="M181.074 93.946h-11.676v-.841a.175.175 0 0 0-.049-.118.172.172 0 0 0-.118-.049h-4.003a.168.168 0 0 0-.154.103.157.157 0 0 0-.013.064v.841h-2.502v-.841a.175.175 0 0 0-.049-.118.168.168 0 0 0-.118-.049h-4.003a.168.168 0 0 0-.154.103.157.157 0 0 0-.013.064v.841h-2.502v-.841a.157.157 0 0 0-.013-.064.164.164 0 0 0-.154-.103h-4.003a.168.168 0 0 0-.154.103.157.157 0 0 0-.013.064v.841h-2.502v-.841a.157.157 0 0 0-.013-.064.164.164 0 0 0-.154-.103h-4.003a.172.172 0 0 0-.118.049.169.169 0 0 0-.049.118v.841h-2.502v-.841a.174.174 0 0 0-.012-.064.171.171 0 0 0-.154-.103h-4.004a.172.172 0 0 0-.118.049.175.175 0 0 0-.049.118v.841h-2.502v-.841a.174.174 0 0 0-.012-.064.187.187 0 0 0-.036-.054.172.172 0 0 0-.118-.049h-4.004a.167.167 0 0 0-.166.167v.841h-2.502v-.841a.175.175 0 0 0-.049-.118.172.172 0 0 0-.118-.049H96.839a.168.168 0 0 0-.154.103.167.167 0 0 0-.013.064v.841h-2.501v-.841a.167.167 0 0 0-.167-.167H90a.169.169 0 0 0-.118.049.166.166 0 0 0-.048.118v.841h-2.502v-.841a.167.167 0 0 0-.167-.167h-4.003a.169.169 0 0 0-.155.103.169.169 0 0 0-.012.064v.841h-2.502v-.841a.167.167 0 0 0-.167-.167h-4.003a.168.168 0 0 0-.154.103.167.167 0 0 0-.013.064v.841h-2.502v-.841a.167.167 0 0 0-.167-.167h-4.003a.168.168 0 0 0-.154.103.167.167 0 0 0-.013.064v.841h-2.502v-.841a.167.167 0 0 0-.167-.167h-4.003a.169.169 0 0 0-.154.103.167.167 0 0 0-.013.064v.841h-2.502v-.841a.167.167 0 0 0-.166-.167h-4.004a.168.168 0 0 0-.154.103.167.167 0 0 0-.013.064v.841h-7.672a4.003 4.003 0 0 0-4.003 4.003v1.81a4.003 4.003 0 0 0 4.003 4.004h133.107a4 4 0 0 0 4.003-4.004v-1.81a4.007 4.007 0 0 0-4.003-4.003Z" fill="#3F3D56"/><path d="M151.687 75.299h-79.81v.473h79.81v-.474Z" fill="#00BAFC"/><path d="M77.56 75.062H57.905c.63-7.407.63-14.855 0-22.262h19.657c-1.083 7.625-1.146 15.057 0 22.262Z" fill="#D0CDE1"/><path d="M74.956 57.3h-14.21v.947h14.21V57.3ZM74.956 60.379h-14.21v.947h14.21v-.947ZM74.956 63.457h-14.21v.947h14.21v-.947ZM74.956 66.536h-14.21v.947h14.21v-.947ZM74.956 69.615h-14.21v.947h14.21v-.947Z" fill="#3F3D56"/><path d="M25.327.76S22.24-.343 20.253 4.069c-1.985 4.412-5.074 9.265-5.074 9.265l1.765.441s.441-3.088 1.544-3.53l-.44 3.972s13.236 4.632 19.192-.442l-.22-1.544s.882.22.882 1.544l.662-.661s-.662-1.324-2.648-3.089c-1.303-1.158-1.75-3.362-1.904-4.74a5.737 5.737 0 0 0-1.321-3.124C31.37.632 28.967-.993 25.327.76Z" fill="#2F2E41"/><path d="m16.42 98.078.948 5.447 3.789-.71.71-4.737H16.42Z" fill="#FFB9B9"/><path d="m21.867 101.157-5.21.474.237 4.263-.237 5.447s-3.079 6.157 1.421 5.684c4.5-.474 4.026-2.842 4.026-2.842l1.184-1.421-.71-3.553-.71-8.052Z" fill="#2F2E41"/><path d="m37.735 98.078-.947 5.447-3.79-.71-.71-4.737h5.447Z" fill="#FFB9B9"/><path d="m32.288 101.157 5.21.474-.237 4.263.237 5.447s3.079 6.157-1.421 5.684c-4.5-.474-4.026-2.842-4.026-2.842l-1.184-1.421.71-3.553.71-8.052Z" fill="#2F2E41"/><path d="M26.84 15.426a5.447 5.447 0 1 0 0-10.894 5.447 5.447 0 0 0 0 10.894Z" fill="#FFB9B9"/><path d="m23.288 12.82.71 8.527 6.632-.237s-1.895-5.447-.71-7.579l-6.632-.71Z" fill="#FFB9B9"/><path d="m27.078 19.689 2.727-1.701 2.956 1.464 4.737 2.131-1.658 20.13s3.79 12.553 3.079 18.71c-.71 6.157 7.815 36.945.947 38.366-6.868 1.421-11.841 2.842-12.078.474-.237-2.369-.71-38.603-.71-38.603s-.71 38.366-3.553 38.84c-2.842.473-15.157 2.368-14.21-.474.948-2.842 7.342-52.576 10.42-55.418l.475-2.368-4.027-19.183 7.561-3.768 3.334 1.4Z" fill="#2F2E41"/><path d="m12.868 49.055-.237 9.71s-2.28 9.587 1.584 9.53c3.863-.057 1.021-9.53 1.021-9.53l1.658-9.473-4.026-.237ZM48.68 38.864l6.655 7.074s8.095 5.62 5.18 8.155c-2.916 2.536-7.12-6.416-7.12-6.416l-7.556-5.95 2.84-2.863Z" fill="#FFB9B9"/><path d="m19.854 43.016 16.22-.497-.21-1.101v-.005l-15.678-.284-.332 1.887Z" fill="#D0CDE1"/><path d="M23.17 43.49a1.421 1.421 0 1 0 0-2.842 1.421 1.421 0 0 0 0 2.842ZM18.078 22.294l-1.54-.355s-2.012.829-2.486 3.434c-.474 2.605-6.631 22.972-3.552 24.156 3.078 1.184 7.578 1.658 7.578 1.184s1.895-18.236 1.895-18.236l-1.895-10.183ZM32.564 23.197l4.934-1.613s2.368 0 2.368 2.605c0 1.074 4.54 9.902 4.54 9.902s10.905 7.774 9.235 8.052c-2.842.474-4.5 5.447-4.5 5.447l-10.657-9.473-5.92-14.92ZM20.197 10.385s1.765-2.427 3.31-2.868c1.544-.441 1.764-2.648 1.764-2.648s3.971 4.413 6.398 4.633c2.427.22.22-5.294.22-5.294l-4.412-1.103-4.191.44-3.31 2.207.221 4.633Z" fill="#2F2E41"/><path d="M21.512 10.216c.392 0 .71-.477.71-1.066 0-.589-.318-1.066-.71-1.066-.392 0-.71.477-.71 1.066 0 .589.318 1.066.71 1.066Z" fill="#FFB9B9"/></g><defs><clipPath id="a"><path fill="#fff" d="M0 0h200v117.051H0z"/></clipPath></defs></svg>