<svg width="200" height="146" fill="none" xmlns="http://www.w3.org/2000/svg"><g clip-path="url(#a)"><path opacity=".1" d="M63.853 5.482C69.253.676 77.728-.308 85.44.074c24.229 1.203 46.099 12.9 65.016 26.132 6.85 4.789 13.592 9.951 18.037 16.548 9.056 13.425 6.365 32.028-6.217 43.088-4.283 3.764-9.473 6.653-14.801 9.206-9.474 4.548-19.697 8.198-30.448 9.241-7.668.739-15.431.138-23.053-.895-21.297-2.892-42.203-9.28-59.724-20.197-7.685-4.795-14.93-10.752-18.098-18.507-3.168-7.755-1.14-17.578 6.707-22.167 3.246-1.899 7.127-2.756 10.925-3.56 5.593-1.185 11.274-2.353 16.322-4.761 5.212-2.488 11.383-7.3 10.35-12.807-1.105-5.918-1.994-11.108 3.397-15.913ZM157.182 132.151c11.173 0 20.231-.581 20.231-1.297 0-.717-9.058-1.298-20.231-1.298-11.173 0-20.231.581-20.231 1.298 0 .716 9.058 1.297 20.231 1.297ZM104.598 123.468c11.173 0 20.23-.581 20.23-1.297 0-.717-9.057-1.298-20.23-1.298-11.174 0-20.231.581-20.231 1.298 0 .716 9.057 1.297 20.231 1.297ZM30.324 144.05c11.173 0 20.231-.581 20.231-1.297 0-.717-9.058-1.298-20.23-1.298-11.174 0-20.232.581-20.232 1.298 0 .716 9.058 1.297 20.231 1.297ZM68.767 145.325c4.598 0 8.325-.239 8.325-.534 0-.295-3.727-.534-8.325-.534-4.597 0-8.324.239-8.324.534 0 .295 3.727.534 8.325.534ZM193.511 131.454c3.583 0 6.487-.186 6.487-.416 0-.229-2.904-.415-6.487-.415s-6.487.186-6.487.415c0 .23 2.904.416 6.487.416ZM133.97 122.725c3.037 0 5.5-.158 5.5-.353 0-.195-2.463-.353-5.5-.353-3.038 0-5.501.158-5.501.353 0 .195 2.463.353 5.501.353Z" fill="#00BAFC"/><path d="M194.444 121.058s.869 1.137-.399 2.852c-1.268 1.715-2.318 3.162-1.894 4.23 0 0 1.916-3.184 3.474-3.228 1.558-.045.536-1.937-1.181-3.854Z" fill="#00BAFC"/><path opacity=".1" d="M194.444 121.058c.078.11.14.23.185.357 1.521 1.787 2.331 3.454.869 3.497-1.362.038-2.996 2.474-3.388 3.09.012.047.028.093.046.138 0 0 1.917-3.184 3.475-3.228 1.558-.045.53-1.937-1.187-3.854Z" fill="#000"/><path d="M196.061 122.505c0 .401-.044.725-.099.725-.056 0-.1-.324-.1-.725 0-.401.055-.211.111-.211.055 0 .088-.188.088.211Z" fill="#FFD037"/><path d="M196.616 122.984c-.351.185-.656.307-.684.259-.028-.049.237-.244.588-.437.351-.192.212-.051.238 0 .026.052.209-.014-.142.178Z" fill="#FFD037"/><path d="M189.859 121.058s-.869 1.137.401 2.852c1.269 1.715 2.316 3.162 1.892 4.23 0 0-1.914-3.184-3.474-3.228-1.56-.045-.534-1.937 1.181-3.854Z" fill="#00BAFC"/><path opacity=".1" d="M189.859 121.058a1.36 1.36 0 0 0-.185.357c-1.521 1.787-2.333 3.454-.871 3.497 1.362.038 2.998 2.474 3.388 3.09a1.116 1.116 0 0 1-.046.138s-1.915-3.184-3.475-3.228c-1.56-.045-.526-1.937 1.189-3.854Z" fill="#000"/><path d="M188.243 122.505c0 .401.045.725.1.725.056 0 .102-.324.102-.725 0-.401-.057-.211-.113-.211-.055 0-.089-.188-.089.211Z" fill="#FFD037"/><path d="M187.689 122.984c.351.185.658.307.684.259.026-.049-.237-.244-.588-.437-.351-.192-.213-.051-.238 0-.026.052-.209-.014.142.178Z" fill="#FFD037"/><path d="M188.53 127.993s2.428-.074 3.16-.596c.732-.521 3.736-1.144 3.919-.308.183.835 3.648 4.156.907 4.179-2.741.022-6.371-.427-7.103-.871-.732-.443-.883-2.404-.883-2.404Z" fill="#A8A8A8"/><path opacity=".2" d="M196.555 130.977c-2.741.023-6.371-.427-7.101-.872-.555-.338-.778-1.554-.852-2.116h-.081s.153 1.959.883 2.403c.73.443 4.36.892 7.103.87.791 0 1.064-.286 1.05-.704-.111.257-.413.414-1.002.419Z" fill="#000"/><path d="M134.946 113.839s.739.97-.344 2.438c-1.083 1.467-1.981 2.705-1.619 3.62 0 0 1.637-2.724 2.972-2.772 1.334-.048.454-1.649-1.009-3.286Z" fill="#00BAFC"/><path opacity=".1" d="M134.946 113.839c.064.094.115.196.151.305 1.294 1.528 1.994 2.957.739 2.99-1.164.033-2.563 2.118-2.898 2.645.011.04.025.08.041.118 0 0 1.638-2.724 2.972-2.772 1.334-.048.458-1.649-1.005-3.286Z" fill="#000"/><path d="M136.326 115.077c0 .342-.039.619-.085.619-.046 0-.087-.277-.087-.619 0-.342.048-.185.097-.185.048 0 .075-.157.075.185Z" fill="#FFD037"/><path d="M136.801 115.485c-.301.163-.554.263-.586.22-.031-.042.204-.207.503-.369.3-.163.185-.045.205 0 .021.044.178-.015-.122.149Z" fill="#FFD037"/><path d="M131.02 113.839s-.739.97.342 2.438c1.081 1.467 1.983 2.705 1.621 3.62 0 0-1.64-2.724-2.974-2.772-1.334-.048-.457-1.649 1.011-3.286Z" fill="#00BAFC"/><path opacity=".1" d="M131.02 113.839a1.182 1.182 0 0 0-.154.305c-1.293 1.528-1.994 2.957-.739 2.99 1.166.033 2.564 2.118 2.898 2.645a1.356 1.356 0 0 1-.039.118s-1.639-2.724-2.973-2.772c-1.335-.048-.461-1.649 1.007-3.286Z" fill="#000"/><path d="M129.638 115.077c0 .342.038.619.086.619.048 0 .085-.277.085-.619 0-.342-.048-.185-.096-.185s-.075-.157-.075.185Z" fill="#FFD037"/><path d="M129.164 115.485c.3.163.555.263.584.22.03-.042-.201-.207-.502-.369-.302-.163-.185-.045-.206 0-.02.044-.177-.015.124.149Z" fill="#FFD037"/><path d="M129.874 119.772s2.078-.065 2.704-.511c.627-.445 3.198-.979 3.353-.264.155.715 3.121 3.558.776 3.576-2.345.019-5.45-.369-6.075-.739-.625-.369-.758-2.062-.758-2.062Z" fill="#A8A8A8"/><path opacity=".2" d="M136.75 122.324c-2.348.02-5.453-.37-6.077-.739-.475-.29-.666-1.331-.729-1.812h-.07s.131 1.675.758 2.056c.626.38 3.73.765 6.075.739.677 0 .911-.246.898-.603-.087.23-.353.355-.855.359Z" fill="#000"/><g opacity=".8"><path opacity=".8" d="M27.313 114.918a13.822 13.822 0 0 1 2.691 27.377 13.82 13.82 0 0 1-15.467-18.844 13.816 13.816 0 0 1 12.776-8.533Z" fill="#E74D89"/><path opacity=".8" d="M27.313 143.544a14.806 14.806 0 1 1 14.823-14.812 14.827 14.827 0 0 1-14.823 14.812Zm12.496-12.785a18.653 18.653 0 0 0-7.886-.554 53.956 53.956 0 0 1 2.463 9.019 12.568 12.568 0 0 0 5.423-8.465Zm-7.55 9.633a52.722 52.722 0 0 0-2.698-9.586.253.253 0 0 1-.082.022c-7.145 2.489-9.705 7.435-9.936 7.897a12.611 12.611 0 0 0 7.763 2.664c1.7.011 3.383-.328 4.946-.997h.007Zm-14.348-3.184c.289-.486 3.763-6.229 10.295-8.349.16-.057.335-.103.497-.149a32.003 32.003 0 0 0-1.031-2.142c-6.321 1.887-12.46 1.805-13.016 1.794 0 .128-.01.255-.01.381a12.642 12.642 0 0 0 3.265 8.465Zm-2.988-11.047a46.78 46.78 0 0 0 11.7-1.54 81.139 81.139 0 0 0-4.69-7.308 12.693 12.693 0 0 0-7.01 8.848Zm9.426-9.703a66.432 66.432 0 0 1 4.726 7.393c4.504-1.69 6.402-4.238 6.635-4.562a12.62 12.62 0 0 0-8.397-3.184c-.998.007-1.993.128-2.964.36v-.007Zm12.762 4.295c-.266.36-2.386 3.081-7.064 4.99.288.603.578 1.216.845 1.83.092.22.184.44.279.649 4.214-.534 8.394.323 8.812.404a12.61 12.61 0 0 0-2.872-7.875v.002Z" fill="#B2215A"/></g><path d="M61.589 86.553c-.335-.42-.715-3.304-.715-3.304l-1.479-7.353-.765-4.236s-.185-5.35-3.534-8.005l-.26-.205v-.142A4.852 4.852 0 0 0 54.5 61.8a1.07 1.07 0 0 1-.12-.504.515.515 0 0 1 .066-.196c.157-.215.364-.389.603-.506.608-.37 1.126-.952 1.266-1.642v-.046c0-.03 0-.06.013-.092s0-.033 0-.052a.856.856 0 0 0 0-.096v-.155a.096.096 0 0 1 0-.024c0-.043-.01-.087-.017-.13v-.009a1.495 1.495 0 0 0-.857-1.16.556.556 0 0 0 .379-.317.722.722 0 0 0 .077-.283v-.022a.92.92 0 0 0 0-.122v-.038a.822.822 0 0 0-.026-.12v-.032l-.01-.026c-.125-.355-.419-.628-.672-.913-1.46-1.636-1.743-3.937-2.14-6.07-.22-1.183-.636-2.53-1.782-2.979a8.872 8.872 0 0 0-.987-.251c-1.016-.27-1.848-.98-2.842-1.327a4.293 4.293 0 0 0-2.09-.176c-.535.089-.982.351-1.498.475-1.109.272-2.454-.031-3.326.865-.612.623-.66 1.573-.962 2.384-.569 1.507-2.047 2.603-2.43 4.168-.246 1.01.01 2.033.277 3.048.202.681.338 1.38.407 2.088.01.179.01.358 0 .536a5.205 5.205 0 0 1-.35 1.52c-1.249.462-2.54 1.007-2.637 1.314-.185.604-3.201 2.327-3.201 2.327s-1.146.977-1.146 1.349c0 .371-.38 1.536-.621 1.536-.24 0-.715 4.7-.715 4.7v4.887s-1.765 5.77-2.172 10.89c0 0-.713 3.269.451 5.145.152.254.347.481.575.67l.595 1.555c.21-.35.475-.662.787-.924.03.194.063.421.104.675.05.317.109.678.185 1.064-.37.579-1.263 1.79-2.335 2.242-.99.418.3 1.523 1.19 2.168-.236 1.177-.578 2.623-.855 2.811-.479.326-2.005 4.421-2.005 4.421s-3.008 7.024 1.314 7.818c4.32.795 6.524-1.07 6.524-1.07h1.035s1.259-.71 1.294-2.177c.704-.58 1.785-1.501 2.005-1.872.22-.372-.386-1.581-.77-2.24l.1-.185s4.11-5.258 4.634-4.7c.525.558.86 1.441.621 2.001l.226 3.222v5.025s-.59 2.281 0 2.514c.59.233 0 1.109 0 1.109s.22 1.024.26 1.349c.022.419.022.838 0 1.257l-.197 5.027-.383 7.445s-.429.606-.094 1.024c.334.417.185 1.397.094 1.582-.09.185-.142 1.722-.142 1.722s-1.386 1.442-.287 1.815l.043.013c-.455.422-.46 1.37-.425 1.664.035.293-.292 1.478-.538 2.149-.05.171-.125.332-.225.479-.169.118 0 1.421 0 1.421s5.37.442 5.825 0c.185-.172.139-.589.01-1.072a11.09 11.09 0 0 0-.821-2.024c-.313-.58-.166-1.325-.166-1.325v-.554c.36.057.595.09.595.09s.669-.554.382-1.07c-.286-.516.525-3.395.525-3.395s.908-3.259.908-3.584c0-.325 1.194-4.559 1.194-4.559s1.766-7.493.907-11.031c0 0 .763-.883.667-1.109-.096-.225-.318-1.21.01-1.628.327-.418 1.71-5.632 2.093-6.515.176-.409.616-1.536 1.037-2.636 1.902-.284 4.168-.809 4.168-.809s-.338-1.44-.59-2.911l.208-1.011.074-.35c.17.168.322.354.452.555l.381-1.861s.043-.065.115-.185c.445-.697 2.068-3.201 2.846-3.96.907-.9.336-4.904 0-5.322Z" fill="url(#b)"/><path d="M50.002 55.416h-5.267v5.914h5.267v-5.914Z" fill="#925978"/><path opacity=".1" d="M50.002 55.416h-5.267v5.914h5.267v-5.914Z" fill="#000"/><path d="M37.017 106.381s1.34 2.126 1.016 2.68c-.323.554-2.538 2.357-2.538 2.357l-.654-4.436 2.176-.601Z" fill="#FF6484"/><path d="m32.858 113.22.978-.139h1.002s1.33-.765 1.254-2.357c-.075-1.591 0-3.142 0-3.142l-3.234 5.638Z" fill="#575988"/><path opacity=".1" d="m32.858 113.22.978-.139h1.002s1.33-.765 1.254-2.357c-.075-1.591 0-3.142 0-3.142l-3.234 5.638Z" fill="#000"/><path d="m34.837 91.549-5.544 6.1s-.647 4.019-1.11 4.342c-.461.324-1.929 4.39-1.929 4.39s-2.907 6.977 1.272 7.763c4.179.785 6.306-1.063 6.306-1.063l3.549-6.423s3.975-5.221 4.483-4.667c.509.555.832 1.433.601 1.987l.216 3.189v4.99s-.569 2.264 0 2.495c.57.231 0 1.109 0 1.109s.215 1.016.254 1.34c.038.323 0 1.247 0 1.247l-.185 4.991-.37 7.393s-.416.6-.092 1.016c.323.416.185 1.386.092 1.571-.092.185-.139 1.71-.139 1.71s-1.34 1.432-.277 1.802c1.063.369 4.159.832 4.159.832s.647-.555.37-1.063c-.278-.508.508-3.373.508-3.373s.878-3.235.878-3.558c0-.324 1.155-4.528 1.155-4.528s1.71-7.439.878-10.951c0 0 .739-.878.647-1.109-.093-.231-.309-1.201 0-1.617.308-.416 1.663-5.591 2.033-6.469.37-.878 1.94-5.129 1.94-5.129v-7.855l-19.694-.462Z" fill="#575988"/><path d="m51.39 63.687-3.19 6.027-.84 1.586-.128.242-8.225.323s-.235-.52-.567-1.325c-.575-1.396-1.444-3.654-1.882-5.56a11.445 11.445 0 0 1-.24-1.384c-.122-1.153.063-1.976.802-2.046a1.45 1.45 0 0 1 .555.057 4.197 4.197 0 0 0 1.585.154c1.952-.237 2.523-2.297 2.62-4.235 0-.136.012-.273.014-.408 0-.42 0-.826-.028-1.2a16.829 16.829 0 0 0-.218-1.888c.489-.24 1-.428 1.527-.564 1.56-.4 3.757-.388 3.787 2.828-.003.712.067 1.423.21 2.122.084.397.217.783.398 1.147.542 1.04 1.294 1.154 1.647 1.14.065 0 .13-.006.194-.02l1.98 3.004Z" fill="#FFC5CB"/><path opacity=".1" d="M43.18 67.176a3.1 3.1 0 0 1 .172 1.019 4.62 4.62 0 0 1-.025 1.096 1.555 1.555 0 0 1-.514.948M45.507 58.885a4.944 4.944 0 1 0 0-9.888 4.944 4.944 0 0 0 0 9.888Z" fill="#000"/><path d="M50.45 53.756a4.941 4.941 0 0 1-9.757 1.122 4.943 4.943 0 0 1 7.636-5.18 4.941 4.941 0 0 1 2.119 4.058h.002Z" fill="#FFC5CB"/><path opacity=".1" d="M37.571 66.09s1.756 4.574 5.452 3.834c0 0 3.732.292 5.869-2.448 2.136-2.741 2.264 15.71 2.264 15.71l-.832 12.244s-5.957 3.558-8.544 3.096c-2.588-.462-3.836-1.848-3.836-1.848s-2.726-2.542-3.465-2.865c-.74-.323.323-16.08.323-16.08l.878-5.914 1.891-5.73Z" fill="#000"/><path d="M37.571 65.72s1.756 4.574 5.452 3.835c0 0 3.732.292 5.869-2.45 2.136-2.74 2.264 15.711 2.264 15.711l-.832 12.245s-5.957 3.557-8.544 3.095c-2.588-.462-3.836-1.848-3.836-1.848s-2.726-2.541-3.465-2.865c-.74-.323.323-16.08.323-16.08l.878-5.914 1.891-5.73Z" fill="#E8F4FF"/><path opacity=".1" d="M37.386 91.549s3.974 4.436 3.743 4.898c-.231.462-3.835-3.558-3.743-4.898ZM36.702 80.519s1.27 1.774 2.065 1.59l-2.065-1.59Z" fill="#000"/><path opacity=".1" d="M39.447 61.607s0 .054-.013.154c-.042.567-.201 2.624-.416 4.916a176.32 176.32 0 0 1-.397 3.863c-.23 1.972-.473 3.55-.68 3.774-.601.647-.37 6.746-.37 6.746v7.717s-.506 2.448-.924 3.003c-.418.554-1.438 2.634-2.255 2.91a2.86 2.86 0 0 0-.763.609c-.74.74-1.786 1.972-2.588 2.944-.661.812-1.151 1.438-1.151 1.438s-3.235-2.033-1.849-2.634c1.037-.449 1.895-1.65 2.26-2.217.123-.185.184-.317.184-.317.065-.43.164-.855.294-1.271.117-.392.29-.766.512-1.109.169-.286.444-.494.765-.578 1.201-.232 1.802-11.644 1.802-11.644l-3.696-8.066-.37-.806s.462-4.667.693-4.667c.23 0 .6-1.155.6-1.525 0-.37 1.11-1.34 1.11-1.34s2.93-1.715 3.116-2.315c.098-.316 1.441-.888 2.693-1.357 1.123-.421 2.171-.761 2.171-.761.612.931-.728 2.533-.728 2.533Z" fill="#000"/><path d="M39.262 61.607s0 .054-.013.154c-.042.567-.201 2.624-.416 4.916a176.32 176.32 0 0 1-.397 3.863c-.23 1.972-.473 3.55-.68 3.774-.6.647-.37 6.746-.37 6.746v7.717s-.506 2.448-.924 3.003c-.418.554-1.438 2.634-2.255 2.91a2.863 2.863 0 0 0-.763.609c-.74.74-1.786 1.972-2.588 2.944-.661.812-1.151 1.438-1.151 1.438s-3.234-2.033-1.848-2.634c1.037-.449 1.894-1.65 2.258-2.217.124-.185.185-.317.185-.317.066-.43.164-.855.294-1.271.117-.392.29-.766.512-1.109.17-.286.444-.494.765-.578 1.201-.232 1.802-11.644 1.802-11.644l-3.696-8.066-.37-.806s.462-4.667.693-4.667c.231 0 .6-1.155.6-1.525 0-.37 1.11-1.34 1.11-1.34s2.931-1.715 3.116-2.315c.098-.316 1.442-.888 2.693-1.357 1.123-.421 2.171-.761 2.171-.761.612.931-.728 2.533-.728 2.533Z" fill="#FF6484"/><path opacity=".1" d="m57.641 72.224-3.99 4.678s3.465 17.974 3.05 18.805a.72.72 0 0 0-.062.219c-.042.43-.034.864.024 1.293.049.453.122.956.206 1.457.243 1.46.57 2.89.57 2.89s-4.666 1.109-6.099.971c-1.432-.139-.6-2.449-.37-3.512.232-1.063-1.57-2.55-1.57-2.55L46.859 86.04s-.185-2.31-.74-3.42c-.554-1.108-.046-2.31-.23-3.88-.132-1.12.674-5.124 1.282-7.45.23-.886.434-1.527.554-1.677a.115.115 0 0 1 .019-.022c.37-.324 0-2.218 0-2.218s.878-4.99.785-5.406c-.051-.237.239-.817.5-1.274.197-.345.378-.62.378-.62s1.788 1.132 4.852 3.609l.277.225c3.234 2.634 3.42 7.948 3.42 7.948l-.315.368Z" fill="#000"/><path d="m57.826 72.224-3.99 4.678s3.465 17.974 3.05 18.805a.72.72 0 0 0-.062.219c-.042.43-.034.864.024 1.293.048.453.122.956.205 1.457.244 1.46.572 2.89.572 2.89s-4.667 1.109-6.1.971c-1.432-.139-.6-2.449-.37-3.512.232-1.063-1.57-2.55-1.57-2.55L47.043 86.04s-.184-2.31-.739-3.42c-.555-1.108-.046-2.31-.231-3.88-.131-1.12.675-5.124 1.283-7.45.23-.886.434-1.527.554-1.677a.123.123 0 0 1 .019-.022c.37-.324 0-2.218 0-2.218s.877-4.99.785-5.406c-.052-.237.239-.817.5-1.274.197-.345.378-.62.378-.62s1.787 1.132 4.852 3.609l.277.225c3.234 2.634 3.42 7.948 3.42 7.948l-.315.368Z" fill="#FF6484"/><path opacity=".1" d="M49.4 74.73c-.046.37 1.109 20.007 2.31 21.162L49.4 74.73Z" fill="#000"/><path d="M33.82 102.038c-1.293.813-2.28-1.327-2.956-3.795-.316-1.159-.555-2.39-.74-3.42-.068-.385-.125-.74-.173-1.058a31.97 31.97 0 0 1-.185-1.364l1.36-.274 1.505-.3.184 1.698.087.77s.237.392.555 1.004c.892 1.79 2.408 5.465.364 6.739ZM57.578 96.086l-.323 1.595-.202 1.004-.01.05s-4.04 5.474-5.333 3.21c-.989-1.73 1.423-4.567 2.614-5.807.37-.384.62-.615.62-.615l1.88.403.754.16Z" fill="#FFC5CB"/><path d="M46.489 142.514c-.44.438-5.637 0-5.637 0s-.163-1.294 0-1.41a1.62 1.62 0 0 0 .218-.477c.238-.675.554-1.848.52-2.133-.045-.392-.021-1.963 1.04-1.848 0 0 1.386-2.819 2.912.647v.832c-.076.445-.02.902.161 1.316.33.642.595 1.315.795 2.009.126.478.163.89-.01 1.064Z" fill="#FF6484"/><path d="M46.489 142.514c-.44.438-5.637 0-5.637 0s-.163-1.294 0-1.41a1.62 1.62 0 0 0 .218-.477c.687-.294 1.623-.578 2.277-.331.826.314 2.35.865 3.142 1.154.135.478.172.89 0 1.064Z" fill="#E8F4FF"/><path opacity=".1" d="M41.868 57.526c.131.53.313 1.063.32 1.603.011.74-.309 1.453-.649 2.118-.388.761-.826 1.578-.697 2.423.07.32.162.635.276.943a4.138 4.138 0 0 1-.263 2.979c-.303.612-.924 1.203-1.587 1.005-.05-.652-.132-1.363-.44-1.92a1.835 1.835 0 0 0-.494-.58c-.48-.37-1.144-.447-1.58-.865a1.332 1.332 0 0 1-.205-.251 1.93 1.93 0 0 1-.259-1.19c0-.064.013-.127.024-.186a5 5 0 0 1 .447-1.293c.115-.248.235-.496.355-.74.278-.552.512-1.126.699-1.715 1.124-.421 2.172-.761 2.172-.761.615.924-.725 2.534-.725 2.534s0 .053-.013.153c1.952-.259 2.53-2.32 2.62-4.257ZM44.637 50.573c-.54.172-1.056.516-1.294 1.034-.255.572-.124 1.234-.185 1.859-.014.137-.04.272-.077.405-.23.767-.949 1.308-1.231 2.047-.02.056-.04.111-.056.17a2.164 2.164 0 0 0-.039.891 4.94 4.94 0 1 1 6.266 1.032c.209-.623.429-1.244.599-1.88.399-1.495.467-3.223-.473-4.452a3.292 3.292 0 0 0-3.51-1.106ZM54.292 65.539c-.163.59-.577 1.236-1.186 1.208-.29-.013-.555-.184-.845-.212-.412-.037-.802.229-1.05.554a7.51 7.51 0 0 0-.584 1.098c-.455.884-1.346 1.678-2.329 1.54l-.101-.019c-.101-.02-.2-.05-.294-.09-.882-.37-1.359-1.505-1.327-2.508.037-1.144.515-2.228.672-3.362.147-1.046.013-2.113.126-3.163.038-.346.1-.69.185-1.027.541 1.04 1.294 1.153 1.647 1.14.197-.346.379-.62.379-.62s1.787 1.132 4.851 3.609c.07.62.02 1.249-.144 1.852Z" fill="#000"/><path d="M47.324 45.08c.96.346 1.767 1.05 2.75 1.318.324.064.643.147.956.248 1.109.445 1.512 1.783 1.724 2.957.383 2.118.658 4.403 2.07 6.027.252.288.544.566.66.924.117.359-.04.854-.416.934.644.271.96 1.066.825 1.752-.135.685-.636 1.251-1.226 1.628-.275.185-.608.37-.645.695-.002.175.038.347.117.503.38.988.436 2.072.157 3.094-.163.588-.577 1.236-1.187 1.209-.29-.013-.554-.185-.843-.213-.414-.037-.802.23-1.051.554-.225.35-.42.717-.584 1.098-.453.884-1.344 1.678-2.33 1.54-1.132-.16-1.757-1.479-1.722-2.617.035-1.139.518-2.227.675-3.362.144-1.046.011-2.113.126-3.163.166-1.537.852-2.966 1.25-4.46.4-1.493.467-3.223-.474-4.452a3.29 3.29 0 0 0-3.512-1.109c-.541.172-1.055.516-1.294 1.033-.31.7-.046 1.53-.264 2.265-.246.824-1.059 1.39-1.294 2.218-.273.996.37 2.008.389 3.04.01.74-.31 1.453-.647 2.118-.39.761-.828 1.578-.697 2.423.07.32.16.635.273.943a4.148 4.148 0 0 1-.255 2.997c-.303.612-.935 1.204-1.587 1.006-.072-.915-.202-1.946-.934-2.5-.482-.37-1.146-.448-1.582-.868a1.784 1.784 0 0 1-.467-1.445 4.52 4.52 0 0 1 .471-1.49c.53-1.146 1.175-2.288 1.25-3.548.11-1.902-1.11-3.776-.666-5.632.37-1.552 1.804-2.641 2.347-4.142.29-.806.337-1.75.924-2.37.85-.888 2.15-.587 3.226-.855.499-.126.924-.384 1.449-.471a4 4 0 0 1 2.038.174Z" fill="#925978"/><path opacity=".1" d="M34.202 84.522v6.007c0 .247 0 .504-.015.763-.063 1.663-.316 3.395-.316 3.395a5.57 5.57 0 0 0-1.057-1.162c-.886-.697-1.64-.608-2.207-.29a2.774 2.774 0 0 0-.658.53c-.128-.824-.185-1.364-.185-1.364l1.36-.274c.17-.285.444-.493.766-.578 1.2-.231 1.802-11.644 1.802-11.644l-3.697-8.066v-.393l1.25-1.987c2.079-1.802 2.587.785 2.587.785s.37 7.024.37 7.208v7.07Z" fill="#000"/><path d="M33.832 84.11v6.007c0 .247 0 .504-.015.763-.063 1.663-.316 3.395-.316 3.395-2.587-3.65-4.413-.259-4.413-.259l-.577-1.543a2.599 2.599 0 0 1-.555-.665c-1.125-1.863-.436-5.11-.436-5.11.394-5.083 2.102-10.813 2.102-10.813v-4.852l1.253-1.986c2.08-1.802 2.957.785 2.957.785V84.11Z" fill="#FF6484"/><path opacity=".1" d="M33.82 90.695c-.062 1.664-.315 3.395-.315 3.395-2.588-3.65-4.414-.258-4.414-.258l-.576-1.544a2.602 2.602 0 0 1-.555-.665c1.205-.664 3.861-1.887 5.86-.928Z" fill="#000"/><path d="M33.82 90.88c-.062 1.663-.315 3.395-.315 3.395-2.588-3.65-4.414-.259-4.414-.259l-.576-1.543a2.602 2.602 0 0 1-.555-.665c1.205-.664 3.861-1.887 5.86-.928Z" fill="#FF6484"/><path opacity=".1" d="M33.82 90.88c-.062 1.663-.315 3.395-.315 3.395-2.588-3.65-4.414-.259-4.414-.259l-.576-1.543a2.602 2.602 0 0 1-.555-.665c1.205-.664 3.861-1.887 5.86-.928Z" fill="#fff"/><path opacity=".1" d="M30.32 78.38s.832 4.575 1.664 5.915c.831 1.34-1.664-5.915-1.664-5.915ZM28.191 86.143s.509 2.772 1.571 3.096c1.063.323-1.57-3.096-1.57-3.096ZM56.824 95.926l.754.16-.323 1.595a3.966 3.966 0 0 0-2.931-1.543c-.411-.026-.824 0-1.228.078.176-.628.293-1.271.348-1.92a1.24 1.24 0 0 0-.117-.714c-.37-.508-.554-5.221-.554-5.221s.323-2.403.508-2.865c.185-.462-.832-2.824-.785-3.538.046-.713.6-6.858.6-7.182 0-.323 1.202-6.653 3.697-4.25l.97 1.34.063.358-3.99 4.678s3.465 17.974 3.05 18.805a.72.72 0 0 0-.062.219Z" fill="#000"/><path d="M61.001 91.919c-.754.754-2.323 3.241-2.754 3.933l-.11.184-.37 1.849s-1.294-2.218-4.297-1.664c.175-.627.292-1.27.347-1.92a1.24 1.24 0 0 0-.116-.713c-.37-.509-.555-5.222-.555-5.222s.324-2.402.508-2.865c.185-.462-.831-2.824-.785-3.537.046-.713.6-6.859.6-7.182 0-.324 1.202-6.654 3.697-4.251l.97 1.34.74 4.205 1.432 7.3s.37 2.865.693 3.28c.324.416.874 4.385 0 5.263Z" fill="#FF6484"/><path opacity=".1" d="m58.244 95.667-.111.185-.37 1.848s-1.294-2.218-4.297-1.664c.176-.627.292-1.27.347-1.92 1.03.065 3.103.355 4.43 1.55Z" fill="#000"/><path d="m58.244 95.852-.111.184-.37 1.849s-1.294-2.218-4.297-1.664c.176-.627.292-1.27.347-1.92 1.03.065 3.103.355 4.43 1.55Z" fill="#FF6484"/><path opacity=".1" d="m58.244 95.852-.111.184-.37 1.849s-1.294-2.218-4.297-1.664c.176-.627.292-1.27.347-1.92 1.03.065 3.103.355 4.43 1.55Z" fill="#fff"/><path opacity=".1" d="M55.222 82.862s3.142-.039 3.604 1.597c.462 1.636-3.604-1.597-3.604-1.597ZM54.621 87.483s5.314-.231 5.083 2.08c-.231 2.31-5.083-2.08-5.083-2.08ZM54.944 91.04s.416-.092.694.879c.277.97-.694-.878-.694-.878ZM44.182 113.635s1.266-.369 1.848 0c.583.37-1.848 0-1.848 0ZM44.41 114.975s3.003.047 3.28.37c.277.324-3.28-.37-3.28-.37Z" fill="#000"/><g opacity=".1" fill="#000"><path opacity=".1" d="M38.013 57.822c.089-1.512-.656-3.003-.749-4.484-.096 1.494.662 2.998.74 4.521a.278.278 0 0 0 .009-.037ZM41.541 60.321c-.384.75-.813 1.553-.702 2.386.08-.634.404-1.247.702-1.83.338-.665.658-1.371.649-2.118 0-.081-.006-.162-.017-.244-.065.632-.342 1.235-.632 1.806ZM55.065 56.94c.137.059.262.141.37.245a.868.868 0 0 0 .047-.621s0-.017-.009-.026a.568.568 0 0 1-.408.403ZM40.855 66.666c-.303.612-.935 1.203-1.587 1.005-.072-.914-.202-1.946-.934-2.5-.482-.37-1.146-.447-1.58-.865a1.624 1.624 0 0 1-.458-.98c0 .03-.01.06-.011.089a1.78 1.78 0 0 0 .47 1.445c.433.42 1.097.503 1.58.867.739.555.86 1.586.933 2.5.652.199 1.284-.393 1.587-1.005.316-.649.457-1.37.409-2.09a4.104 4.104 0 0 1-.409 1.534ZM55.889 58.693c-.135.684-.636 1.251-1.224 1.628-.277.185-.61.37-.646.695a.804.804 0 0 0 .062.37 1.62 1.62 0 0 1 .584-.503c.588-.37 1.089-.945 1.224-1.628a1.679 1.679 0 0 0 0-.601v.039ZM54.292 64.613c-.163.587-.575 1.236-1.187 1.208-.29-.013-.554-.184-.842-.212-.414-.037-.802.229-1.052.554-.225.35-.42.716-.582 1.098-.455.884-1.346 1.678-2.329 1.54-.983-.139-1.613-1.198-1.71-2.235 0 .058-.013.115-.013.174-.036 1.144.588 2.456 1.723 2.617.983.139 1.874-.656 2.329-1.54.162-.381.357-.749.582-1.097.25-.331.638-.597 1.052-.555.288.028.554.2.843.213.611.028 1.023-.621 1.186-1.209.143-.52.199-1.062.165-1.6a4.882 4.882 0 0 1-.165 1.044ZM48.152 51.309c.469.646.727 1.42.74 2.218.048-1.005-.14-1.996-.74-2.784a3.29 3.29 0 0 0-3.511-1.108c-.542.171-1.056.515-1.294 1.033-.313.698-.048 1.532-.266 2.264-.246.824-1.06 1.39-1.294 2.218a2.12 2.12 0 0 0-.048.813c.01-.087.026-.173.048-.257.227-.828 1.04-1.394 1.294-2.218.218-.74-.047-1.565.266-2.264.23-.517.74-.861 1.294-1.033a3.29 3.29 0 0 1 3.511 1.118Z"/></g><g opacity=".8"><path opacity=".8" d="M104.954 122.172c8.187 0 14.823-6.636 14.823-14.822 0-8.187-6.636-14.823-14.823-14.823-8.186 0-14.823 6.636-14.823 14.823 0 8.186 6.637 14.822 14.823 14.822Z" fill="#1769FF"/><path opacity=".8" d="M100.602 100.631a8.368 8.368 0 0 1 1.75.17c.483.094.944.283 1.355.555.376.259.678.613.874 1.025.223.497.33 1.038.312 1.583a2.955 2.955 0 0 1-.462 1.693 3.36 3.36 0 0 1-1.364 1.109c.745.184 1.4.628 1.848 1.251a4.105 4.105 0 0 1 .217 3.914c-.252.484-.617.9-1.063 1.213a4.744 4.744 0 0 1-1.525.697 6.993 6.993 0 0 1-1.758.225h-6.505v-13.435h6.321Zm-.37 5.438c.46.02.914-.11 1.294-.37.34-.246.509-.654.508-1.223a1.56 1.56 0 0 0-.17-.771 1.251 1.251 0 0 0-.451-.471c-.2-.117-.42-.197-.649-.235a4.335 4.335 0 0 0-.763-.065h-2.772v3.142l3.003-.007Zm.17 5.7c.278.001.556-.028.828-.085.247-.05.483-.145.695-.281.203-.135.369-.319.48-.536.131-.27.194-.567.185-.867 0-.688-.194-1.181-.584-1.479a2.488 2.488 0 0 0-1.543-.443h-3.216v3.696l3.155-.005Zm8.853-.283c.402.389.978.584 1.73.584.497.012.986-.131 1.397-.41.329-.196.582-.498.716-.856h2.35c-.377 1.167-.954 2.001-1.731 2.502a5.094 5.094 0 0 1-2.832.756 5.56 5.56 0 0 1-2.068-.369 4.314 4.314 0 0 1-1.562-1.045 4.703 4.703 0 0 1-.989-1.617 5.958 5.958 0 0 1-.347-2.07 5.642 5.642 0 0 1 .357-2.033 4.7 4.7 0 0 1 2.587-2.708 5.021 5.021 0 0 1 2.024-.395 4.635 4.635 0 0 1 2.164.48 4.325 4.325 0 0 1 1.514 1.294 5.3 5.3 0 0 1 .856 1.849c.176.707.238 1.437.185 2.164h-7.024c.037.861.257 1.489.658 1.876l.015-.002Zm3.02-5.116c-.32-.351-.806-.527-1.458-.527a2.318 2.318 0 0 0-1.063.216 1.983 1.983 0 0 0-1.035 1.213 3.095 3.095 0 0 0-.122.639h4.34c-.123-.676-.347-1.19-.669-1.541h.007Zm-4.144-5.061h5.429v1.507h-5.429v-1.507Z" fill="#fff"/></g><g opacity=".8"><path opacity=".8" d="M171.938 116.031v.419a14.826 14.826 0 0 1-14.815 14.402 14.827 14.827 0 0 1-14.538-17.716 14.824 14.824 0 0 1 29.361 2.895h-.008Z" fill="#B3BBC6"/><path opacity=".8" d="M171.931 116.45a14.821 14.821 0 0 1-3.864 9.566 14.82 14.82 0 0 1-9.168 4.73l-12.102-9.002 1.511-9.796 5.985.37 3.404 2.853 2.422-3.946 4.066 3.379 2.186 1.565v-4.94l5.512 5.101c.013.041.033.08.048.12Z" fill="#666C76"/><path opacity=".8" d="M156.054 116.395c0-3.142-1.931-5.271-5.609-5.271h-3.632v10.575h3.708c3.571 0 5.533-2.162 5.533-5.304Zm-2.637.016c0 2.268-1.164 3.25-3.033 3.25h-.952v-6.499h.952c1.793 0 3.033 1.026 3.033 3.249Zm13.074 5.288v-10.575h-2.437v5.914l-3.893-5.914h-2.545v10.573h2.438v-6.328l4.168 6.328h2.269v.002Z" fill="#fff"/></g><path d="M160.793 100.261c-.185-.37-1.909-2.842-1.909-2.842l-.052-.222-.565-2.523-.039-.185c.37-.094.636-.21.719-.356.406-.712-.344-1.577-.344-1.577l-.157-3.74-.407-9.057s-.844-3.031-.97-3.74c-.126-.71-1.283-2.197-1.283-2.197s.25-.739-.063-1.267c-.312-.53-1.001-3-1.001-3l-.594-6.839-.282-6.727c.283-.002.566.024.844.08.041.032.019-.05-.04-.2a.114.114 0 0 1 .04.014c.096.078-.16-.5-.438-1.09l-.033-.069c.133-.482.684-2.435 1.066-3.141.285-.522-.262-4.12-.68-6.578-.029-.176-.059-.344-.087-.507.679-1.186 1.457-2.532 1.457-2.532s1.97-5.626 2.783-8.07c.814-2.443 0-8.778 0-8.778s0-.31-.044-.795c-.128-1.309-.616-3.869-2.49-4.863-2.565-1.36-3.378-3.03-3.378-3.03s-3.201-2.912-3.606-1.934l-.028-.056a6.396 6.396 0 0 1-.523-1.54c-.011-.055-.02-.11-.029-.164a4.954 4.954 0 0 0 1.053-1.142c0 .081-.013.163-.018.244v.223a.863.863 0 0 0 0 .102v.061a.585.585 0 0 0 .582-.323c.1-.213.167-.441.197-.675.109-.498.307-.971.586-1.397.274-.42.64-.841.688-1.32a1.06 1.06 0 0 0 0-.21c-.024-.244-.139-.472-.174-.714a1.524 1.524 0 0 1 0-.37c0-.072.017-.144.028-.214s.029-.185.042-.288c.013-.104.024-.161.034-.242v-.01a2.646 2.646 0 0 0 0-.64 1.246 1.246 0 0 0-.599-.966c-.185-.094-.398-.124-.582-.218-.488-.25-.644-.848-.924-1.31a2.317 2.317 0 0 0-1.83-1.052c-.739-.03-1.464.294-2.19.185-.464-.074-.891-.325-1.361-.359-.685-.048-1.303.37-1.859.771-.394.283-.813.603-.943 1.068-.103.381 0 .82-.214 1.152-.139.216-.39.34-.545.554a.924.924 0 0 0-.185.594v.159c.013.142.039.286.063.427a.328.328 0 0 1 0 .044c.055.39-.07.663-.211 1.044-.06.16-.094.33-.1.501v.063a.958.958 0 0 0 0 .107.635.635 0 0 0 .167.355.556.556 0 0 1 .184-.185V8.934a4.883 4.883 0 0 0 1.479 3.494c0 .053-.015.109-.022.162-.08.555-.185 1.165-.312 1.749l-.045.184h-.924s.157-.68-1.377.156c-1.534.835-3.412 1.236-3.696 1.39-.285.153-3.754 2.846-3.754 2.846s-3.005 1.73-2.911 4.698l-.344 3.327-.249 6.214s-.47 5.287 0 6.029c.469.74 1.282 5.132 1.125 5.689-.113.403 1.02 3.234 1.808 4.885a6.64 6.64 0 0 0-.586.71s-.314 1.238-.314 1.361c0 0 0 .013.014.02-.693.703-1.798 1.858-1.798 2.113 0 .37.22.693-.124.671-.344-.022-.355.38-.334.627.02.245-.418-.122-.387.34.032.462-3.191 7.73-3.191 7.73s-1.47 3.555-2.034 4.143c-.563.588-1.345 3.184-1.282 4.142.063.957.094 1.238-.157 1.238-.252 0-.751.865-.751.865l-2.471 7.606s-.721 2.349-.939 2.32c-.218-.03-.709 4.036-.709 4.036s-.531 1.205-.625 1.205c-.019 0 .068.087.229.223l-.107.09a7.787 7.787 0 0 1-.73.555c-.009 0-1.429-.985-2.403-.892-.974.092-2.972.338-3.975-.37-.555-.395-1.725-.74-2.666-.754-.75-.011-1.358.185-1.401.754-.094 1.266 3.41 3.648 3.41 3.648s3.697 1.05 4.412 2.033c.715.984 3.671 2.473 3.671 2.473s.889-.391 1.223-.785a.388.388 0 0 0 .122-.294c-.063-.464 1.22-2.218 1.22-2.218l.185-.87c.091-.43.205-.956.318-1.416l.044-.185c.147.007.293-.015.431-.066 1.251-.494 1.377-1.849 1.377-1.849l1.872-3.916s.813-2.257 1.063-2.66c.249-.403 2.19-4.45 2.19-4.45s.344-1.732.658-2.257c.314-.525.344-1.663.344-1.663s.656-1.732 1.345-2.412a9.113 9.113 0 0 0 1.283-1.762s2.846-4.483 4.787-5.75c0 0 4.663-5.688 4.944-6.184.281-.495 1.157-1.793 2.218-.619s2.188 2.691 2.188 2.691l1.911 5.194 2.127 6.653s1 1.606.939 1.947c-.061.34 1.627 3.37 1.627 3.37s.656 1.11.532 1.664c-.124.555.47 1.11.47 1.11l.184 2.256s.69 2.218.501 2.567c-.188.35.658 2.473.658 2.473s0 1.885.313 2.504c.312.62.693 3.09.661 3.275-.031.185 0 1.887 0 1.887s.22 0 .57-.01l.014.184.156 1.861.014.172a.733.733 0 0 0-.286.544c0 .502.074 1.98.137 3.142.014.308.031.593.046.831a.625.625 0 0 0 .064.24.63.63 0 0 0 .154.194.624.624 0 0 0 .466.137 8.254 8.254 0 0 1 2.67.1 9.8 9.8 0 0 0 2.972.218s.069-.696.08-1.321c.009-.399-.006-.767-.078-.91Z" fill="url(#c)"/><path d="M158.4 97.506h-4.22l-.04-.497-.154-1.856-.114-1.405h3.696l.226 1.022.556 2.514.05.222ZM119.616 90.05c-.079.078-.21.545-.344 1.109-.238.99-.487 2.279-.487 2.279l-.156.037-3.29.794s-1.724-3.942-.924-4.034a2.03 2.03 0 0 0 .782-.348c.264-.175.516-.366.756-.573.438-.37.773-.713.773-.713s3.107 1.233 2.89 1.449Z" fill="#FFAAB0"/><path opacity=".1" d="M119.616 90.05c-.079.078-.21.545-.344 1.109-1.136-.067-2.855-1.416-3.326-1.848.438-.37.772-.714.772-.714s3.114 1.237 2.898 1.453ZM157.792 94.769c-1.013.273-2.871.356-3.808.382l-.114-1.404h3.696l.226 1.022Z" fill="#000"/><path d="M130.983 51.546s-2.31 2.279-2.31 2.648c0 .37.216.69-.122.67-.338-.021-.35.378-.329.624.02.246-.411-.124-.381.338.03.462-3.142 7.702-3.142 7.702s-1.447 3.543-2.002 4.127c-.554.584-1.325 3.173-1.262 4.129.063.955.092 1.23-.155 1.23-.248 0-.74.864-.74.864l-2.432 7.578s-.71 2.341-.924 2.31c-.214-.031-.739 4.035-.739 4.035s-.525 1.201-.618 1.201c-.092 0 2.68 2.403 3.913 1.911 1.233-.492 1.355-1.848 1.355-1.848l1.848-3.881s.802-2.25 1.048-2.65c.246-.402 2.157-4.437 2.157-4.437s.338-1.724.647-2.247c.309-.523.338-1.663.338-1.663s.647-1.727 1.325-2.403a9.132 9.132 0 0 0 1.263-1.756s2.803-4.467 4.713-5.73c0 0 4.589-5.668 4.866-6.162.277-.493 1.14-1.785 2.188-.615 1.048 1.17 2.155 2.68 2.155 2.68l1.88 5.175 2.094 6.622s.987 1.603.924 1.94c-.063.34 1.603 3.36 1.603 3.36s.647 1.108.523 1.662c-.124.555.462 1.11.462 1.11l.185 2.249s.678 2.218.493 2.556c-.185.338.647 2.464.647 2.464s0 1.88.309 2.495c.308.615.676 3.08.647 3.266-.03.184 0 1.88 0 1.88s4.648-.032 5.049-.74c.401-.708-.338-1.571-.338-1.571l-.156-3.728-.399-9.025s-.831-3.02-.955-3.728c-.124-.708-1.263-2.186-1.263-2.186s.246-.74-.062-1.264c-.309-.525-.986-2.987-.986-2.987l-.585-6.81-.302-7.422-22.43-3.973Z" fill="#DCE6F2"/><path opacity=".1" d="M154.271 56.32c-.185-.156-7.763-.217-7.855-.217-.093 0-2.957-1.14-2.957-1.14s-6.377-1.046-7.362-.584c-.985.462-4.036-.863-4.036-.863v-.586s-1.632-.554-1.632-.676.308-1.357.308-1.357l.185-.065.706-.242 21.656 3.48s.286.588.554 1.163c.268.575.527 1.164.433 1.087Z" fill="#000"/><path d="M154.271 56.135c-.185-.155-7.763-.216-7.855-.216-.093 0-2.957-1.14-2.957-1.14s-6.377-1.047-7.362-.585c-.985.462-4.036-.863-4.036-.863v-.586s-1.632-.554-1.632-.676.308-1.357.308-1.357l.185-.065.706-.242 21.656 3.48s.286.588.554 1.163c.268.575.527 1.164.433 1.087Z" fill="#F1FAFF"/><path opacity=".1" d="m118.96 92.382-.185.871s-.061.085-.155.222l-3.281.794s-1.724-3.942-.924-4.034a2.03 2.03 0 0 0 .782-.348c-.168 1.235.789 2.534.789 2.534 1.351 1.017 2.974-.039 2.974-.039Z" fill="#000"/><path d="m118.96 92.57-.185.87s-1.262 1.755-1.201 2.218a.402.402 0 0 1-.12.294c-.329.391-1.205.781-1.205.781s-2.894-1.478-3.604-2.464c-.71-.985-4.344-2.032-4.344-2.032s-3.448-2.374-3.356-3.636c.041-.555.64-.761 1.379-.75.924.01 2.075.356 2.624.75.987.708 2.958.462 3.913.37.956-.093 2.36.89 2.36.89-.319 1.294.751 2.745.751 2.745 1.366 1.019 2.988-.037 2.988-.037Z" fill="#575988"/><path d="M117.463 95.95c-.329.391-1.205.781-1.205.781s-2.894-1.478-3.604-2.463c-.71-.986-4.343-2.033-4.343-2.033s-3.449-2.373-3.357-3.636c.041-.554.64-.761 1.379-.75.554.924 1.373 2.208 1.978 2.567.987.586 2.927 1.695 2.927 1.695s3.079 1.94 3.296 2.157c.177.179 1.961 1.358 2.929 1.681Z" fill="#F1FAFF"/><path opacity=".1" d="M158.403 97.504h-4.225l-.04-.497c.532-.501 1.672-.74 1.672-.74.791-.242 2.25.797 2.538 1.011l.055.226Z" fill="#000"/><path d="M160.357 101.241c-.011.623-.079 1.316-.079 1.316a9.562 9.562 0 0 1-2.926-.216 8 8 0 0 0-2.628-.1.613.613 0 0 1-.461-.138.612.612 0 0 1-.214-.431c-.013-.237-.03-.521-.044-.828-.063-1.152-.135-2.623-.135-3.124 0-.861 1.94-1.262 1.94-1.262.88-.27 2.588 1.048 2.588 1.048s1.695 2.463 1.88 2.833c.072.142.086.508.079.902Z" fill="#575988"/><path d="M160.357 101.241c-.011.623-.079 1.316-.079 1.316a9.562 9.562 0 0 1-2.926-.216 8 8 0 0 0-2.628-.1.613.613 0 0 1-.461-.138.612.612 0 0 1-.214-.431c-.013-.237-.03-.521-.044-.828.709-.107 1.756-.211 2.484-.043.846.196 2.791.361 3.868.44Z" fill="#F1FAFF"/><path opacity=".1" d="M118.276 82.735s-.647 1.109 0 1.617 0-1.617 0-1.617ZM153.023 87.032c.185.37.677.924.592 1.57-.085.648-.592-1.57-.592-1.57Z" fill="#000"/><path d="M152.454 19.447s-2.822-.286-5.748-.674l-.12-.017c-3.397-.453-6.883-1.039-6.208-1.466.301-.184.554-.654.763-1.245.13-.38.239-.765.327-1.156l.043-.184c.127-.583.229-1.19.308-1.741.157-1.122.222-2.017.222-2.017s7.24-2.743 6.347.677a3.742 3.742 0 0 0-.026 1.674c.106.531.28 1.047.516 1.534 1.153 2.462 3.576 4.615 3.576 4.615Z" fill="#FFAAB0"/><path opacity=".1" d="M148.388 11.622a3.742 3.742 0 0 0-.026 1.674 4.898 4.898 0 0 1-6.543-.334c.157-1.122.222-2.017.222-2.017s7.24-2.742 6.347.677Z" fill="#000"/><path d="M150.173 9.308a4.897 4.897 0 1 1-9.795.01v-.01a4.9 4.9 0 0 1 4.897-4.898 4.9 4.9 0 0 1 4.898 4.898Z" fill="#FFAAB0"/><path opacity=".1" d="M146.771 18.571a.95.95 0 0 1-.065.202l-.12-.017c-3.397-.453-6.883-1.039-6.208-1.466.301-.184.554-.654.763-1.245.13-.38.239-.765.327-1.156l.043-.184h.142c.011.077.37 2.445 3.547 2.85l.107.012c1.24.14 1.556.546 1.464 1.004Z" fill="#000"/><path d="M146.586 18.756c-.155.767-1.464 1.676-1.464 1.676l-3.635-.678s-2.279-2.033-2.279-2.094c0-.061 1.354-2.772 1.354-2.772h.906c.011.077.37 2.445 3.547 2.85l.107.012c1.24.141 1.556.548 1.464 1.006Z" fill="#F1FAFF"/><path opacity=".1" d="M152.454 19.447s-2.9-.294-5.868-.691c-.155.767-1.464 1.676-1.464 1.676l-3.635-.678s-2.279-2.033-2.279-2.094c0-.061 1.354-2.772 1.354-2.772h.047c.119.41.298.8.532 1.157.571.872 1.663 1.827 3.696 1.707l.17-.013c3.052-.253 3.738-2.365 3.863-2.909 1.161 2.464 3.584 4.617 3.584 4.617ZM153.838 55.048l-.061.224c-.739-.555-6.128-.924-6.128-.924s-1.418-.167-2.773-.383c-.983-.157-1.933-.342-2.282-.51a2.329 2.329 0 0 0-.25-.094c-1.227-.385-4.99-.83-4.99-.83s-1.848.831-2.834.462c-.985-.37-3.788-2.096-3.788-2.096s.061-.093.184-.25l.706-.242 21.656 3.48s.294.588.56 1.163Z" fill="#000"/><path d="M154.186 45.308c.412 2.45.95 6.034.671 6.554-.433.8-1.08 3.234-1.08 3.234-.739-.554-6.128-.924-6.128-.924s-1.418-.166-2.773-.383c-.983-.157-1.933-.342-2.282-.51a2.329 2.329 0 0 0-.25-.094c-1.227-.384-4.99-.83-4.99-.83s-1.848.832-2.833.462c-.986-.37-3.789-2.096-3.789-2.096a9.026 9.026 0 0 1 1.386-1.508c.953-.863 2.709-8.287 2.665-8.38-.044-.092-.479-2.463-.355-3.85.124-1.386-.37-8.163-.37-8.163s-4.955-1.919-5.042-4.876c-.086-2.957 2.865-4.682 2.865-4.682s3.419-2.68 3.697-2.835c.277-.155 2.125-.554 3.635-1.386 1.51-.832 1.355-.153 1.355-.153s.617 3.265 4.282 3.05c3.665-.217 4.066-3.05 4.066-3.05.394-.986 3.551 1.94 3.551 1.94s.8 1.664 3.327 3.018c1.848.991 2.325 3.542 2.451 4.845.046.482.044.793.044.793l-7.425 5.33 2.919 12.167s.185.992.403 2.327Z" fill="#575988"/><path d="M135.82 51.638s2.434 4.188 4.959 3.018a2.957 2.957 0 0 0 1.349-1.234c.996-1.723 0-3.92-1.93-4.436-.711-.185-1.478-.301-2.099-.185-1.756.31-2.279 2.837-2.279 2.837Z" fill="#FFAAB0"/><path opacity=".1" d="M135.82 51.638s2.434 4.188 4.959 3.018a2.957 2.957 0 0 0 1.349-1.234c.996-1.723 0-3.92-1.93-4.436-.711-.185-1.478-.301-2.099-.185-1.756.31-2.279 2.837-2.279 2.837ZM132.247 21.05s1.92 1.293 1.961 3.326l-1.961-3.326ZM135.265 22.035c0 .124-.554 8.686.431 11.612.985 2.926-.431-11.612-.431-11.612ZM150.173 9.308a4.86 4.86 0 0 1-.793 2.672v-.184c-.031-.514-.303-.978-.567-1.422a2.839 2.839 0 0 0-.739-.913 1.395 1.395 0 0 1-.25-.185c-.17-.185-.151-.478-.185-.739a1.644 1.644 0 0 0-1.329-1.386.555.555 0 0 0-.414.059c-.125.089-.184.253-.29.355-.166.15-.421.131-.641.089-.484-.097-.989-.272-1.458-.117-.806.268-1.109 1.383-1.935 1.59a4.741 4.741 0 0 1-.74.051c-.159.01-.313.058-.451.139v-.011a4.896 4.896 0 0 1 8.361-3.463 4.896 4.896 0 0 1 1.435 3.463l-.004.002Z" fill="#000"/><path d="M140.426 6.057c.153-.205.399-.33.537-.546.211-.33.108-.767.211-1.145.126-.464.54-.782.924-1.065.555-.4 1.155-.815 1.83-.769.462.033.882.285 1.34.359.715.116 1.432-.205 2.157-.185a2.266 2.266 0 0 1 1.8 1.05c.287.458.438 1.055.924 1.293.185.095.392.124.573.218a1.228 1.228 0 0 1 .59.963 4.39 4.39 0 0 1-.081 1.167c-.037.193-.045.39-.026.586.033.242.147.467.172.711.055.555-.37 1.04-.679 1.516a4.224 4.224 0 0 0-.575 1.393 2.26 2.26 0 0 1-.196.673.573.573 0 0 1-.572.324c-.036-.335.048-.673.025-1.01-.031-.514-.303-.977-.567-1.42a2.813 2.813 0 0 0-.739-.914 1.298 1.298 0 0 1-.248-.185c-.172-.185-.153-.477-.185-.74a1.648 1.648 0 0 0-1.329-1.383.555.555 0 0 0-.414.057c-.125.089-.185.253-.29.355-.166.15-.421.133-.641.088-.484-.094-.989-.271-1.458-.116-.806.268-1.109 1.382-1.936 1.59a4.488 4.488 0 0 1-.739.051.78.78 0 0 0-.636.331c-.247-.259-.197-.68-.075-1.016.142-.394.271-.673.201-1.087-.07-.414-.163-.791.102-1.144Z" fill="#794F6A"/><path opacity=".1" d="M122.435 73.262s-1.756.924-.832 1.11c.924.184.832-1.11.832-1.11ZM151.36 75.48s.97-1.293 2.033-.508c1.063.786-2.033.508-2.033.508ZM153.615 76.312s1.21-.416 1.95 0h-1.95ZM129.689 55.334s2.588 2.496 3.42 2.588c.831.092-3.42-2.587-3.42-2.587ZM130.059 22.528l-.673 1.416-.34 3.327-.246 6.191s-.462 5.268 0 6.007c.462.74 1.263 5.114 1.109 5.669-.153.554 2.033 5.73 2.434 6.038.401.309 1.817.37 2.617.214l1.464 1.392 4.144-3.824-2.558-1.94s.586-.988-1.046-2.065c0 0-.739-1.233-.771-1.88a13.738 13.738 0 0 0-.678-3.881c-.584-1.724-.924-11.304-.924-11.304s-1.39-6.994-4.532-5.36Z" fill="#000"/><path d="m129.689 22.528-.673 1.416-.34 3.327-.245 6.191s-.462 5.268 0 6.007c.462.74 1.262 5.114 1.109 5.669-.154.554 2.033 5.73 2.434 6.038.401.309 1.816.37 2.617.214l1.464 1.392 4.143-3.824-2.558-1.94s.586-.988-1.046-2.065c0 0-.739-1.233-.77-1.88a13.739 13.739 0 0 0-.679-3.881c-.584-1.724-.924-11.304-.924-11.304s-1.39-6.994-4.532-5.36Z" fill="#575988"/><path opacity=".1" d="M136.128 45.692c-.184.093-3.912 3.543-2.526 3.636 1.386.092 2.526-3.636 2.526-3.636Z" fill="#000"/><path d="M140.871 49.85s-5.328.555-5.051 2.712c.277 2.157 4.066 4.235 5.267 3.58 1.202-.654 2.218-1.279 2.218-1.279l-2.434-5.012Z" fill="#FFAAB0"/><path opacity=".1" d="m157.136 24.007.77 1.478s.801 6.314 0 8.748c-.8 2.434-2.741 8.04-2.741 8.04s-2.341 4.097-2.402 4.282c-.061.185-4.499 6.591-5.299 6.931-.801.34-2.311.161-2.403-.212-.092-.374-2.125 1.59-2.125 1.59s-3.919-4.736-3.296-5.23c.623-.493 2.51-.615 2.51-.615s.139.462.292-.493c.153-.956.863-1.448 1.386-1.387.523.061.309-.491.401-1.077.093-.586 1.54-1.632 1.54-1.632s.71-1.14.71-1.819c0-.678 1.478-1.262 1.6-1.262.122 0 .093-.277.093-1.262 0-.986.739-2.743.739-2.743l.456-5.545.803-5.637s2.192-6.868 6.966-2.155Z" fill="#000"/><path opacity=".1" d="M153.783 42.98s.185.993.408 2.319c-.369.663-.663 1.192-.685 1.255-.061.184-4.497 6.592-5.297 6.93-.801.339-2.311.161-2.403-.21-.041-.167-.464.127-.924.506-.573.473-1.203 1.081-1.203 1.081s-.621-.75-1.329-1.685c-1.072-1.412-2.342-3.244-1.969-3.541.623-.494 2.512-.616 2.512-.616s.139.462.292-.493c.153-.956.863-1.448 1.386-1.387.523.061.309-.493.401-1.077.093-.584 1.54-1.634 1.54-1.634s.708-1.139.708-1.817c0-.678 1.478-1.262 1.602-1.262.124 0 .093-.277.093-1.264s.739-2.741.739-2.741l.456-5.545.801-5.637s2.188-6.87 6.962-2.157l.357.686c.046.482.044.793.044.793l-7.424 5.33 2.933 12.167Z" fill="#000"/><path d="m157.505 24.007.771 1.478s.8 6.314 0 8.748c-.8 2.434-2.741 8.04-2.741 8.04s-2.342 4.097-2.403 4.282c-.061.185-4.498 6.591-5.299 6.931-.8.34-2.31.161-2.402-.212-.093-.374-2.126 1.59-2.126 1.59s-3.918-4.736-3.295-5.23c.623-.493 2.51-.615 2.51-.615s.138.462.292-.493c.153-.956.863-1.448 1.386-1.387.523.061.309-.491.401-1.077.092-.586 1.54-1.632 1.54-1.632s.709-1.14.709-1.819c0-.678 1.479-1.262 1.601-1.262.122 0 .092-.277.092-1.262 0-.986.74-2.743.74-2.743l.456-5.545.802-5.637s2.192-6.868 6.966-2.155Z" fill="#575988"/><path opacity=".1" d="M143.767 48.76s.185.416 1.017.568c.831.151-1.017-.568-1.017-.568ZM153.716 24.036c-.029.093-2.772 3.192-2.217 4 .554.808 2.217-4 2.217-4ZM150.606 38.268s1.571 1.541 1.262 2.28c-.309.74-1.262-2.28-1.262-2.28ZM150.852 35.342c.092.154 3.482.555 3.666 1.848.185 1.294-3.666-1.848-3.666-1.848Z" fill="#000"/><g opacity=".1" fill="#000"><path opacity=".1" d="M151.195 7.637c0-.07.017-.142.028-.214.069-.353.099-.712.089-1.07-.015.234-.056.469-.089.7a2.08 2.08 0 0 0-.028.584ZM140.326 7.275a1.295 1.295 0 0 0 0-.412c-.022-.132-.046-.263-.059-.394-.02.256 0 .513.059.763v.043ZM151.36 8.644c-.08.44-.41.834-.664 1.224-.275.425-.47.896-.574 1.391-.032.233-.098.46-.196.673a.578.578 0 0 1-.573.323v-.018c-.011.13-.011.26 0 .388a.577.577 0 0 0 .573-.323c.098-.213.164-.44.196-.673.104-.495.299-.967.574-1.392.307-.475.74-.953.677-1.517.007-.026-.009-.05-.013-.076ZM149.379 11.248c-.032-.513-.304-.98-.568-1.42a2.848 2.848 0 0 0-.739-.925 1.389 1.389 0 0 1-.25-.185c-.17-.185-.151-.479-.185-.74a1.648 1.648 0 0 0-1.328-1.383.554.554 0 0 0-.414.057c-.126.089-.185.253-.291.357a.745.745 0 0 1-.641.088c-.484-.096-.989-.273-1.458-.116-.806.266-1.109 1.38-1.937 1.587a4.7 4.7 0 0 1-.739.054.768.768 0 0 0-.634.329.615.615 0 0 1-.161-.323.792.792 0 0 0 .161.693.77.77 0 0 1 .634-.33 4.7 4.7 0 0 0 .739-.053c.824-.207 1.131-1.321 1.937-1.588.469-.157.974.02 1.458.117a.752.752 0 0 0 .641-.089c.115-.103.165-.268.291-.357a.554.554 0 0 1 .414-.057 1.65 1.65 0 0 1 1.328 1.385c.032.255.013.541.185.739.076.07.16.133.25.185.308.252.56.567.739.924.257.43.518.881.555 1.379.011-.11.016-.218.013-.328Z"/></g><path d="M88.632 27.138v19.395a.306.306 0 0 0 .31.309c5.342-.166 9.797-4.582 9.797-10.007 0-5.424-4.451-9.841-9.796-10.006a.302.302 0 0 0-.31.309Z" fill="#61BEEC"/><path d="M75.294 53.625V37.573a11.746 11.746 0 0 1 2.341-7.125c1.455-1.911 3.72-3.641 7.142-3.619a.35.35 0 0 1 .353.35v16.523s.555 9.03-9.64 10.098a.184.184 0 0 1-.179-.105.186.186 0 0 1-.017-.07Z" fill="#4064AC"/><path opacity=".1" d="M33.267 25.018a5.822 5.822 0 1 0 0-11.644 5.822 5.822 0 0 0 0 11.644ZM21.068 8.938a3.604 3.604 0 1 0 0-7.208 3.604 3.604 0 0 0 0 7.208ZM2.218 15.592a2.218 2.218 0 1 0 0-4.436 2.218 2.218 0 0 0 0 4.436Z" fill="#00BAFC"/><path d="M75.754 124.189c-.178.243-.32.51-.422.793-.025.068-.051.148-.077.223a.745.745 0 0 0-.146-.05 2.065 2.065 0 0 0-.66-.057c0-.085.011-.185.013-.27.028-.974-.087-2.332-1.017-1.757-.89.554-.255 1.478.32 2.072l.148.144c-.525.369-.625 1.244-.712 2.151-.086.908-.857 1.902-1.37 2.466-.05.057-.097.109-.143.157a1.864 1.864 0 0 0-1.488-.383 7.927 7.927 0 0 0-.069-.251c-.412-1.503-1.271-4.09-2.369-4.645l.144-.185c.466-.61.99-1.515.216-1.746-.774-.231-.844.785-.802 1.547 0 .094.015.185.023.27a1.132 1.132 0 0 0-.81.395l-.12-.14c-.629-.74-1.78-1.917-2.13-1.028-.323.828.69 1.902 1.403 2.525l.045.039c-.479 1.944 1.612 3.528 2.737 4.221l.146.089c-1.553 1.829-2.512 5.258-2.512 5.258l4.35.776s2.88-2.488 2.511-4.822h.03c2.88-.577 3.535-3.648 3.088-5.473.017 0 .033-.013.05-.022a3.264 3.264 0 0 0 1.334-1.007c.806-1.126-.883-2.39-1.711-1.29Z" fill="#00BAFC"/><path opacity=".1" d="M75.754 124.189c-.178.243-.32.51-.422.793-.025.068-.051.148-.077.223a.745.745 0 0 0-.146-.05 2.065 2.065 0 0 0-.66-.057c0-.085.011-.185.013-.27.028-.974-.087-2.332-1.017-1.757-.89.554-.255 1.478.32 2.072l.148.144c-.525.369-.625 1.244-.712 2.151-.086.908-.857 1.902-1.37 2.466-.05.057-.097.109-.143.157a1.864 1.864 0 0 0-1.488-.383 7.927 7.927 0 0 0-.069-.251c-.412-1.503-1.271-4.09-2.369-4.645l.144-.185c.466-.61.99-1.515.216-1.746-.774-.231-.844.785-.802 1.547 0 .094.015.185.023.27a1.132 1.132 0 0 0-.81.395l-.12-.14c-.629-.74-1.78-1.917-2.13-1.028-.323.828.69 1.902 1.403 2.525l.045.039c-.479 1.944 1.612 3.528 2.737 4.221l.146.089c-1.553 1.829-2.512 5.258-2.512 5.258l4.35.776s2.88-2.488 2.511-4.822h.03c2.88-.577 3.535-3.648 3.088-5.473.017 0 .033-.013.05-.022a3.264 3.264 0 0 0 1.334-1.007c.806-1.126-.883-2.39-1.711-1.29Z" fill="#000"/><path d="m67.1 125.442-.508 1.479s-.283-.2-.64-.514c-.713-.623-1.726-1.697-1.402-2.525.35-.889 1.5.285 2.129 1.028.253.303.421.532.421.532ZM68.172 124.597a7.31 7.31 0 0 1-.495.583 7.78 7.78 0 0 1-.09-.782c-.043-.762.038-1.773.802-1.547.763.225.25 1.133-.217 1.746ZM74.728 124.828c-.015.49-.063.88-.063.88a6.332 6.332 0 0 1-.634-.556c-.575-.597-1.21-1.518-.32-2.072.93-.584 1.045.778 1.017 1.748ZM77.731 125.47a3.28 3.28 0 0 1-1.334 1.007 3.716 3.716 0 0 1-.447.163l-.599-.841a6.09 6.09 0 0 1 .248-.817c.102-.283.244-.55.421-.793.828-1.1 2.517.164 1.712 1.281Z" fill="#00BAFC"/><path opacity=".1" d="M66.679 124.919c.253.294.421.523.421.523l-.508 1.479s-.283-.2-.64-.514c.08-.477.277-.926.574-1.307.05-.059.103-.124.153-.181ZM68.172 124.597c-.154.203-.32.397-.495.583a7.838 7.838 0 0 1-.09-.782c.21.003.416.073.585.199Z" fill="#000"/><path d="m70.673 130.499-1.266.554s-.275-.133-.673-.379c-1.329-.818-4-2.876-2.208-5.3 1.79-2.425 3.284 1.924 3.872 4.051.179.638.275 1.074.275 1.074Z" fill="#00BAFC"/><path opacity=".1" d="M74.031 125.152a1.03 1.03 0 0 1 .697-.314c-.015.489-.063.879-.063.879a6.344 6.344 0 0 1-.634-.565ZM76.397 126.477a3.716 3.716 0 0 1-.447.163l-.599-.841a6.09 6.09 0 0 1 .248-.817c.386.227.67.787.798 1.495Z" fill="#000"/><path d="m73.259 131.972-.213.037c-4.238.645-1.397-1.643-1.397-1.643s.185-.185.449-.462c.512-.564 1.28-1.553 1.37-2.466.133-1.373.286-2.661 1.907-2.283 1.591.366 1.89 6.013-2.116 6.817Z" fill="#00BAFC"/><path d="M73.181 142.523h-8.097v2.13h8.097v-2.13Z" fill="#D4DFEC"/><path d="M74.377 135.604h-10.58v7.43h10.58v-7.43Z" fill="#D4DFEC"/><path opacity=".1" d="M73.181 142.523h-8.097v2.13h8.097v-2.13Z" fill="#000"/><path opacity=".1" d="M74.377 135.604h-10.58v7.43h10.58v-7.43Z" fill="#000"/><path d="M73.713 142.523h-8.097v2.13h8.097v-2.13Z" fill="#D4DFEC"/><path opacity=".1" d="M70.398 129.427c.184.636.275 1.072.275 1.072l-1.266.554s-.275-.133-.673-.379c.496-.626 1.054-1.101 1.664-1.247ZM73.259 131.972l-.213.037c-4.238.645-1.397-1.643-1.397-1.643s.185-.185.449-.462c.791.634 1.118 1.347 1.16 2.068Z" fill="#000"/><path d="M66.361 136.023s2.373-8.502 5.702-5.877c3.328 2.624-1.353 6.653-1.353 6.653l-4.349-.776Z" fill="#00BAFC"/><path opacity=".1" d="M67.568 126.974a.266.266 0 1 0 0-.532.266.266 0 0 0 0 .532ZM67.546 128.216a.266.266 0 1 0 0-.532.266.266 0 0 0 0 .532ZM75.264 127.218a.266.266 0 1 0 0-.532.266.266 0 0 0 0 .532ZM69.054 133.585a.266.266 0 1 0 0-.532.266.266 0 0 0 0 .532ZM74.71 129.281a.266.266 0 1 0 0-.532.266.266 0 0 0 0 .532ZM71.96 132.033a.266.266 0 1 0 0-.532.266.266 0 0 0 0 .532ZM68.477 127.506a.266.266 0 1 0 0-.532.266.266 0 0 0 0 .532ZM74.532 128.017a.267.267 0 0 0 0-.533.266.266 0 1 0 0 .533ZM73.623 130.079a.266.266 0 1 0 0-.532.266.266 0 0 0 0 .532ZM70.828 133.386a.266.266 0 1 0 0-.532.266.266 0 0 0 0 .532ZM70.252 132.077a.266.266 0 1 0 0-.532.266.266 0 0 0 0 .532ZM68.877 129.126a.267.267 0 0 0 0-.533.266.266 0 1 0 0 .533ZM73.713 142.523h-8.097v.779h8.097v-.779Z" fill="#000"/><path d="M74.91 135.604H64.33v7.43h10.58v-7.43Z" fill="#D4DFEC"/><path opacity=".1" d="M71.183 134.583a.266.266 0 1 0 0-.532.266.266 0 0 0 0 .532ZM69.586 134.916a.266.266 0 1 0 0-.532.266.266 0 0 0 0 .532Z" fill="#000"/></g><defs><linearGradient id="b" x1="43.369" y1="143.011" x2="43.369" y2="44.452" gradientUnits="userSpaceOnUse"><stop stop-color="gray" stop-opacity=".25"/><stop offset=".54" stop-color="gray" stop-opacity=".12"/><stop offset="1" stop-color="gray" stop-opacity=".1"/></linearGradient><linearGradient id="c" x1="43847.7" y1="61417.3" x2="43847.7" y2="6850.11" gradientUnits="userSpaceOnUse"><stop stop-color="gray" stop-opacity=".25"/><stop offset=".54" stop-color="gray" stop-opacity=".12"/><stop offset="1" stop-color="gray" stop-opacity=".1"/></linearGradient><clipPath id="a"><path fill="#fff" d="M0 0h200v145.325H0z"/></clipPath></defs></svg>