<svg width="200" height="148" fill="none" xmlns="http://www.w3.org/2000/svg"><g clip-path="url(#a)"><path opacity=".1" d="M117.071 20.32c-11.805-.41-23.048-4.22-33.785-8.39-10.736-4.17-21.37-8.79-32.9-11C42.982-.49 34.506-.69 28.534 3.28c-5.746 3.83-7.603 10.424-8.6 16.547-.752 4.61-1.194 9.458.864 13.772 1.43 2.995 3.965 5.512 5.72 8.39 6.105 9.982 1.79 22.29-4.825 32.036-3.1 4.572-6.703 8.938-9.098 13.801C10.2 92.69 9.093 98.27 11.19 103.232c2.075 4.925 7.024 8.617 12.385 11.218 10.888 5.279 23.713 6.791 36.227 7.647 27.695 1.895 55.536 1.074 83.303.253 10.277-.305 20.597-.613 30.706-2.202 5.615-.882 11.41-2.283 15.485-5.654 5.174-4.292 6.457-11.561 2.989-16.942-5.815-9.027-21.888-11.27-25.958-20.958-2.236-5.332.06-11.273 3.313-16.218 6.975-10.61 18.665-19.917 19.28-32.045.423-8.328-5.197-16.67-13.887-20.612-9.107-4.131-21.739-3.611-28.455 3.227-6.922 7.026-19.081 9.735-29.506 9.374Z" fill="#00BAFC"/><g opacity=".9"><path opacity=".9" d="M130.402 45.379h-.781a.418.418 0 0 0-.418.417V58.28c0 .23.187.418.418.418h.781c.23 0 .417-.187.417-.418V45.796a.418.418 0 0 0-.417-.417ZM75.984 34.945h-.07a.418.418 0 0 0-.418.418v3.55c0 .23.187.417.417.417h.072c.23 0 .417-.187.417-.417v-3.55a.418.418 0 0 0-.418-.418ZM76.067 42.973h-.186a.418.418 0 0 0-.418.418v6.796c0 .23.187.418.418.418h.186c.23 0 .417-.187.417-.418V43.39a.418.418 0 0 0-.417-.418ZM76.034 53.275h-.137a.418.418 0 0 0-.418.418v6.862c0 .23.187.418.418.418h.137c.23 0 .418-.187.418-.418v-6.862a.418.418 0 0 0-.418-.418Z" fill="#3A3768"/><path opacity=".9" d="M122.963 20.455h-39.84a7.112 7.112 0 0 0-7.113 7.112v95.655a7.112 7.112 0 0 0 7.112 7.112h39.841a7.112 7.112 0 0 0 7.112-7.112V27.567a7.112 7.112 0 0 0-7.112-7.112Z" fill="#3A3768"/><path opacity=".9" d="M104.67 23.735h-6.138a.706.706 0 0 0-.706.706v.12c0 .39.316.706.706.706h6.138c.39 0 .706-.316.706-.706v-.12a.706.706 0 0 0-.706-.706ZM107.387 25.372a.87.87 0 1 0 .001-1.74.87.87 0 0 0-.001 1.74Z" fill="#E6E8EC"/></g><path opacity=".1" d="M43.42 136.58c20.145 0 36.475-1.665 36.475-3.718s-16.33-3.717-36.475-3.717c-20.145 0-36.476 1.664-36.476 3.717s16.33 3.718 36.476 3.718ZM124.524 147.013c9.438 0 17.088-.78 17.088-1.742s-7.65-1.742-17.088-1.742c-9.437 0-17.087.78-17.087 1.742s7.65 1.742 17.087 1.742ZM182.912 138.236c9.438 0 17.088-.78 17.088-1.742s-7.65-1.742-17.088-1.742c-9.437 0-17.087.78-17.087 1.742s7.65 1.742 17.087 1.742Z" fill="#00BAFC"/><path d="M122.436 23.315h-6.184v.746a3.535 3.535 0 0 1-3.535 3.535H92.985a3.535 3.535 0 0 1-3.535-3.535v-.746h-5.808a4.292 4.292 0 0 0-4.292 4.294v95.567a4.29 4.29 0 0 0 4.292 4.294h38.794a4.293 4.293 0 0 0 4.294-4.294V27.609a4.295 4.295 0 0 0-4.294-4.294ZM148.792 15.634s-15.359-.927-13.548 9.835c0 0-.364 1.903 1.365 2.765 0 0 .027-.797 1.574-.527.551.093 1.111.12 1.669.08a3.466 3.466 0 0 0 2.041-.84s4.316-1.784 5.996-8.84c0 0 1.242-1.54 1.193-1.935l-2.592 1.107s.884 1.87.182 3.424c0 0-.084-3.356-.582-3.283-.102.014-1.348.647-1.348.647s1.525 3.256.365 5.624c0 0 .436-4.013-.85-5.389l-1.824 1.066s1.78 3.363.574 6.109c0 0 .309-4.21-.957-5.85l-1.653 1.29s1.673 3.314.653 5.59c0 0-.135-4.9-1.012-5.27 0 0-1.447 1.277-1.667 1.799 0 0 1.145 2.408.436 3.677 0 0-.436-3.265-.794-3.283 0 0-1.441 2.163-1.59 3.648 0 0 .062-2.205 1.24-3.852 0 0-1.392.239-2.205 1.142 0 0 .224-1.529 2.553-1.664 0 0 1.192-1.642 1.511-1.74 0 0-2.326-.195-3.736.43 0 0 1.24-1.442 4.163-.786l1.63-1.333s-3.061-.418-4.359.044c0 0 1.495-1.277 4.801-.347l1.776-1.062s-2.61-.563-4.166-.364c0 0 1.642-.885 4.686.074l1.277-.57s-1.913-.376-2.473-.437c-.56-.06-.59-.213-.59-.213a6.633 6.633 0 0 1 3.618.412s2.688-1.008 2.643-1.178ZM133.039 10.848s-6.931-.418-6.121 4.445c0 0-.163.859.616 1.25 0 0 .013-.366.711-.24a3.2 3.2 0 0 0 .754.037c.34-.023.664-.156.923-.38 0 0 1.95-.806 2.708-3.994 0 0 .562-.695.548-.874l-1.171.5s.399.844.084 1.547c0 0-.037-1.516-.263-1.481-.046 0-.608.293-.608.293s.688 1.47.168 2.541c0 0 .197-1.813-.383-2.435l-.824.482s.804 1.519.259 2.76c0 0 .14-1.903-.433-2.644l-.747.584s.757 1.497.295 2.526c0 0-.06-2.214-.456-2.382 0 0-.655.577-.753.814 0 0 .516 1.094.195 1.661 0 0-.197-1.475-.365-1.483 0 0-.651.978-.719 1.642a3.558 3.558 0 0 1 .56-1.74 1.95 1.95 0 0 0-.995.516s.1-.691 1.156-.751c0 0 .538-.743.682-.788 0 0-1.051-.088-1.687.195 0 0 .56-.651 1.881-.365l.729-.602s-1.383-.182-1.97.02c0 0 .677-.576 2.169-.157l.803-.48s-1.179-.253-1.881-.162c0 0 .741-.4 2.116.033l.574-.257s-.862-.17-1.116-.197c-.253-.028-.266-.097-.266-.097a2.982 2.982 0 0 1 1.621.182s1.226-.443 1.206-.52ZM7.335 125.015c4.05 0 7.334-.555 7.334-1.24 0-.685-3.284-1.241-7.334-1.241-4.051 0-7.335.556-7.335 1.241s3.284 1.24 7.335 1.24Z" fill="#00BAFC"/><path d="M10.366 121.745c.335-.272.58-.64.7-1.055.09-.419-.089-.912-.488-1.074-.449-.173-.929.138-1.292.452s-.78.673-1.257.606a1.907 1.907 0 0 0 .586-1.79.73.73 0 0 0-.164-.364c-.248-.267-.7-.152-1 .058-.948.668-1.213 1.955-1.216 3.115-.097-.419-.017-.855-.019-1.276-.001-.422-.12-.912-.481-1.135a1.46 1.46 0 0 0-.73-.173c-.427-.015-.9.027-1.193.339-.365.387-.268 1.038.048 1.459.315.422.793.693 1.233.989.354.21.656.497.883.841a.784.784 0 0 1 .065.149h2.673a7.449 7.449 0 0 0 1.652-1.141ZM151.5 106.437s1.578 2.065-.729 5.18c-2.308 3.116-4.208 5.746-3.439 7.689 0 0 3.481-5.786 6.313-5.868 2.833-.082.971-3.521-2.145-7.001Z" fill="#00BAFC"/><path opacity=".1" d="M151.5 106.437c.138.2.246.418.323.648 2.764 3.246 4.236 6.278 1.578 6.353-2.473.071-5.443 4.496-6.153 5.612.023.087.051.173.084.256 0 0 3.481-5.786 6.313-5.868 2.833-.082.971-3.521-2.145-7.001Z" fill="#000"/><path d="M154.433 109.075c0 .729-.082 1.315-.182 1.315-.1 0-.182-.589-.182-1.315s.102-.383.202-.383c.1 0 .162-.347.162.383Z" fill="#FFD037"/><path d="M155.44 109.936c-.638.346-1.193.558-1.242.468-.049-.089.431-.441 1.069-.789.638-.349.385-.093.434 0 .049.093.378-.028-.261.321Z" fill="#FFD037"/><path d="M143.164 106.437s-1.577 2.065.73 5.18c2.307 3.116 4.208 5.746 3.44 7.689 0 0-3.48-5.786-6.313-5.868-2.833-.082-.972-3.521 2.143-7.001Z" fill="#00BAFC"/><path opacity=".1" d="M143.164 106.437a2.515 2.515 0 0 0-.322.648c-2.764 3.246-4.236 6.278-1.58 6.353 2.475.071 5.443 4.496 6.154 5.612a2.32 2.32 0 0 1-.084.256s-3.48-5.786-6.313-5.868c-2.832-.082-.97-3.521 2.145-7.001Z" fill="#000"/><path d="M140.229 109.075c0 .729.083 1.315.183 1.315.1 0 .182-.589.182-1.315s-.102-.383-.202-.383c-.101 0-.163-.347-.163.383Z" fill="#FFD037"/><path d="M139.217 109.936c.637.346 1.193.558 1.24.468.048-.089-.428-.441-1.067-.789-.638-.349-.386-.093-.434 0-.047.093-.37-.028.261.321Z" fill="#FFD037"/><path d="M140.733 119.036s4.412-.137 5.742-1.084c1.33-.946 6.787-2.077 7.114-.558.326 1.52 6.63 7.554 1.641 7.594-4.988.04-11.575-.777-12.901-1.585-1.326-.808-1.596-4.367-1.596-4.367Z" fill="#A8A8A8"/><path opacity=".2" d="M155.331 124.459c-4.982.04-11.576-.777-12.902-1.585-1.012-.615-1.413-2.824-1.548-3.844h-.148s.279 3.559 1.607 4.367c1.328.808 7.92 1.625 12.901 1.585 1.438-.013 1.936-.523 1.908-1.277-.2.458-.747.745-1.818.754Z" fill="#000"/><path opacity=".3" d="M120.854 88.99h-14.233v14.233h14.233V88.99ZM99.878 70.202H85.645v14.233h14.233V70.202ZM101.246 107.457H87.013v14.233h14.233v-14.233Z" fill="#3A3768"/><path d="M98.07 35.255H83.837v14.233H98.07V35.255ZM118 83.859l-10.554 9.55 9.55 10.554 10.554-9.55L118 83.859ZM120.619 52.407h-14.233V66.64h14.233V52.407ZM102.627 68.276H88.394V82.51h14.233V68.276Z" fill="#fff"/><path d="M177.269 133.628c.828.108 1.687.183 2.48-.084.123-.038.263-.122.247-.248a.296.296 0 0 0-.057-.12 7.729 7.729 0 0 1-.753-1.428.12.12 0 0 0-.046-.064.11.11 0 0 0-.08 0c-.365.095-.682.332-1.047.432a1.496 1.496 0 0 1-.569.044c-.164-.018-.391-.155-.538-.139.091.542.299 1.055.363 1.607ZM192.943 132.24c.547-.365 1.112-.77 1.435-1.348a.217.217 0 0 0 .039-.115.245.245 0 0 0-.046-.113 4.675 4.675 0 0 0-1.166-1.258 3.43 3.43 0 0 0-.651.6c-.137.144-.516.381-.52.596 0 .13.144.27.212.365.091.135.182.274.261.412.042.084.476.839.436.861Z" fill="#00BAFC"/><path d="M180.515 135.303a.547.547 0 0 1-.098.365.506.506 0 0 1-.21.122c-1.16.414-2.495-.104-3.648.306-.239.084-.463.204-.702.285a3.837 3.837 0 0 1-.87.155c-.411.04-.821.064-1.231.075a3.012 3.012 0 0 1-.927-.081 1.116 1.116 0 0 1-.711-.563.544.544 0 0 1-.035-.402.44.44 0 0 1 .075-.129c.079-.088.171-.162.273-.221l.427-.275c.2-.142.417-.257.646-.343.168-.055.348-.079.518-.128.6-.182 1.056-.651 1.481-1.107l.58-.618a.563.563 0 0 1 .201-.161.548.548 0 0 1 .248-.025 3.348 3.348 0 0 1 1.581.532c.122.09.253.167.391.23a1.389 1.389 0 0 0 1.094-.137c.15-.078.117-.128.182-.268.066-.14.216-.232.347-.102a.388.388 0 0 1 .082.157c.128.414.078.857.078 1.289a.595.595 0 0 0 .026.201c.032.064.07.125.113.182a.358.358 0 0 1 .024.048c.072.196.094.406.065.613Z" fill="#514E7F"/><path d="M180.515 135.303a.547.547 0 0 1-.098.365.506.506 0 0 1-.21.122c-1.16.414-2.495-.104-3.648.306-.239.084-.463.204-.702.285a3.837 3.837 0 0 1-.87.155c-.411.04-.821.064-1.231.075a3.012 3.012 0 0 1-.927-.081 1.116 1.116 0 0 1-.711-.563.544.544 0 0 1-.035-.402.44.44 0 0 1 .075-.129c.069.142.118.328.16.396a.817.817 0 0 0 .547.392c.168.009.335-.013.495-.064 1.05-.261 2.167-.264 3.174-.658a7.553 7.553 0 0 1 1.039-.4 8.296 8.296 0 0 1 1.124-.091c.593-.048 1.165-.226 1.751-.319.072.195.096.405.067.611Z" fill="#464353"/><path d="M195.591 132.169c-.054.44-.334.819-.64 1.14a7.349 7.349 0 0 0-.894.98c-.303.459-.436 1.027-.826 1.415a2.244 2.244 0 0 1-.496.365 3.47 3.47 0 0 1-.644.295c-.582.183-1.209.144-1.824.101a1.65 1.65 0 0 1-.577-.113 1.781 1.781 0 0 1-.244-.148 1.157 1.157 0 0 1-.365-.378.378.378 0 0 1-.034-.272.62.62 0 0 1 .182-.266 4.24 4.24 0 0 1 .44-.396c.214-.139.407-.308.572-.503.102-.154.176-.325.221-.504.088-.312.142-.633.161-.957-.001-.215.022-.43.067-.64.093-.329.337-.626.308-.967a.251.251 0 0 1 .013-.146.22.22 0 0 1 .115-.071c.192-.075.393-.121.598-.137a.69.69 0 0 1 .547.217c.086.102.141.244.267.29a.43.43 0 0 0 .182 0c.307-.031.633-.069.868-.268a1.09 1.09 0 0 0 .365-.797c0-.113-.051-.232.122-.256.134-.018.238.121.305.212.267.312.466.675.586 1.067a.3.3 0 0 1 .111-.022.471.471 0 0 1 .398.205.788.788 0 0 1 .116.554Z" fill="#514E7F"/><path d="M195.591 132.169c-.054.44-.334.819-.64 1.14a7.349 7.349 0 0 0-.894.98c-.303.459-.436 1.026-.826 1.415a2.244 2.244 0 0 1-.496.365 3.47 3.47 0 0 1-.644.295c-.582.183-1.209.144-1.824.101a1.65 1.65 0 0 1-.577-.113 1.781 1.781 0 0 1-.244-.148 1.166 1.166 0 0 1-.365-.378.891.891 0 0 1 .376-.089c.272.014.469.27.73.348.364.112.729-.149 1.11-.239.245-.056.504-.04.743-.118.2-.078.386-.19.547-.332.222-.159.419-.349.586-.566a3.55 3.55 0 0 0 .344-.686c.198-.46.43-.904.695-1.329a.903.903 0 0 1 .143-.183c.056-.053.127-.091.182-.138.25-.183.354-.506.441-.805.024-.092.057-.182.099-.268a.471.471 0 0 1 .224.053.47.47 0 0 1 .174.151.79.79 0 0 1 .116.544Z" fill="#464353"/><path d="M169.387 93.206c.308.232.562.529.744.87.183.342 1.184 3.006 1.126 3.387.328-.332 1.63-.387 1.957-.717.138-.139.888-.832.999-.992.112-.16.947-.506 1.038-.67.341-.61-2.418-2.918-2.066-3.531.02-.028.03-.061.029-.095a.151.151 0 0 0-.046-.073 4.37 4.37 0 0 0-.799-.547 1.28 1.28 0 0 1-.609-.73c-.26.12-.498.281-.706.478-.505.432-1.002.874-1.492 1.328-.193.182-.562.414-.651.668-.09.253.292.474.476.624Z" fill="#A1616A"/><path d="M173.854 92.222a7.98 7.98 0 0 0-1.182.967c-.343.338-.668.73-.753 1.206-.035.182-.029.376-.059.563-.122.817-.831 1.418-1.143 2.19-.092.235-.159.48-.201.729a8.62 8.62 0 0 0-.142 1.434c0 .466.448.788.616 1.223.14.433.239.876.298 1.327.182.839.432 1.662.746 2.462.616 1.702 2.613 6.408 3.23 8.112 1.888-.475 6.915-1.564 8.586-2.554.558-.332-3.867-4.082-3.271-4.341a.3.3 0 0 0 .166-.126.287.287 0 0 0 0-.183c-.594-2.606-2.46-4.742-3.305-7.296-.294-.88-.821-1.632-1.222-2.471-.365-.76-.556-1.596-.989-2.317a1.533 1.533 0 0 0-.315-.396 1.96 1.96 0 0 0-.35-.21c-.239-.127-.469-.198-.71-.319Z" fill="#514E7F"/><path d="M169.487 92.908a2.955 2.955 0 1 0 0-5.91 2.955 2.955 0 0 0 0 5.91Z" fill="#A1616A"/><path d="M172.493 91.341a.995.995 0 0 1 1.111-.158.547.547 0 0 1 .33.532l1.46.022c.233-.005.466.016.694.064.23.05.436.18.581.365.018.023.038.05.067.056a.122.122 0 0 0 .068-.023c.225-.115.478-.16.729-.132.792.051 1.525.449 2.145.943a.7.7 0 0 1 .256.312c.051.166 0 .38.12.493 0 1.377.472 2.66.788 4 .055.239.285.448.443.636.197.208.357.447.474.708.267.695-.102 1.51.159 2.209.132.286.301.552.504.793.234.296.383.651.428 1.026.011.167-.011.335 0 .505.016.225.056.448.121.664.105.403.219.806.335 1.207.183.65.438 1.352 1.02 1.699-1.406.238-2.888.47-4.228-.017a2.204 2.204 0 0 1-.527-.264c-.484-.345-.717-.936-.925-1.492-.234-.626-.471-1.261-.518-1.927a2.192 2.192 0 0 0-.088-.629c-.137-.365-.498-.582-.83-.782a4.003 4.003 0 0 1-.997-.778 1.532 1.532 0 0 1-.405-1.167c.025-.206.105-.405.115-.613a.495.495 0 0 0-.285-.505c-1.023-.31-1.512-1.521-1.74-2.566a8.214 8.214 0 0 1-.132-1.642l-.012-1.056a1.391 1.391 0 0 1-.46-1.01c.017-.111.017-.224 0-.335a.935.935 0 0 0-.233-.364 3.08 3.08 0 0 1-.568-.774ZM169.345 94.721c-.033.33.042.668-.033.992-.029.125-.078.243-.115.365-.11.466-.062.955.137 1.39.198.432.436.844.71 1.231.094.132.17.275.228.425.047.159.076.322.087.488.072.66.189 1.314.349 1.959.138.561.319 1.129.689 1.574a.481.481 0 0 0 .285.193.507.507 0 0 0 .242-.051l.755-.286a.542.542 0 0 0 .183-.095.463.463 0 0 0 .106-.296c.052-.609-.13-1.213-.332-1.789-.613-1.74-1.427-3.417-1.824-5.217-.112-.503-.17-1.277-.537-1.669-.151-.164-.1-.095-.281 0a2.285 2.285 0 0 0-.264.14.868.868 0 0 0-.385.646Z" fill="#464353"/><path d="M171.621 98.023c.201 1.061.406 2.124.615 3.186l2.933-.769c.024-.307-.14-.591-.253-.878-.269-.671-.274-1.417-.491-2.107-.164-.525-.449-1.008-.602-1.537-.089-.307-.133-.628-.221-.936a7.274 7.274 0 0 0-.344-.892 5.7 5.7 0 0 0-.641-1.187c-.375.14-.775.302-.988.64a1.362 1.362 0 0 0-.183.63c-.051.661.183 1.323.108 1.976a5.832 5.832 0 0 0 .067 1.874Z" fill="#00BAFC"/><path d="M175.218 112.176c.165.627-.074 1.276-.268 1.9a14.802 14.802 0 0 0-.598 2.862c-.011.25-.06.496-.148.73-.108.2-.227.395-.355.583-.296.522-.289 1.161-.225 1.757.042.394.106.786.183 1.175.096.472.215.968.076 1.43.232-.051.391.248.381.487-.009.239-.093.494.021.704.288.104.291.5.282.804.005.532.071 1.061.199 1.576.435 2.091.898 4.176 1.386 6.255 1.056.328 2.29.669 3.296.215a.643.643 0 0 0 .418-.419.752.752 0 0 0-.04-.323l-.478-1.737a3.2 3.2 0 0 1-.171-1.277c.047-.322.182-.669.029-.952-.055-.096-.139-.182-.201-.266-.252-.365-.12-.855-.098-1.301.007-.099 0-.199-.022-.297a1.545 1.545 0 0 0-.141-.326 4.992 4.992 0 0 1-.547-2.481.613.613 0 0 0-.044-.325.765.765 0 0 1-.08-.131.347.347 0 0 1 .026-.239 2.05 2.05 0 0 1-.385-.365.538.538 0 0 0 .245-.4.553.553 0 0 0-.154-.443.281.281 0 0 0 .216-.353.29.29 0 0 0-.081-.13c-.062-.044-.142-.062-.182-.124-.068-.091-.013-.221.041-.319l.292-.527c.217-.391.267-.874.5-1.255a9.404 9.404 0 0 0 .77-1.757l.832-2.316.565.49c.189.144.347.325.465.531.081.203.131.417.15.635.208 1.258 1.001 2.349 1.295 3.591.041.282.131.553.266.803.057.072.108.149.153.23.042.123.063.251.064.381a1.77 1.77 0 0 0 .75 1.277c.277.182.629.323.775.626.032.093.075.183.128.266.135.162.427.182.485.385.031.115-.029.25.036.35a.321.321 0 0 0 .137.102l.816.409c.912.454 1.371 1.495 2.044 2.26.233.247.438.518.611.81.29.518.425 1.169.912 1.503.131.068.251.157.354.262.155.203.099.487.112.743.012.255.209.558.452.481a1.756 1.756 0 0 0 0 .943 4.756 4.756 0 0 0 2.882-1.167c.237-.208.467-.473.469-.786a.315.315 0 0 0-.035-.157.43.43 0 0 0-.182-.139c-.761-.412-.991-1.368-1.372-2.145-.337-.684-.834-1.277-1.255-1.912-.912-1.368-1.521-3.022-2.891-3.927-.301-.199-.651-.375-.801-.704a5.583 5.583 0 0 1-.16-.583.49.49 0 0 0-.429-.365 2.58 2.58 0 0 0 .098-.912 1.128 1.128 0 0 0-.045-.392 1.846 1.846 0 0 0-.201-.387 3.75 3.75 0 0 1-.516-2.007c.011-.364.075-.729-.035-1.078-.054-.182-.149-.333-.217-.503a3.186 3.186 0 0 1-.157-.939l-.074-1.203a5.859 5.859 0 0 0-.155-1.187c-.254-.932-.497-4.837-1.356-5.277-.859-.44-2.325 2.565-3.283 2.625a4.334 4.334 0 0 0-1.255.241c-.64.24-1.178.689-1.702 1.129l-1.773 1.488a6.477 6.477 0 0 1-1.1.794ZM166.713 86.672a2.228 2.228 0 0 1 1.72-.84c.663 0 1.316.165 1.901.479.172.097.356.174.547.227.314.064.66-.021.943.128.376.199.447.706.414 1.13-.033.422-.111.886.113 1.249.078.104.151.212.217.324.07.228.063.472-.02.695a5.822 5.822 0 0 1-.365-.457c-.131-.145-.355-.243-.516-.135-.16.107-.16.306-.168.483-.007.177-.054.39-.222.449a.365.365 0 0 1-.365-.146c-.286-.35-.172-.912-.454-1.262-.163-.201-.431-.298-.58-.508-.117-.164-.146-.377-.248-.547-.103-.17-.342-.308-.502-.182a.687.687 0 0 0-.133.182.768.768 0 0 1-.912.274 1.609 1.609 0 0 0-.396-.17.487.487 0 0 0-.451.245.977.977 0 0 0-.118.521c0 .246.044.516-.099.717a.74.74 0 0 1-.211.182c-.21.134-.496.223-.693.072a.513.513 0 0 1-.155-.486c.037-.174.087-.345.147-.512.11-.387-.033-.823.088-1.188.128-.33.302-.642.518-.924Z" fill="#464353"/><path d="M168.296 95.487a.453.453 0 0 0 .028.272.442.442 0 0 0 .147.142c.421.261.9.416 1.394.45.064.003.126.02.182.05a.343.343 0 0 1 .082.388c-.057.13-.087.271-.087.413.036.26.345.38.607.412.365.075.745.001 1.056-.204.197-.18.347-.404.436-.655.717-1.642.969-3.466 1.695-5.107.056-.107.093-.222.109-.341a.34.34 0 0 0-.135-.316c-.135-.084-.344-.037-.436-.166-.045-.068-.04-.157-.08-.226-.084-.15-.303-.132-.454-.212-.117-.064-.199-.182-.328-.217a.42.42 0 0 0-.343.148c-.425.398-.65.961-.887 1.494a17.71 17.71 0 0 1-1.277 2.355c.057-.088-.27-.754-.397-.78-.223-.045-.511.347-.631.495a3.123 3.123 0 0 0-.681 1.605Z" fill="#00BAFC"/><path d="M184.021 97.822h-14.233v14.233h14.233V97.822Z" fill="#fff"/><path d="M183.906 105.662c-.244.216-.47.453-.675.708a1.41 1.41 0 0 0-.31.912.473.473 0 0 0 .088.266.227.227 0 0 0 .253.078.37.37 0 0 0 .125-.111c.131-.159.271-.311.419-.456.055-.053.124-.109.197-.089a.214.214 0 0 1 .086.056.58.58 0 0 1 .182.276.652.652 0 0 1-.193.53 1.378 1.378 0 0 0-.327.484.208.208 0 0 0 0 .155.253.253 0 0 0 .097.084 1.412 1.412 0 0 0 1.18.076c.254-.1.473-.275.73-.364.111-.03.219-.07.323-.121a.665.665 0 0 0 .286-.427c.032-.173.039-.351.02-.527a6.012 6.012 0 0 0-.439-1.988.242.242 0 0 0-.072-.106.252.252 0 0 0-.12-.034c-.319-.033-.845-.197-1.153-.079a.803.803 0 0 0-.272.243c-.071.064-.425.35-.425.434Z" fill="#A1616A"/><path d="M183.797 105.379c0-.306-.379-1.041.221-1.094 0-.325-.462-.529-.378-.872.029-.117.122-.21.137-.327.038-.334-.564-.514-.465-.835.036-.122.169-.197.199-.321.067-.288-.449-.418-.458-.713 0-.101.054-.196.051-.294 0-.126-.11-.221-.17-.328-.155-.279-.08-.712-.365-.854.183.015.254-.264.174-.436-.081-.171-.237-.32-.237-.509a.818.818 0 0 0 0-.21c-.053-.182-.352-.195-.402-.377a2.363 2.363 0 0 1 0-.206c-.018-.143-.164-.23-.301-.272a1.197 1.197 0 0 1-.401-.142c-.088-.068-.182-.183-.283-.119-.034.02-.053.06-.08.091-.111.13-.325.073-.467-.024-.418-.282-.624-.791-.715-1.287-.091-.496-.086-1.009-.195-1.501a3.5 3.5 0 0 0-.133-.45 2.269 2.269 0 0 1-.212-.448c-.022-.286.573-.091.799-.062.22.02.437.061.649.122.226.085.447.182.663.29.912.4 1.991.449 2.717 1.119.239.22.44.508.748.607.142.028.282.065.42.11.345.162.397.618.585.948.059.087.111.178.155.273.036.114.053.232.05.35l.025.867c.042 1.46.086 2.906-.069 4.349-.051.474-.122.965.016 1.422.037.124.09.243.121.365.029.149.045.299.047.451l.02.56a.178.178 0 0 1-.027.129.18.18 0 0 1-.072.035.18.18 0 0 1-.08.002c-.782-.07-1.57-.511-2.309-.245" fill="#464353"/><path d="M169.252 103.094a.24.24 0 0 0-.088.073.624.624 0 0 0 0 .74.237.237 0 0 1 .044.073.212.212 0 0 1-.022.124.405.405 0 0 0-.042.239c.01.082.044.159.099.221.056.047.133.071.169.133.064.106-.025.241-.01.365.018.162.209.242.364.262a.394.394 0 0 0 .356-.094.298.298 0 0 0 0-.323.838.838 0 0 0-.241-.241.368.368 0 0 0 .345-.334.518.518 0 0 0-.208-.454c-.033-.027-.073-.055-.082-.099-.009-.043.035-.104.075-.145.182-.183.323-.63-.02-.73a.848.848 0 0 0-.365.016c-.088.028-.088.081-.155.117-.068.037-.142.018-.219.057Z" fill="#A1616A"/><path opacity=".1" d="M172.836 90.495a.6.6 0 0 0-.463.233c-.115.188-.181.401-.193.62a5.453 5.453 0 0 1-.73 1.981M173.475 90.995a.708.708 0 0 0-.606.364 2.031 2.031 0 0 0-.153.619 3.352 3.352 0 0 1-.608 1.297" fill="#000"/><path d="M55.796 102.616c.106 1.153-.764 2.269-.51 3.396.054.241.158.469.196.711.104.67-.295 1.305-.676 1.865l-3.273 4.804c-.132.211-.29.405-.469.578-.627.548-1.565.498-2.387.664a4.11 4.11 0 0 0-1.598.708.104.104 0 0 0-.022.144 1.37 1.37 0 0 0 1.19.558c.085.113 0 .279-.12.365-.182.122-.417.153-.452.453a.49.49 0 0 0 .06.299.922.922 0 0 0 .573.397c1.133.347 2.359-.26 3.205-1.094.846-.834 1.46-1.873 2.291-2.718.462-.465.985-.866 1.46-1.319.948-.901 1.683-2.006 2.394-3.101.232-.319.407-.675.518-1.054.088-.376.048-.771.15-1.144.131-.485.489-.873.784-1.276.582-.799.969-1.779.892-2.764-.076-.985-.686-1.959-1.616-2.293a1.447 1.447 0 0 0-.912-.056c-.381.118-.662.434-.923.729l-.62.719a1.654 1.654 0 0 0-.365.547.577.577 0 0 0 .128.611" fill="#FBBEBE"/><path opacity=".05" d="M55.796 102.616c.106 1.153-.764 2.269-.51 3.396.054.241.158.469.196.711.104.67-.295 1.305-.676 1.865l-3.273 4.804c-.132.211-.29.405-.469.578-.627.548-1.565.498-2.387.664a4.11 4.11 0 0 0-1.598.708.104.104 0 0 0-.022.144 1.37 1.37 0 0 0 1.19.558c.085.113 0 .279-.12.365-.182.122-.417.153-.452.453a.49.49 0 0 0 .06.299.922.922 0 0 0 .573.397c1.133.347 2.359-.26 3.205-1.094.846-.834 1.46-1.873 2.291-2.718.462-.465.985-.866 1.46-1.319.948-.901 1.683-2.006 2.394-3.101.232-.319.407-.675.518-1.054.088-.376.048-.771.15-1.144.131-.485.489-.873.784-1.276.582-.799.969-1.779.892-2.764-.076-.985-.686-1.959-1.616-2.293a1.447 1.447 0 0 0-.912-.056c-.381.118-.662.434-.923.729l-.62.719a1.654 1.654 0 0 0-.365.547.577.577 0 0 0 .128.611" fill="#000"/><path d="M30.868 107.513c.183.577.365 1.153.586 1.715.403.974.911 1.901 1.516 2.765.389.569.807 1.117 1.253 1.642.558.658 1.182 1.32 1.379 2.161.115.485.076.994.124 1.491.047.496.21 1.023.61 1.32.306.189.65.302 1.008.332.252.04.567.053.698-.166a.621.621 0 0 0 .07-.288l.062-.73c.013-.157.067-.364.224-.364s.237.202.365.295a.396.396 0 0 0 .547-.182.913.913 0 0 0 .015-.639 3.027 3.027 0 0 0-1.556-1.928 4.63 4.63 0 0 1-.759-.396 2.587 2.587 0 0 1-.596-.751c-1.38-2.271-2.766-4.56-3.74-7.025a5.187 5.187 0 0 1-.385-1.384c-.02-.487 0-.975.06-1.459a8.355 8.355 0 0 0-.24-2.605 2.057 2.057 0 0 0-.25-.633c-.4-.609-1.343-.699-1.937-.279a2.004 2.004 0 0 0-.77 1.408c-.044.491.24 1.003.385 1.459.446 1.413.89 2.827 1.331 4.241Z" fill="#A1616A"/><path opacity=".05" d="M30.868 107.513c.183.577.365 1.153.586 1.715.403.974.911 1.901 1.516 2.765.389.569.807 1.117 1.253 1.642.558.658 1.182 1.32 1.379 2.161.115.485.076.994.124 1.491.047.496.21 1.023.61 1.32.306.189.65.302 1.008.332.252.04.567.053.698-.166a.621.621 0 0 0 .07-.288l.062-.73c.013-.157.067-.364.224-.364s.237.202.365.295a.396.396 0 0 0 .547-.182.913.913 0 0 0 .015-.639 3.027 3.027 0 0 0-1.556-1.928 4.63 4.63 0 0 1-.759-.396 2.587 2.587 0 0 1-.596-.751c-1.38-2.271-2.766-4.56-3.74-7.025a5.187 5.187 0 0 1-.385-1.384c-.02-.487 0-.975.06-1.459a8.355 8.355 0 0 0-.24-2.605 2.057 2.057 0 0 0-.25-.633c-.4-.609-1.343-.699-1.937-.279a2.004 2.004 0 0 0-.77 1.408c-.044.491.24 1.003.385 1.459.446 1.413.89 2.827 1.331 4.241Z" fill="#000"/><path d="M58.548 129.172c-.715.436-1.605.462-2.437.365-.133-.017-.291-.028-.377.076-.124.15.022.365.173.493a3.628 3.628 0 0 0 1.675.688c.544.076 1.092.112 1.641.109 1.494.026 2.995.049 4.475-.166a.6.6 0 0 0 .244-.071.465.465 0 0 0 .183-.281 1.119 1.119 0 0 0-.39-1.065 3.272 3.272 0 0 0-1.044-.56l-1.299-.505c-.305-.119-.795-.435-1.125-.409-.613.04-1.202 1.023-1.719 1.326Z" fill="#3F3D56"/><path d="M61.812 132.224a3.189 3.189 0 0 1-2.18.813c-.204 0-.489.039-.489.243.003.061.023.12.059.169.254.423.655.738 1.127.883a4.02 4.02 0 0 0 1.36.086l1.332-.069c.252-.013.505-.026.755-.057.25-.031.522-.082.783-.122.642-.091 1.29-.121 1.939-.091a.572.572 0 0 0 .478-.128c.118-.149.049-.365.01-.547-.08-.385 0-.79-.074-1.178-.128-.679-.712-1.201-1.36-1.447-.598-.228-1.66-.489-2.226-.109-.61.403-.976 1.067-1.514 1.554Z" fill="#3F3D56"/><path d="M59.181 114.994c-.547.72-1.094 1.552-.966 2.442.073.48.34.903.538 1.348a9.52 9.52 0 0 1 .547 1.893c.202.943.405 1.888.53 2.844.14 1.083.18 2.176.12 3.265-.017.263-.046.547-.229.73-.073.073-.168.133-.199.231a.393.393 0 0 0 .042.274 3.03 3.03 0 0 0 1.624 1.494c.704.27 1.452.41 2.207.412.1.012.201-.001.295-.038a.567.567 0 0 0 .228-.261c.548-1.04.243-2.295.252-3.466 0-.979.237-1.95.195-2.929-.034-.784-.244-1.55-.32-2.333-.127-1.277.109-2.572.344-3.84.182-.97.365-1.942.593-2.904a5.538 5.538 0 0 1 .627-1.685c.256-.403.602-.741.894-1.12a5.085 5.085 0 0 0 1-3.716c-.019-.131-1.88.471-2.04.548a6.32 6.32 0 0 0-1.824 1.169c-.43.409-.768.956-1.145 1.415a119.044 119.044 0 0 0-3.313 4.227Z" fill="#464353"/><path opacity=".05" d="M59.181 114.994c-.547.72-1.094 1.552-.966 2.442.073.48.34.903.538 1.348a9.52 9.52 0 0 1 .547 1.893c.202.943.405 1.888.53 2.844.14 1.083.18 2.176.12 3.265-.017.263-.046.547-.229.73-.073.073-.168.133-.199.231a.393.393 0 0 0 .042.274 3.03 3.03 0 0 0 1.624 1.494c.704.27 1.452.41 2.207.412.1.012.201-.001.295-.038a.567.567 0 0 0 .228-.261c.548-1.04.243-2.295.252-3.466 0-.979.237-1.95.195-2.929-.034-.784-.244-1.55-.32-2.333-.127-1.277.109-2.572.344-3.84.182-.97.365-1.942.593-2.904a5.538 5.538 0 0 1 .627-1.685c.256-.403.602-.741.894-1.12a5.085 5.085 0 0 0 1-3.716c-.019-.131-1.88.471-2.04.548a6.32 6.32 0 0 0-1.824 1.169c-.43.409-.768.956-1.145 1.415a119.044 119.044 0 0 0-3.313 4.227Z" fill="#000"/><path d="M63.132 109.452c.117.558.659.985.673 1.556.013.456-.312.839-.547 1.231a8.27 8.27 0 0 0-.558 1.266 19.295 19.295 0 0 1-1.642 3.26c-.312.496-.662 1.034-.589 1.616.05.272.145.533.283.772l.938 1.862c.205.372.365.767.477 1.176.082.354.09.73.137 1.08.148 1.142.682 2.291.365 3.398-.027.095-.128.21-.202.145.31.578.56 1.161.534 1.824-.011.344-.117.702.01 1.023.072.12.12.252.143.39 0 .093-.044.183-.053.276-.025.262.215.483.467.567.252.084.526.078.78.153.488.146.835.566 1.254.857a2.63 2.63 0 0 0 1.44.469.362.362 0 0 0 .21-.042.34.34 0 0 0 .12-.257 1.428 1.428 0 0 0-.517-1.242.567.567 0 0 1-.182-.201.486.486 0 0 1-.019-.224 16.634 16.634 0 0 0-.054-3.074 4.733 4.733 0 0 1-.048-.977c.054-.269.08-.542.079-.816a4.17 4.17 0 0 0-.25-.779c-.144-.465-.104-.964-.119-1.459a12.793 12.793 0 0 0-.412-2.497 1.895 1.895 0 0 0-.388-.901c-.196-.204-.511-.398-.436-.669a.771.771 0 0 1 .182-.267 1.066 1.066 0 0 0 .224-.815.364.364 0 0 0 .42-.197 6.568 6.568 0 0 0 3.298-3.75c.032-.118.082-.231.148-.334.14-.197.386-.283.603-.392.683-.343 1.153-.987 1.586-1.616.272-.352.479-.749.612-1.173.06-.278.087-.562.084-.847l.038-1.459a.834.834 0 0 0-.027-.286.728.728 0 0 0-.159-.234 2.83 2.83 0 0 0-1.557-.839c-.4-.071-.808-.058-1.213-.091-.785-.066-1.56-.308-2.346-.252-1.233.092-2.331.947-2.918 2.038-.216.39-.43.718-.869.731Z" fill="#464353"/><path d="M22.202 131.791c.27.094.556.128.84.101.02-.232.331-.283.563-.272a.639.639 0 0 1 .332.073c.058.036.102.091.159.129.1.056.213.084.328.084l1.208.102c.538.046 1.094.088 1.601-.105.101-.03.19-.09.257-.172.137-.195 0-.476-.182-.618-.183-.142-.432-.208-.622-.354-.42-.319-.476-.912-.699-1.394a4.045 4.045 0 0 0-.576-.837 3.231 3.231 0 0 0-.571-.584c-.483-.35-1.042-.342-1.609-.392-.401-.036-.779-.06-1.067.296-.356.441-.213 1.331-.192 1.859.022.699.099 1.397.23 2.084Z" fill="#514E7F"/><path opacity=".05" d="M22.202 131.791c.27.094.556.128.84.101.02-.232.331-.283.563-.272a.639.639 0 0 1 .332.073c.058.036.102.091.159.129.1.056.213.084.328.084l1.208.102c.538.046 1.094.088 1.601-.105.101-.03.19-.09.257-.172.137-.195 0-.476-.182-.618-.183-.142-.432-.208-.622-.354-.42-.319-.476-.912-.699-1.394a4.045 4.045 0 0 0-.576-.837 3.231 3.231 0 0 0-.571-.584c-.483-.35-1.042-.342-1.609-.392-.401-.036-.779-.06-1.067.296-.356.441-.213 1.331-.192 1.859.022.699.099 1.397.23 2.084Z" fill="#000"/><path d="M22.691 108.319c-.365.119-.529.579-.461.962.067.383.297.711.487 1.049.536.961.77 2.061 1.22 3.064.337.75.793 1.443 1.127 2.189.334.746.547 1.6.338 2.397-.099.388-.288.746-.416 1.125a6.38 6.38 0 0 0-.245 1.277 24.201 24.201 0 0 0-.087 4.407c.002.179.04.357.111.522.075.145.206.299.142.45-.025.06-.08.104-.107.164-.077.168.078.343.219.462a.374.374 0 0 1-.237.182.563.563 0 0 1 .238.624c-.125.018-.133.21-.052.31.08.1.202.164.259.277a.389.389 0 0 1-.214.489.998.998 0 0 1-.582.044 6.243 6.243 0 0 1-.974-.214.87.87 0 0 1-.299-.136.89.89 0 0 1-.268-.591 10.673 10.673 0 0 1-.067-1.824c.052-2.948 0-5.899-.128-8.845-.053-1.186-.409-2.342-.868-3.437a17.683 17.683 0 0 0-.847-1.641c-.66-1.215-1.247-2.554-1.094-3.931.016-.148.071-.327.217-.35a.313.313 0 0 1 .168.027c.305.144.6.307.884.489.468.275.995.433 1.536.459Z" fill="#464353"/><path opacity=".05" d="M22.691 108.319c-.365.119-.529.579-.461.962.067.383.297.711.487 1.049.536.961.77 2.061 1.22 3.064.337.75.793 1.443 1.127 2.189.334.746.547 1.6.338 2.397-.099.388-.288.746-.416 1.125a6.38 6.38 0 0 0-.245 1.277 24.201 24.201 0 0 0-.087 4.407c.002.179.04.357.111.522.075.145.206.299.142.45-.025.06-.08.104-.107.164-.077.168.078.343.219.462a.374.374 0 0 1-.237.182.563.563 0 0 1 .238.624c-.125.018-.133.21-.052.31.08.1.202.164.259.277a.389.389 0 0 1-.214.489.998.998 0 0 1-.582.044 6.243 6.243 0 0 1-.974-.214.87.87 0 0 1-.299-.136.89.89 0 0 1-.268-.591 10.673 10.673 0 0 1-.067-1.824c.052-2.948 0-5.899-.128-8.845-.053-1.186-.409-2.342-.868-3.437a17.683 17.683 0 0 0-.847-1.641c-.66-1.215-1.247-2.554-1.094-3.931.016-.148.071-.327.217-.35a.313.313 0 0 1 .168.027c.305.144.6.307.884.489.468.275.995.433 1.536.459Z" fill="#000"/><path d="M17.708 104.735a1.296 1.296 0 0 0-.642-.202 1.3 1.3 0 0 0-.699.346 7.353 7.353 0 0 0-.693.61 3.707 3.707 0 0 0-.828 3.668c.22.655.62 1.233 1.014 1.798l.803 1.153c1.224 1.758 2.45 3.517 3.732 5.233a.2.2 0 0 0 .04.114.2.2 0 0 0 .098.069c.048.012.104.011.133.049a.141.141 0 0 1 .017.078 1.189 1.189 0 0 1-.071.365.171.171 0 0 0-.015.126c.04.097.217.042.272.133.038.059 0 .137-.058.183-.059.045-.11.107-.1.182.008.075.13.144.125.235 0 .051-.044.09-.075.13a.33.33 0 0 0 .04.421c.084.839-.364 1.633-.461 2.472-.144 1.319.452 2.606.525 3.931-.003.148.025.296.082.434.125.228.442.365.43.625a2.393 2.393 0 0 1-.088.316c.002.151.018.302.047.45 0 .152-.128.332-.268.274.106.35.2.704.28 1.06l2.81.232c.03-.253.021-.509-.026-.759-.058-.27-.182-.524-.244-.794a.936.936 0 0 1 .111-.793.31.31 0 0 1-.31-.256 1.252 1.252 0 0 1 0-.436c.075-.729-.233-1.459-.224-2.188.009-.58.211-1.137.315-1.706.22-1.218-.009-2.541.533-3.648.328-.671.782-1.415.414-2.065-.183-.321-.502-.547-.71-.843a3.423 3.423 0 0 1-.38-.912c-.435-1.342-1.134-2.581-1.748-3.852a4.059 4.059 0 0 1-.376-1.012 5.149 5.149 0 0 1-.046-.934 14.305 14.305 0 0 0-.104-1.678 1.565 1.565 0 0 0-.204-.695 1.559 1.559 0 0 0-.438-.4c-.92-.627-2.019-.99-3.013-1.514Z" fill="#464353"/><path d="M21.073 132.82c.27.093.556.128.84.1.021-.231.331-.282.563-.271a.647.647 0 0 1 .323.074c.058.037.102.092.16.13.1.056.214.084.329.084l1.205.102c.539.046 1.095.088 1.604-.106.1-.03.189-.09.255-.171.137-.195 0-.476-.182-.619-.183-.142-.433-.208-.624-.353-.418-.32-.476-.912-.699-1.394a4.01 4.01 0 0 0-.576-.837 3.214 3.214 0 0 0-.57-.584c-.485-.35-1.04-.343-1.608-.392-.403-.037-.78-.06-1.067.295-.365.442-.215 1.332-.194 1.859.027.7.107 1.396.241 2.083Z" fill="#514E7F"/><path d="M50.537 111.663H36.304v14.233h14.233v-14.233Z" fill="#fff"/><path d="M33.52 99.872a2.782 2.782 0 1 0 0-5.563 2.782 2.782 0 0 0 0 5.563Z" fill="#A1616A"/><path d="M30.898 97.915c-.4.345-.97.365-1.494.423a9.338 9.338 0 0 0-3.214.93c-.137.061-.261.148-.365.256-.088.118-.15.254-.182.398-.096.312-.131.64-.106.966.036.317.127.626.268.912.386.8.983 1.48 1.726 1.967.126.092.268.16.419.2.365.077.72-.136 1.08-.231.329-.085.675-.074.998.033.302.1.622.284.912.162a.95.95 0 0 0 .415-.473c.285-.539.538-1.093.76-1.661.079-.22.171-.436.275-.646.323-.615.88-1.094 1.158-1.726a.379.379 0 0 0 .026-.324.45.45 0 0 0-.205-.157 4.875 4.875 0 0 1-1.11-.872c-.183-.182-.52-.65-.783-.691-.288-.039-.378.363-.578.534Z" fill="#A1616A"/><path d="M30.963 103.568c-.323.155-.702.086-1.052.013-.901-.183-1.812-.38-2.645-.77a1.421 1.421 0 0 1-.65-.498 1.592 1.592 0 0 1-.182-.624l-.153-1.034c-.053-.365.04-.697.047-1.062a.309.309 0 0 0-.06-.231.25.25 0 0 0-.182-.057c-.418 0-.67.443-.963.741-.169.171-.37.306-.591.397-.268.11-.599.183-.706.454-.046.112-.04.239-.086.351-.182.445-.985.297-1.187.729-.059.124-.055.281-.152.38-.096.098-.273.095-.42.12-.58.095-.862.766-1.358 1.082-.418.266-.956.261-1.405.469a5.483 5.483 0 0 1-.73.364c-.279.049-.563.063-.846.042a.25.25 0 0 0-.09.01.24.24 0 0 0-.08.045.234.234 0 0 0-.027.182 5.122 5.122 0 0 0 3.165 3.964c.095.031.186.074.27.13.254.182.297.596.584.729a.601.601 0 0 0 .609-.131c.156-.153.303-.315.44-.485a1.75 1.75 0 0 1 .979-.515c.345-.054.73-.014 1.009-.226.114-.105.22-.218.317-.339a2 2 0 0 1 .73-.431c.729-.281 1.499-.444 2.28-.481.73-.042 1.486.025 2.178-.214.18-.054.345-.147.485-.273.15-.161.26-.354.325-.564a4.302 4.302 0 0 0 .147-2.267Z" fill="#514E7F"/><path d="M27.377 99.47c.206-.019.412 0 .619 0 .242 0 .481-.06.73-.061a1.798 1.798 0 0 1 1.696 1.291.33.33 0 0 1 .01.183.13.13 0 0 1-.14.095c-.08-.22-.184-.43-.312-.626a1.772 1.772 0 0 0-.934-.65 2.425 2.425 0 0 0-1.149-.041 5.28 5.28 0 0 0-.467.115l-.757.204a4.473 4.473 0 0 0-.407.124c-.102.036-.279.182-.38.182-.136 0-.025-.118.036-.198.12-.166.29-.29.485-.352.311-.129.637-.218.97-.267Z" fill="#514E7F"/><path d="M29.252 107.825c.183.577.365 1.153.586 1.715.404.974.913 1.901 1.517 2.765.39.569.808 1.117 1.254 1.642.558.658 1.182 1.32 1.379 2.161.114.485.076.994.124 1.49.047.497.21 1.024.61 1.321.305.189.65.302 1.008.332.251.04.567.053.698-.166a.621.621 0 0 0 .07-.288l.06-.73c.014-.157.069-.365.226-.365s.237.203.365.296a.396.396 0 0 0 .547-.182.927.927 0 0 0 .015-.639 3.035 3.035 0 0 0-1.553-1.93 4.63 4.63 0 0 1-.759-.396 2.543 2.543 0 0 1-.596-.751c-1.38-2.271-2.767-4.56-3.74-7.025a5.187 5.187 0 0 1-.384-1.384c-.02-.487 0-.975.06-1.459a8.356 8.356 0 0 0-.235-2.609 2.06 2.06 0 0 0-.25-.633c-.4-.609-1.343-.698-1.937-.279a1.996 1.996 0 0 0-.77 1.409c-.044.49.24 1.003.385 1.459l1.32 4.246Z" fill="#A1616A"/><path d="M37.568 95.124c.022-.231-.182-.441-.421-.589a5.886 5.886 0 0 1-.715-.438c-.212-.182-.327-.421-.538-.603a2.373 2.373 0 0 0-.803-.4 6.096 6.096 0 0 0-1.919-.345 3.38 3.38 0 0 0-1.837.486 1.096 1.096 0 0 0-.312.29c-.08.142-.13.299-.151.461-.119.5-.279.987-.48 1.46-.206.525-.427 1.068-.912 1.473-.52.434-1.317.684-1.66 1.208a.393.393 0 0 0-.074.337c.049.132.207.22.352.305.844.485 1.572 1.112 1.948 1.864a2.16 2.16 0 0 1-.172 2.326c-.195.255-.465.558-.273.815.29.39 1.291.168 1.52.58a.824.824 0 0 1 .032.427c0 .432.418.819.925 1.018a5.143 5.143 0 0 0 1.663.273c.153-.339.168-.725.042-1.076a.428.428 0 0 1-.042-.244.592.592 0 0 1 .183-.236c.61-.576.481-1.424.115-2.108-.367-.684-.936-1.312-1.148-2.032-.105-.365-.107-.76.183-1.058.163-.143.338-.271.523-.383a1.99 1.99 0 0 0 .73-.912c.17-.474.144-1.045.644-1.36.5-.313 1.147-.21 1.674-.413.425-.17.89-.788.923-1.126Z" fill="#464353"/><path d="M53.166 99.14a3.033 3.033 0 1 0 0-6.066 3.033 3.033 0 0 0 0 6.067Z" fill="#FBBEBE"/><path d="M55.896 95.98a3.931 3.931 0 0 0 2.517 1.76l-.228.828c-.394 1.427-.839 2.937-1.94 3.926a1.838 1.838 0 0 0-.309-1.42 5.378 5.378 0 0 0-1.028-1.076l-1.746-1.52a.475.475 0 0 1-.131-.145.445.445 0 0 1 0-.332c.222-.693.857-1.126 1.371-1.593.26-.242.491-.511.692-.804.357-.492.581.005.802.376Z" fill="#FBBEBE"/><path d="M56.283 99.903c.017.227-.014.455-.09.67a.474.474 0 0 1-.547.281c.064-.144-.104-.309-.26-.29a.488.488 0 0 0-.347.293c-.105.21-.14.448-.1.679.049.288.215.563.171.852-.035.239-.212.478-.117.702.061.101.137.192.226.27a.766.766 0 0 1-.082 1.051l2.372.045c-.088.396.09.801.293 1.151a7.252 7.252 0 0 0 5.403 3.528.463.463 0 0 0-.226.332.472.472 0 0 0 .113.387c.193.191.518.167.759.043.228-.146.446-.309.651-.487.387-.277.86-.407 1.335-.365.298.028.584.123.881.139.876.048 1.63-.584 2.466-.841.615-.182 1.31-.182 1.825-.573.222-.164.404-.434.339-.704a1.149 1.149 0 0 0-.256-.412c-.297-.385-.47-.846-.684-1.277-.42-.863-1-1.639-1.709-2.287a15.037 15.037 0 0 0-1.692-1.286 2.843 2.843 0 0 0-.46-.275 4.727 4.727 0 0 1-.628-.256c-.279-.182-.437-.483-.65-.729-.47-.548-1.19-.797-1.768-1.228-.387-.288-.73-.668-1.191-.808-.225-.068-.466-.073-.69-.14-.51-.156-.883-.61-1.384-.792-.396-.146-.834-.108-1.253-.16a2.918 2.918 0 0 1-1.288-.488 1.546 1.546 0 0 0-.416-.244c-.633-.183-.684.989-.744 1.397-.095.597-.252 1.208-.252 1.822Z" fill="#3F3D56"/><path d="M56.901 103.863c.106 1.151-.764 2.268-.51 3.397.054.241.156.469.195.711.105.67-.294 1.302-.675 1.862l-3.284 4.805c-.13.212-.287.406-.466.578-.628.557-1.566.498-2.388.666a4.086 4.086 0 0 0-1.6.708.102.102 0 0 0-.038.067.105.105 0 0 0 .018.075 1.378 1.378 0 0 0 1.19.558c.085.113 0 .281-.12.365-.182.122-.417.155-.451.452a.507.507 0 0 0 .058.301.934.934 0 0 0 .574.398c1.133.347 2.357-.263 3.205-1.094.849-.832 1.46-1.874 2.291-2.718.462-.467.985-.867 1.46-1.319.946-.912 1.683-2.007 2.395-3.101a3.45 3.45 0 0 0 .517-1.056c.088-.374.048-.772.15-1.142.131-.487.487-.875.785-1.277.581-.801.968-1.778.891-2.765-.076-.987-.687-1.957-1.616-2.293a1.454 1.454 0 0 0-.912-.055c-.38.117-.662.433-.923.73l-.622.719a1.71 1.71 0 0 0-.364.547.574.574 0 0 0 .127.611" fill="#FBBEBE"/><path d="M58.558 99.134c-.43.025-.913.067-1.21.364a1.69 1.69 0 0 0-.303.478c-.295.6-.583 1.23-.603 1.899-.019.535.136 1.058.218 1.587.068.44-.103.888-.136 1.333a9.009 9.009 0 0 0 1.722-.662 5.796 5.796 0 0 1 1.008-.523c.513-.172 1.378.122 1.863.365.027-.343-.23-.94-.203-1.277.004-.145.03-.288.077-.425.072-.145.158-.282.257-.411a1.678 1.678 0 0 0-.151-1.971c-.433-.488-1.111-.67-1.759-.747a7.685 7.685 0 0 0-1.23-.041" fill="#3F3D56"/><path d="m49.17 93.058-.07-.571c.48.122.934-.283 1.24-.704.307-.422.59-.912 1.054-1.095.568-.213 1.168.128 1.71.409a5.35 5.35 0 0 0 1.96.65c.11.004.22.022.325.052.352.126.52.567.571.969.051.4.037.828.21 1.185.133.27.365.473.496.73.365.717.013 1.698.405 2.402l-.972-.89c-.09-.082-.215-.168-.312-.098-.097.069-.084.182-.117.268a.509.509 0 0 1-.691.251 1.895 1.895 0 0 1-.619-.565 3.779 3.779 0 0 0-1.543-1.17 1.971 1.971 0 0 0-1.632.097c-.455.258-.786.854-1.343.874-.762.03-1.08-1.39-1.432-1.95a.692.692 0 0 0 .201-.86c.053-.019.547-.072.558.016Z" fill="#464353"/><path d="M117.794 56.96a3.352 3.352 0 0 1-.953.26c.346-.206.605-.53.73-.911-.326.193-.682.33-1.054.403a1.656 1.656 0 0 0-2.869 1.132 1.67 1.67 0 0 0 .041.38 4.7 4.7 0 0 1-3.418-1.737 1.667 1.667 0 0 0 .515 2.218 1.618 1.618 0 0 1-.754-.208v.02a1.666 1.666 0 0 0 1.332 1.63 1.618 1.618 0 0 1-.75.027 1.668 1.668 0 0 0 1.551 1.153 3.33 3.33 0 0 1-2.457.687c.755.491 1.638.752 2.539.75 3.055 0 4.724-2.53 4.724-4.726v-.214c.323-.237.602-.53.823-.864ZM111.765 92.673l.547 1.373 3.574 3.789 1.196-1.127.754.797.797-.754.045-1.548.996-.942.08-2.712-3.197-3.389-4.792 4.513Zm7.205-.76-.045 1.551-1.197 1.128-.046 1.55-.751-.797-.998.941-3.205-3.39 3.789-3.574 2.453 2.592Z" fill="#00BAFC"/><path d="m116.061 91.236.598-.564 1.518 1.607-.599.562-1.517-1.605Zm-1.396 1.316.599-.565 1.515 1.609-.598.563-1.516-1.607ZM45.643 114.364h-5.851a.367.367 0 0 0-.365.365v5.854a.366.366 0 0 0 .365.364h2.918v-2.606h-.786v-.96h.8v-.709c0-.848.59-1.312 1.349-1.312.365 0 .755.028.844.04v.887h-.604c-.412 0-.492.195-.492.483v.611h.983l-.128.96h-.857v2.605h1.824a.367.367 0 0 0 .365-.365v-5.852a.366.366 0 0 0-.365-.365ZM96.804 72.594a1.373 1.373 0 0 1 1.37 1.37V76.7a1.374 1.374 0 0 1-1.37 1.37h-2.736a1.376 1.376 0 0 1-1.371-1.37v-2.737a1.373 1.373 0 0 1 1.371-1.37h2.736Zm0-.548h-2.736a1.924 1.924 0 0 0-1.919 1.92V76.7a1.924 1.924 0 0 0 1.92 1.92h2.735a1.924 1.924 0 0 0 1.92-1.912v-2.736a1.926 1.926 0 0 0-1.92-1.927Z" fill="#00BAFC"/><path d="M97.215 73.967a.413.413 0 0 1-.294-.704.413.413 0 1 1 .294.704Zm-1.775.268a1.095 1.095 0 1 1 0 2.19 1.095 1.095 0 0 1 0-2.19Zm0-.547a1.642 1.642 0 1 0 0 3.284 1.642 1.642 0 0 0 0-3.284ZM181.479 103.033c0-.769-.568-1.39-1.277-1.39a61.492 61.492 0 0 0-2.906-.062h-.308c-.987 0-1.957.017-2.906.062-.699 0-1.266.622-1.266 1.394-.044.611-.062 1.22-.06 1.824.002.604.016 1.22.058 1.824 0 .772.568 1.397 1.266 1.397.996.046 2.019.066 3.059.066s2.061-.018 3.061-.066c.7 0 1.277-.625 1.277-1.397a29.068 29.068 0 0 0 .002-3.657v.005Zm-5.168 3.515v-3.367l2.484 1.682-2.484 1.685ZM90.88 38.484a3.83 3.83 0 0 0-1.54 7.353 3.415 3.415 0 0 1 .066-.881c.075-.312.494-2.093.494-2.093a1.46 1.46 0 0 1-.124-.605c0-.57.33-.994.74-.994.35 0 .519.262.519.576 0 .35-.225.876-.34 1.36a.594.594 0 0 0 .606.74c.73 0 1.217-.934 1.217-2.041 0-.841-.568-1.469-1.596-1.469a1.824 1.824 0 0 0-1.89 1.837c-.012.274.078.542.254.753a.183.183 0 0 1 .054.214l-.078.308a.134.134 0 0 1-.133.112.133.133 0 0 1-.06-.015c-.537-.22-.787-.807-.787-1.46 0-1.094.912-2.396 2.736-2.396 1.46 0 2.43 1.06 2.43 2.198 0 1.504-.837 2.63-2.072 2.63a1.094 1.094 0 0 1-.936-.478s-.224.883-.272 1.054a3.162 3.162 0 0 1-.385.823 3.842 3.842 0 1 0 1.096-7.526Z" fill="#00BAFC"/><path d="M131.051 144.739a18.963 18.963 0 0 1-.237-1.173 2.438 2.438 0 0 0-.272-1.191V140.944c.086-.228.192-.448.317-.658.226-.394 0-1.842 0-1.842s-.839-2.041-.636-3.336c.202-1.296-1.722-5.752-1.722-5.752.012-.431.073-.859.182-1.277a.914.914 0 0 0 .024-.299v.011c-.029-.853-.704-2.455-.704-2.455l.091-3.05s.431-1.8-.272-4.215a22.322 22.322 0 0 1-.503-2.038l-.031-.169c1.446-.221 2.553-.405 2.553-.405s-.839-3.511-1.406-4.126c-.567-.615-1.02-2.545-1.02-2.545s-.295-2.48.183-3.205c.478-.724.547-1.975.547-1.975s1.095-.79 1.224-1.142c.193-.5.316-1.024.365-1.558 0-.417-.137-.789-.091-1.01.045-.22-.318-1.053-.135-1.448a1.058 1.058 0 0 0 .071-.393 5.401 5.401 0 0 0-.097-1.03 2.92 2.92 0 0 0-1.076-.577l-.024-.093-.062-.246a.839.839 0 0 0-.107-.064V95.591l.169-.802c.336-1.392-1.525-1.6-1.525-1.6a.979.979 0 0 0-.527-.463c-.365-.132-.062 2.097.113 2.24.132.105.547.806.73 1.149l.033.056a.749.749 0 0 0-.086.09l.071.483.011.075a1.985 1.985 0 0 0-.297.505s.341.374.272.792c-.027.326.012.654.113.965-.02-.024-.259-.283-.498-.22-.239.065-.912.263-.912.263s-.5.088-.455.198c.046.109-.339.592-.339.592l-1.341-1.276-.04-.116a3.096 3.096 0 0 1-.115-.547c.146-.034.289-.08.427-.136a.924.924 0 0 0 .365-.238c.113-.175.186-.372.215-.578.106-.39.334-.739.498-1.109a3.6 3.6 0 0 0 .259-1.979 1.313 1.313 0 0 0-.204-.584c-.219-.3-.617-.423-.912-.664-.296-.24-.474-.605-.812-.786a1.6 1.6 0 0 0-1.018-.087c-.67.109-1.314.343-1.898.69-.197.116-.411.25-.637.209a.86.86 0 0 1-.458-.336.068.068 0 0 1 0-.02l-.016-.016a2.392 2.392 0 0 0-.208 1.003v.215a.375.375 0 0 1-.011.119.52.52 0 0 1-.124.182.832.832 0 0 0-.11.15c0-.018.011-.037.019-.055a.796.796 0 0 0-.141.421c-.007.11.03.22.102.303.067.068.139.13.217.183a2.592 2.592 0 0 0 1.224 2.658l.046.114c.194.46.277.96.243 1.46 0 .036 0 .07-.017.107l-.047.055s-2.215.022-2.736-.45c-.522-.473-1.316 1.152-1.316 1.152s-.793.155-.952 0c-.158-.155-1.094-.022-1.094-.022a2.008 2.008 0 0 0-1.383-.503 4.067 4.067 0 0 0-1.016-.566l-.025-.009a1.136 1.136 0 0 0-.5-.062s-1.094-.9-1.405-1.383c-.31-.481-1.824-2.274-1.836-2.283v-.086l-.019-.26a.996.996 0 0 1-.135.012c0-.027-.018-.057-.031-.091a4.863 4.863 0 0 0-.321-.73s0-.328.097-.41c.097-.082-.04-1.29-.04-1.29s-.981-2.293-1.859-.582c0 0-1.662 1.108-.268 2.399 0 0 .547.268.635.481.053.14.241.528.365.785l.056.115-.016.013.022.215v.084c-.263.147-.44.295-.398.408.078.19.131.39.159.593 0 0 1.928 2.413 2.178 3.446 0 0 5.169 3.071 6.869 3.292l-.294 1.536c-.044.416-.066.833-.067 1.251.022.329-.204 1.824-.204 1.824s-.296 2.189-.548 2.501c-.251.312-.204 1.625-.204 1.625-.059.63-.173 1.254-.339 1.864-.25.836-.068 1.866-.068 1.866s-.863 1.976 1.202.637c0 0 1.013-.062 2.189-.102v.6c-.014 1.131-.022 2.69.029 3.871.092 2.085.73 6.201.73 6.201v2.073a2.87 2.87 0 0 0-.058.592 3.834 3.834 0 0 0 .558 2.076l.158 1.383s.365.912.38 1.459a.723.723 0 0 1-.017.131c-.013.07-.019.141-.018.212-.02.627.365 2.13.365 2.13s.024 1.514.25 1.602c.193.075-.259.874-.394 1.094a.329.329 0 0 1-.009-.043l-.028.045a1.066 1.066 0 0 0-.071.383.553.553 0 0 0 .252.533c.431.264.662.483.297.571-.134.02-.268.048-.399.084 0-.017-.015-.035-.02-.051a.236.236 0 0 0-.113.103.238.238 0 0 0-.029.15c.004.18.05.355.136.513.16.396.366.772.613 1.12l.183-.02a.861.861 0 0 1-.103.182.702.702 0 0 1-.255.226.814.814 0 0 1-.31.108.875.875 0 0 0-.355.086.875.875 0 0 0-.287.226c-.226.292-.365.691.078 1.041l1.622.558s2.789.365 2.641-.262c-.148-.628-.237-1.173-.237-1.173a2.476 2.476 0 0 0-.228-1.111 1.184 1.184 0 0 0-.098-.164l.098-.011s.204-1.383.476-1.642c.064-.06.079-.107.062-.144.029-.075-.042-.118-.133-.144l-.02.055a1.29 1.29 0 0 0-.27-.029s-.091-.73.202-.989a.274.274 0 0 0 .059-.215c.001-.1-.009-.199-.031-.296l-.011.019a10.645 10.645 0 0 0-.651-1.702s-.022-.659.158-.923c.181-.265-.022-3.577-.022-3.577s.068-1.602-.136-2.348c-.205-.746.25-1.625.25-1.625V129.426l-.028-.254v.016a29.156 29.156 0 0 0-.195-1.546c-.091-.506.022-2.919.022-2.919l.409-1.03.729 1.776.77 2.371c.22.294.355.642.392 1.007v.075a1.406 1.406 0 0 0 0 .159c-.013.299.07.595.235.844 0 0 .205 1.12.522 1.405.317.284.317.834.317.834s.385 1.625.568 1.909c.153.241.16.901.158 1.095v.06s.053.58.051 1.069v.182-.013c0 .133-.016.265-.047.394v.024-.082c-.081.331-.12.671-.117 1.012-.011.584.079 1.277.433 1.68.612.703.997.615.997.615s-.295.877-.658 1.054a.245.245 0 0 0-.038.024c0-.016 0-.035-.01-.051a.431.431 0 0 0-.105.328c.016.469.172.922.448 1.301a.729.729 0 0 0 .307.182l-.057.035a1.453 1.453 0 0 1-.126.06.57.57 0 0 1-.182.048.859.859 0 0 0-.642.311c-.226.292-.365.692.078 1.042l1.622.558s2.754.372 2.614-.262Z" fill="url(#b)"/><path d="m120.398 145.775-1.57-.559c-.432-.35-.294-.749-.075-1.041a.82.82 0 0 1 .62-.312.752.752 0 0 0 .301-.108.699.699 0 0 0 .248-.226c.117-.181.18-.392.183-.607 0 0 1.723-.504 2.189 0 .084.091.155.194.209.306.155.349.23.729.219 1.111 0 0 .088.547.23 1.173.142.626-2.554.263-2.554.263ZM128.079 145.009l-1.568-.559c-.434-.35-.296-.749-.077-1.039a.826.826 0 0 1 .622-.314.583.583 0 0 0 .183-.048.96.96 0 0 0 .12-.06c.44-.241.429-.833.429-.833s1.721-.506 2.188 0c.064.068.119.143.165.224.185.37.276.78.264 1.193 0 0 .088.547.23 1.173.142.626-2.556.263-2.556.263Z" fill="#2D293D"/><path opacity=".1" d="M122.295 142.922c.085.091.155.194.21.306l-2.583.299c.117-.181.18-.392.183-.607 0 0 1.72-.502 2.19.002ZM130.142 142.373v.483c-.401.662-2.343.518-2.907.183a1.04 1.04 0 0 0 .12-.061c.44-.24.429-.833.429-.833s1.722-.506 2.189 0c.065.069.122.145.169.228Z" fill="#000"/><path d="M130.451 140.288c-.121.21-.224.431-.308.658v1.735c-.438.73-2.722.483-3.028.088-.307-.396-.637-1.427-.287-1.602.35-.175.637-1.054.637-1.054s-.365.087-.965-.615-.416-2.26-.307-2.634c.11-.374 0-1.623 0-1.623s.022-.878-.153-1.164c-.175-.286-.547-1.91-.547-1.91s0-.547-.306-.833c-.307-.287-.506-1.405-.506-1.405a1.445 1.445 0 0 1-.219-.943c.066-.547-.374-1.142-.374-1.142l-.746-2.371-.702-1.779-.394 1.031s-.111 2.415-.022 2.919c.09.503.219 1.842.219 1.842s-.439.879-.241 1.625c.199.746.132 2.348.132 2.348s.197 3.314.022 3.578c-.176.265-.154.912-.154.912s.9 1.932.613 2.189c-.286.257-.197.989-.197.989s.615 0 .352.263c-.262.262-.461 1.641-.461 1.641l-2.658.336a5.616 5.616 0 0 1-.594-1.12c-.351-.812.065-.73.419-.812.354-.082.13-.306-.288-.571-.418-.264-.183-.855-.183-.855s.637-1.076.418-1.164c-.219-.088-.242-1.602-.242-1.602s-.438-1.8-.329-2.281c.11-.482-.352-1.642-.352-1.642l-.153-1.383a3.797 3.797 0 0 1-.474-2.615v-2.136s-.615-4.126-.704-6.202c-.055-1.335-.041-3.158-.022-4.296.011-.636.022-1.06.022-1.06l9.485-.986c.015.473.073.945.173 1.408.097.52.248 1.195.485 2.037.681 2.414.265 4.214.265 4.214l-.088 3.05s.834 2.041.659 2.736c-.109.417-.17.846-.183 1.277 0 0 1.866 4.456 1.669 5.751-.197 1.295.617 3.327.617 3.327s.219 1.459 0 1.846Z" fill="#464353"/><path opacity=".05" d="m125.03 128.855 2.878-.385s-1.627 1.667-2.878.385Z" fill="#000"/><path opacity=".1" d="M127.498 125.65s.1 1.019-.526 1.404c0 0 1.118-.175.526-1.404ZM127.321 122.401s-2.412 1.987-3.284 1.824c-.872-.162 3.284-1.824 3.284-1.824ZM121.451 129.787s-1.824.417-1.886 1.153c-.062.735 1.886-1.153 1.886-1.153Z" fill="#000"/><path opacity=".05" d="M121.854 138.938s-2.588.483-1.853.814c.63.249 1.28.446 1.942.591 0 0 .834.043-.089-1.405Z" fill="#000"/><g opacity=".05" fill="#000"><path opacity=".05" d="M119.477 140.266a.516.516 0 0 1-.237-.376l-.025.048s-.243.591.182.855c.047.029.093.06.135.089.077-.014.16-.025.239-.045.346-.08.124-.301-.294-.571ZM122.813 140.098c.071-.066.068-.235.026-.452a1.228 1.228 0 0 0-.148.636.487.487 0 0 1 .122-.184ZM122.414 129.179a2.98 2.98 0 0 0-.182.807c.05-.189.117-.372.2-.548 0 0 .004-.105-.018-.259ZM128.344 128.027c.017-.079.025-.16.024-.241a5.769 5.769 0 0 0-.071.45c.014-.069.029-.138.047-.209ZM122.352 136.983c.051-.157.073-.322.066-.487a1.598 1.598 0 0 0-.126.614.614.614 0 0 1 .06-.127ZM122.895 141.12c-.135.44-.236.891-.301 1.348l-2.653.308a5.466 5.466 0 0 1-.595-1.12 2.264 2.264 0 0 1-.075-.193c-.159.073-.222.237-.013.729.154.395.354.77.595 1.118l2.652-.308s.199-1.383.462-1.642c.129-.14.047-.206-.072-.24ZM119.39 137.178s.022 1.516.24 1.603c.112-.25.183-.487.086-.527-.219-.088-.241-1.601-.241-1.601s-.439-1.801-.328-2.284c.111-.484-.352-1.642-.352-1.642l-.153-1.382a3.811 3.811 0 0 1-.484-2.613V126.6s-.614-4.126-.702-6.211c-.056-1.335-.04-3.157-.022-4.295v-.548h-.075s-.01.422-.021 1.06c-.019 1.137-.035 2.961.021 4.296.088 2.085.703 6.211.703 6.211v2.128a3.798 3.798 0 0 0 .494 2.634l.153 1.383s.462 1.162.35 1.642c-.111.479.331 2.278.331 2.278ZM127.202 142.183a2.54 2.54 0 0 1-.419-1.043c-.272.244.04 1.194.332 1.57.291.376 2.59.637 3.029-.089v-.418c-.594.589-2.65.354-2.942-.02ZM130.538 139.702c-.12.211-.222.431-.306.659v.308c.049-.113.12-.263.219-.44.07-.173.103-.36.096-.547l-.009.02ZM127.337 140.049c.084-.169.156-.343.217-.522 0 0-.365.088-.967-.614-.43-.511-.454-1.476-.394-2.107-.109.374-.286 1.931.307 2.634.388.461.678.58.837.609ZM126.193 135.182c.038.433.053.867.044 1.301.015-.086.031-.155.044-.204.111-.365 0-1.624 0-1.624s.022-.879-.153-1.164c-.175-.284-.548-1.909-.548-1.909s0-.548-.306-.834c-.306-.286-.505-1.404-.505-1.404a1.434 1.434 0 0 1-.221-.943c.068-.548-.365-1.142-.365-1.142l-.746-2.372-.711-1.767-.396 1.03s0 .13-.013.334l.321-.837.703 1.777.746 2.371s.437.593.364 1.14c-.033.328.048.658.228.934 0 0 .197 1.118.504 1.404.306.287.308.834.308.834s.365 1.623.547 1.91c.183.286.155 1.165.155 1.165Z"/></g><path d="m128.036 94.802-.164.802.009.365v.263l-.912.094-.103-.182c-.182-.343-.583-1.041-.711-1.15-.17-.141-.471-2.37-.109-2.237.221.085.403.25.51.461 0 0 1.804.19 1.48 1.584Z" fill="#FFCDD3"/><path opacity=".1" d="m127.888 96.222-.912.095-.102-.182a.806.806 0 0 1 1.01-.166l.004.253Z" fill="#000"/><path d="m128.118 96.656-1.206.281-.025-.182-.07-.483a.839.839 0 0 1 .551-.325.833.833 0 0 1 .618.164l.061.246.071.3Z" fill="#DCE6F2"/><path d="m108.557 94.89-1.288.692-.117-.244a27.945 27.945 0 0 1-.365-.783c-.076-.213-.614-.483-.614-.483-1.35-1.29.257-2.397.257-2.397.852-1.713 1.8.58 1.8.58s.132 1.21.038 1.29c-.093.08-.093.412-.093.412.124.235.228.479.312.73.05.127.07.202.07.202Z" fill="#FFCDD3"/><path opacity=".1" d="m108.557 94.889-1.288.693-.117-.244c.183-.152.826-.675 1.038-.651.102.01.205.01.306 0 .041.127.061.202.061.202Z" fill="#000"/><path d="m108.688 95.28-1.448.713-.03-.312-.02-.214s.839-.72 1.095-.693c.126.018.253.018.379 0l.017.261.007.244Z" fill="#DCE6F2"/><path d="M124.524 100.124s-6.316.713-5.136.33c.823-.268 1.149-.79 1.218-1.37a3.324 3.324 0 0 0-.235-1.459 6.384 6.384 0 0 0-.565-1.142s4.828-2.656 3.863-.24a3.79 3.79 0 0 0-.274 1.143c-.029.39.012.782.123 1.157.183.61.531 1.157 1.006 1.581Z" fill="#FFCDD3"/><path opacity=".1" d="M123.669 96.24c-.15.365-.243.751-.274 1.144-.456.382-.954.365-1.594.365-.492 0-1.038.12-1.43-.117a6.387 6.387 0 0 0-.565-1.142s4.828-2.664 3.863-.25Z" fill="#000"/><path d="M121.715 97.91a2.612 2.612 0 1 0 0-5.224 2.612 2.612 0 0 0 0 5.224Z" fill="#FFCDD3"/><path opacity=".1" d="M124.524 100.124s-6.316.713-5.136.33c.823-.268 1.149-.79 1.218-1.37.314-.34.945-.587 1.352-.716.37-.125.77-.131 1.144-.019.147.04.287.101.416.183a3.443 3.443 0 0 0 1.006 1.592ZM128.118 96.656l-1.206.281-.025-.182a1.06 1.06 0 0 1 1.16-.398l.071.3ZM108.688 95.28l-1.448.713-.03-.312c.47-.252.958-.468 1.46-.646l.018.244ZM127.023 116.041c-2.446.385-5.928.888-6.481.72-.457-.14-1.92-.126-3.195-.082.011-.636.022-1.06.022-1.06l9.485-.986c.014.473.07.944.169 1.408Z" fill="#000"/><path d="M129.462 115.459s-8.055 1.383-8.92 1.118c-.864-.264-5.302.024-5.302.024-1.997 1.337-1.162-.637-1.162-.637s-.182-1.032.066-1.866c.161-.612.27-1.236.328-1.866 0 0-.044-1.317.197-1.623.241-.307.527-2.503.527-2.503s.221-1.492.199-1.824c-.022-.332.066-1.249.066-1.249l.284-1.538c-1.641-.219-6.65-3.293-6.65-3.293-.241-1.03-2.107-3.445-2.107-3.445a2.53 2.53 0 0 0-.153-.593c-.132-.35 1.844-1.052 1.844-1.052s1.47 1.8 1.776 2.281c.307.482 1.361 1.383 1.361 1.383.164-.016.33.005.484.064h.025c.353.139.684.329.981.563a1.9 1.9 0 0 1 1.339.506s.901-.132 1.055.022c.153.153.912 0 .912 0s.769-1.624 1.276-1.153c.508.47 2.647.45 2.647.45.287-.379.98-.65 1.416-.791.37-.125.769-.131 1.143-.018.163.045.316.12.453.218l1.298 1.277s.365-.483.331-.593c-.035-.109.439-.197.439-.197s.637-.197.878-.264c.24-.067.463.197.481.219a2.563 2.563 0 0 1-.109-.965 1.095 1.095 0 0 0-.263-.79c.775-1.875 2.51-.288 2.51-.288s.197 1.03.022 1.426c-.175.396.182 1.23.131 1.449-.051.219.088.592.088 1.008a6.011 6.011 0 0 1-.351 1.56c-.133.35-1.185 1.14-1.185 1.14s-.066 1.251-.527 1.975c-.462.725-.183 3.205-.183 3.205s.438 1.932.987 2.554c.549.622 1.368 4.106 1.368 4.106Z" fill="#3F3D56"/><path opacity=".1" d="M117.721 101.025s-.241-.73-.462-.792a5.08 5.08 0 0 1-.636-.284l.142-.27s.824.226.956.467c.131.241 0 .879 0 .879ZM113.316 99.422c-.044.22-1.996.418-1.996.418l.987-.991.025.01c.354.138.685.328.984.563Z" fill="#000"/><path d="M107.657 96.585a.175.175 0 1 0 0-.35.175.175 0 0 0 0 .35ZM107.882 96.937a.175.175 0 0 0 0-.35.175.175 0 1 0 0 .35ZM108.102 97.26a.176.176 0 0 0 .176-.175.176.176 0 0 0-.351 0c0 .097.079.175.175.175ZM108.332 97.612a.175.175 0 1 0 0-.35.175.175 0 0 0 0 .35ZM129.021 97.56a.142.142 0 1 0 0-.285.142.142 0 0 0 0 .284ZM129.043 97.884a.142.142 0 1 0 0-.285.142.142 0 0 0 0 .285ZM129.061 98.207a.142.142 0 0 0 0-.285.142.142 0 0 0-.142.143c0 .078.063.142.142.142Z" fill="#575988"/><path opacity=".1" d="M117.732 106.972c-.02-.026 4.925 6.221 8.768 2.612 0 0-6.071.822-8.768-2.612ZM114.89 110.22s2.96.08 3.27.932v.887a.569.569 0 0 1-.547 0c-.299-.161-2.088-1.071-2.72-.633l-.003-1.186Z" fill="#000"/><path d="M114.944 110.22s2.831.077 3.129.888v.847a.554.554 0 0 1-.527 0c-.287-.155-2.007-1.022-2.602-.604v-1.131Z" fill="#3F3D56"/><path opacity=".1" d="M116.506 103.785a9.52 9.52 0 0 0 1.147 1.968 7.687 7.687 0 0 0 1.799 1.737s-2.897-3.291-2.946-3.705ZM115.537 100.352s.495 2.132 1.766 2.857l-1.766-2.857ZM114.775 100.567c-.013-.04-.44 1.686 1.641 2.641 0 0-.879-.299-1.641-2.641ZM127.707 99.137c-.032 0 1.025.675 1.314.987 0 0-.688-1.03-1.314-.987Z" fill="#000"/><path d="M121.009 97.663a.56.56 0 0 0 .203.354.57.57 0 0 0 .246.055c.797.05 1.625.084 2.371-.222a.883.883 0 0 0 .365-.24c.105-.175.171-.37.194-.574.104-.39.324-.73.483-1.11a3.732 3.732 0 0 0 .257-1.99 1.336 1.336 0 0 0-.199-.585c-.211-.3-.596-.423-.875-.664-.279-.24-.46-.607-.785-.788a1.525 1.525 0 0 0-.985-.087 5.198 5.198 0 0 0-1.838.691c-.183.117-.398.25-.615.21a.845.845 0 0 1-.452-.347 2.41 2.41 0 0 0-.195 1.137.547.547 0 0 1 0 .171.543.543 0 0 1-.123.183c-.197.228-.319.589-.126.819.086.1.216.155.298.257.148.182.096.447.093.682a.365.365 0 0 0 .058.232.34.34 0 0 0 .323.076.883.883 0 0 1 .343-.032.575.575 0 0 1 .299.23c.361.466.505.979.66 1.542Z" fill="#2D293D"/><path opacity=".1" d="M124.26 97.41a.867.867 0 0 1-.365.237c-.73.308-1.565.272-2.36.222a.54.54 0 0 1-.247-.054.553.553 0 0 1-.204-.352c-.155-.564-.297-1.078-.666-1.545a.566.566 0 0 0-.299-.23.885.885 0 0 0-.343.033.338.338 0 0 1-.322-.077.346.346 0 0 1-.057-.232c0-.235.053-.5-.095-.682-.082-.102-.211-.157-.297-.257a.507.507 0 0 1-.049-.525c-.141.222-.201.507-.039.7.086.1.215.155.298.257.147.183.096.447.093.683a.359.359 0 0 0 .058.231.34.34 0 0 0 .323.077.88.88 0 0 1 .343-.033.58.58 0 0 1 .299.23c.365.469.511.981.666 1.545.02.14.092.266.202.354a.57.57 0 0 0 .246.054c.797.05 1.626.084 2.372-.222a.896.896 0 0 0 .364-.24.708.708 0 0 0 .114-.21c-.011.012-.019.027-.035.036ZM120.542 99.247s3.264.432 3.557-.059l-3.557.059ZM126.887 97.897s1.811 0 2.21.682l-2.21-.682Z" fill="#000"/></g><defs><linearGradient id="b" x1="118.142" y1="145.88" x2="118.142" y2="91.038" gradientUnits="userSpaceOnUse"><stop stop-color="gray" stop-opacity=".25"/><stop offset=".54" stop-color="gray" stop-opacity=".12"/><stop offset="1" stop-color="gray" stop-opacity=".1"/></linearGradient><clipPath id="a"><path fill="#fff" d="M0 0h200v147.013H0z"/></clipPath></defs></svg>